<?xml version="1.0" standalone="no"?> <!DOCTYPE svg PUBLIC "-//W3C//DTD SVG 1.0//EN" "http://www.w3.org/TR/2001/REC-SVG-20010904/DTD/svg10.dtd" > <svg xmlns="http://www.w3.org/2000/svg" width="100%" height="100%">
<defs >
<font id="regular" horiz-adv-x="533" ><font-face
    font-family="Good Font Nothing"
    units-per-em="1000"
    panose-1="0 0 0 0 0 0 0 0 0 0"
    ascent="751"
    descent="-250"
    alphabetic="0" />
<missing-glyph horiz-adv-x="940" d="M340 595Q323 593 321 613Q319 631 334 633Q342 634 349 629T358 616Q360 599 340 595ZM150 370Q126 379 120 380Q97 385 51 394Q50 406 52 431Q55 479 63 535Q71 589 104 631Q172 717 195 743Q246 804 331 828Q403 848 433
851H475Q482 851 485 846Q492 839 504 839Q551 836 623 808Q641 801 659 791T692 770T723 746T754 721Q760 716 782 689Q830 624 843 590Q846 582 854 562T866 531Q885 466 888 425V426L886 425Q810 399 771 388Q703 369 640 359Q598 353 510 349Q473 347 440 346Q316
338 191 358Q175 360 150 370ZM262 660Q241 604 263 568L266 562Q288 506 346 506Q372 505 404 524Q457 558 454 616Q454 633 444 663Q437 688 415 701T365 710Q325 703 311 705Q306 705 300 701Q272 687 262 660ZM890 399V383Q887 269 833 174Q789 101 707 48Q682
31 625 19Q555 5 518 5Q465 5 446 9Q435 12 412 13T377 17Q310 33 269 52Q240 64 205 91Q143 138 105 210Q82 253 71 283Q57 323 52 367L114 355Q118 354 127 351T141 346Q174 334 187 332Q283 318 372 318Q395 318 441 320Q478 323 511 323Q617 329 644 334Q708
344 778 363Q833 378 890 399Z" />
<glyph unicode=" " glyph-name="space" horiz-adv-x="343" />
<glyph unicode="!" glyph-name="exclam" horiz-adv-x="223" d="M149 162Q135 145 115 144T78 157Q61 172 58 203Q56 215 57 223Q61 243 61 314Q61 364 50 761Q50 775 52 781Q57 799 71 804Q102 816 129 801Q138 796 142 785Q146 768 146 745V532Q152 396 154 328Q156
269 167 228Q177 193 149 162ZM173 -54V-66Q171 -85 168 -94Q161 -118 135 -129Q123 -134 108 -129T81 -111Q79 -109 75 -103Q60 -77 80 -57Q104 -32 127 -20Q141 -12 155 -19T172 -44Q172 -45 172 -48T173 -54Z" />
<glyph unicode="&quot;" glyph-name="quotedbl" horiz-adv-x="409" d="M244 582Q248 697 249 712Q250 728 265 741T299 755Q312 756 327 745T343 721Q343 720 344 713T346 701Q346 684 344 650Q340 541 359 489Q354 465 351 460Q339 443 318 437Q296 430 279 440Q253
457 248 478Q244 491 244 508V582ZM59 590Q61 682 51 726Q48 739 58 754T82 774Q98 779 113 775T137 758Q145 748 145 740Q151 666 152 628Q153 603 164 569Q178 529 143 494Q114 465 79 490Q52 510 55 543Q59 583 59 590Z" />
<glyph unicode="#" glyph-name="numbersign" horiz-adv-x="1062" d="M870 435H788Q767 435 755 415Q711 337 691 298Q685 288 691 279Q696 271 708 271Q718 270 742 270T780 267Q798 266 818 254Q840 243 847 214Q850 198 841 184T816 168Q792 164 766 162Q746
160 724 159T675 156T633 153Q607 150 593 125Q549 55 520 -10Q513 -28 500 -45Q483 -67 456 -67Q440 -68 424 -55T403 -26Q394 15 415 42Q417 44 428 59T446 82T469 116Q478 130 474 140T455 154Q428 158 353 158Q331 158 320 138L280 55L239 -39Q228 -62 200
-67T151 -55Q144 -48 139 -38Q125 -1 143 30Q151 43 166 66T187 99Q199 119 196 138Q194 152 184 153Q175 155 154 155Q144 155 124 155T93 154Q80 154 66 166Q47 184 52 213Q53 226 62 237T82 250Q97 254 102 255Q115 256 143 256T184 257Q201 257 235 259Q264
262 278 283Q297 312 331 370Q335 377 335 389T322 403Q314 405 272 400Q236 394 201 397Q168 402 165 440Q163 456 176 479Q184 494 200 496Q300 499 393 518Q409 521 417 535Q428 551 432 562L496 701L502 710Q523 742 554 729Q584 716 597 688Q607 666 595 649L556
601Q540 582 537 555Q536 544 546 539Q552 535 555 535H668Q704 535 725 571Q738 595 753 626Q777 676 808 724L828 747Q835 754 846 756T865 753Q886 741 897 727Q916 701 901 679Q892 664 874 637T850 602Q834 578 832 566Q830 559 834 551T845 542Q877 537 926
539Q950 541 967 538Q986 537 1000 517Q1008 505 1009 498Q1016 475 1004 460Q989 438 972 437Q938 435 870 433V435ZM467 253H498Q501 253 507 253T518 254Q546 255 560 279L639 410Q643 418 638 428T622 439Q580 443 500 433Q484 432 475 417L401 295Q397 287
397 275Q396 265 407 259Q416 255 425 254T448 253T467 253Z" />
<glyph unicode="$" glyph-name="dollar" horiz-adv-x="492" d="M440 214Q446 179 424 134Q398 87 363 67Q351 59 322 37Q309 26 308 10Q308 5 310 -20Q310 -46 289 -65Q269 -85 242 -73Q217 -60 208 -36Q206 -29 201 -9T191 22Q183 44 163 51Q161 52 143 59T116
69Q74 80 53 131Q47 145 55 160T79 178Q94 181 109 178Q126 173 137 166Q169 145 202 138Q267 123 305 165Q331 191 331 229Q331 281 301 314Q290 329 279 334Q209 367 156 382Q78 404 57 490Q50 523 63 550Q71 568 90 605Q109 640 148 660Q153 662 162 667T175
674Q183 680 185 691Q186 696 188 714T193 741Q199 760 210 779Q215 789 229 795T253 800Q282 791 288 766Q291 751 295 721T303 676Q306 663 321 652Q326 649 335 644T348 638Q368 626 380 599Q386 581 375 571Q359 557 351 552Q334 543 321 549Q301 557 276 572Q258
583 227 583Q182 583 164 540Q162 536 160 528Q159 523 158 521Q156 513 160 501T172 484Q195 470 218 464Q253 455 332 419Q372 401 399 358Q434 302 437 243Q439 223 440 214Z" />
<glyph unicode="%" glyph-name="percent" horiz-adv-x="913" d="M730 723Q729 698 714 665Q708 652 702 649Q687 641 675 628T654 602T635 574Q602 521 556 449T471 328Q445 288 368 179T254 7Q246 -5 243 -10Q225 -38 189 -30Q172 -26 164 -14Q163 -12 159 -6T154
3Q144 25 155 42Q161 54 166 60Q221 125 288 235Q290 238 297 250T310 269Q340 309 392 389T471 506Q494 537 509 566Q558 654 578 679Q586 690 599 714T613 741Q627 768 660 777Q688 783 709 768Q728 755 730 723ZM706 -55Q663 -47 644 -42Q616 -35 592 -11Q571
10 567 32Q564 52 557 102Q554 120 563 142Q574 171 575 181Q578 218 623 243T701 261Q725 254 729 251Q779 215 807 203Q838 191 852 151Q872 103 854 62Q853 59 842 30T822 -13Q811 -33 793 -40Q753 -58 706 -55ZM704 141Q688 143 683 143Q675 144 667 136T658
118Q658 93 659 88Q662 57 697 47Q712 43 727 49T749 68T758 97Q760 109 752 120T732 135L704 141ZM211 483Q172 480 141 497Q118 509 102 528Q83 552 62 599Q41 651 60 697Q73 727 87 740Q113 762 127 771Q179 804 234 783Q293 762 318 748Q343 733 360 705Q371
685 370 666Q370 660 368 643T365 616Q362 572 326 536Q307 517 287 504Q264 487 240 486Q220 484 211 483ZM212 689Q195 689 189 688Q171 686 157 666Q139 638 158 610Q163 603 163 602Q177 582 206 582T250 601Q269 625 264 657Q262 666 254 675T238 685Q232
686 223 687T212 689Z" />
<glyph unicode="&amp;" glyph-name="ampersand" horiz-adv-x="644" d="M51 159Q50 203 72 248Q86 274 150 367Q159 379 152 396Q147 408 133 432Q127 443 111 469T87 511Q61 560 69 620Q80 687 143 710Q148 712 172 720Q205 731 243 725Q274 719 302 710Q319 705
336 688Q373 652 398 596Q408 573 402 546Q397 523 384 498Q374 477 361 457T328 409T301 370Q298 366 299 356T302 341Q309 330 328 311T355 279L394 219Q404 207 410 207Q424 207 436 221Q440 226 448 236T462 252Q494 289 534 309Q543 314 553 315Q556 316 563
314Q578 310 587 296T593 268Q578 217 545 191Q531 179 496 140Q474 116 489 83Q500 57 517 23T552 -33Q554 -37 561 -52Q571 -71 563 -93T525 -121Q516 -124 505 -120Q470 -106 461 -80Q434 -13 412 21Q408 26 399 28T385 26L302 -34Q277 -53 226 -61Q208 -63
176 -51Q141 -38 106 -10Q82 8 71 39Q53 94 51 159ZM152 148Q152 127 156 106Q164 67 193 48Q223 27 250 45Q296 77 322 101Q340 117 331 137Q293 212 228 273Q221 279 210 278T192 268Q152 217 152 148ZM173 579L176 560Q206 496 218 479L225 472Q229 468 238
468T252 471Q282 501 294 540Q302 560 294 579Q285 603 264 620Q251 630 231 630T197 621Q174 605 173 579Z" />
<glyph unicode="&apos;" glyph-name="quotesingle" horiz-adv-x="216" d="M51 706Q55 821 56 836Q57 852 72 865T106 879Q119 880 134 869T150 845Q150 844 151 837T153 825Q153 808 151 774Q147 665 166 613Q161 589 158 584Q146 567 125 561Q103 554 86 564Q60
581 55 602Q51 615 51 632V706Z" />
<glyph unicode="(" glyph-name="parenleft" horiz-adv-x="361" d="M51 366Q50 409 58 499Q66 600 117 725Q124 743 137 760Q170 803 214 856Q243 893 287 872Q306 863 310 847T301 812Q292 800 281 789Q203 716 174 584L162 524Q156 484 155 463Q154 439 154 412T153
351T152 300Q151 247 171 179Q184 133 206 84Q224 44 247 26Q254 19 260 10Q274 -7 271 -27T247 -60Q221 -77 193 -70T150 -35Q97 68 67 173Q54 220 53 264Q53 298 51 366Z" />
<glyph unicode=")" glyph-name="parenright" horiz-adv-x="373" d="M323 319Q323 315 320 275T316 213Q316 193 312 172T301 123T292 83Q288 70 281 54Q250 -13 244 -30Q240 -42 227 -55Q216 -68 201 -68Q173 -70 156 -48Q140 -29 146 0Q150 13 157 28L189 92Q212
143 216 190Q218 217 226 271Q241 379 217 504Q208 548 182 600Q107 752 61 812Q57 818 56 821Q46 843 55 860Q67 885 95 885Q103 885 115 883Q133 878 141 867L156 840L233 697Q261 648 287 576Q315 503 319 427Q321 359 323 319Z" />
<glyph unicode="*" glyph-name="asterisk" horiz-adv-x="475" d="M367 624H405Q413 624 420 615Q424 611 424 607Q425 591 412 583Q397 573 381 573Q350 575 325 568Q324 568 323 565T323 560Q324 556 329 553Q337 546 355 529T384 502Q391 496 391 485Q391 475
383 469Q368 460 347 467Q345 468 343 470Q335 476 332 479Q325 489 316 498T295 519T276 536Q276 537 275 537T272 535Q269 535 269 533Q267 527 267 524Q264 493 272 458Q273 454 273 444Q274 433 264 424T242 417Q233 418 224 426T215 446Q214 453 214 467T213
488Q213 490 212 495T211 502Q209 508 205 507Q198 507 197 504L185 489Q178 478 151 444Q147 440 135 434Q131 431 122 433Q114 436 107 444Q98 453 104 466Q107 470 125 491Q143 510 177 552Q180 555 180 561Q182 567 176 567Q164 569 157 568Q151 567 141 566T125
564Q94 561 73 563Q66 564 60 569Q43 581 54 602Q55 606 61 608Q67 611 74 611Q77 611 97 610T121 610Q135 611 163 615Q179 617 186 618Q186 619 187 621T189 626T187 630Q168 648 151 673Q132 701 112 720Q110 721 103 731Q97 738 99 749T109 764Q115 768 125
767T139 761Q146 755 152 748L182 706Q187 699 197 687Q203 681 209 681Q211 681 213 685T216 692Q216 703 217 725T220 758Q220 760 220 763T221 767Q222 773 228 778T241 784Q255 784 263 776Q269 772 269 764Q269 745 266 727Q264 704 269 670Q277 668 278 668Q280
668 286 672Q309 691 339 725Q349 737 351 739Q362 750 377 748Q387 747 392 738Q394 736 394 734Q402 721 391 707Q390 706 386 703T381 698Q369 689 326 646Q325 645 323 643T320 639Q318 636 318 631Q320 625 325 625Q339 624 367 624Z" />
<glyph unicode="+" glyph-name="plus" horiz-adv-x="638" d="M350 183Q352 161 356 102Q358 77 345 59T307 33Q291 28 278 37Q245 59 244 96Q242 108 245 117Q258 170 254 289Q253 298 245 306T227 316Q201 319 177 319Q165 319 141 319T105 318Q85 319 69 334T51
370Q49 385 59 398T85 413Q88 413 98 414T115 414Q127 414 151 411T187 408Q220 408 237 414Q242 416 248 423T256 436L259 466Q259 492 259 543T258 620Q258 643 276 655T314 665Q318 665 324 663Q338 658 349 645T360 618Q356 516 355 465Q355 452 360 435Q363
427 374 421Q382 417 394 417Q463 414 515 428Q535 432 545 432Q568 432 580 414Q593 397 582 376Q572 358 566 350Q554 332 533 329Q518 326 502 326Q492 326 480 326T454 328T431 329Q418 329 390 327Q377 326 367 317T356 296Q352 228 350 183Z" />
<glyph unicode="," glyph-name="comma" horiz-adv-x="292" d="M106 -240Q84 -241 69 -225Q60 -215 54 -199Q48 -189 51 -180Q87 -61 145 22Q166 49 200 38Q231 28 240 -5Q244 -16 239 -24Q221 -63 197 -106Q178 -141 169 -182Q163 -212 125 -234Q121 -236 113
-238Q108 -239 106 -240Z" />
<glyph unicode="-" glyph-name="hyphen" horiz-adv-x="414" d="M189 407Q215 408 247 410T292 412Q298 412 333 407Q350 405 359 387T360 352Q338 305 287 307Q267 309 257 311Q218 320 177 315Q163 314 96 311Q73 311 59 333T53 377Q66 409 100 409Q115 409 148
409T189 407Z" />
<glyph unicode="." glyph-name="period" horiz-adv-x="246" d="M113 85Q146 88 177 60Q202 38 193 5Q180 -42 142 -68Q138 -72 134 -73Q105 -83 86 -69Q59 -51 53 -20Q48 8 54 40Q57 55 68 66T93 82Q107 84 113 85Z" />
<glyph unicode="/" glyph-name="slash" horiz-adv-x="693" d="M101 -121Q82 -120 64 -105Q56 -98 52 -83T53 -58Q77 -4 119 56L182 149Q214 201 228 228Q263 298 314 367Q378 452 451 581Q457 591 471 616T496 660T519 695Q525 703 533 719T543 739Q550 748 559
751Q569 755 589 759Q606 761 622 750T641 721Q649 681 625 654Q619 647 608 635T588 613T572 592Q569 587 561 576T550 558Q533 520 492 457T440 375Q424 346 397 318Q354 271 334 214Q326 197 325 195Q316 165 295 143Q226 66 160 -72Q151 -92 137 -106Q122 -121
101 -121Z" />
<glyph unicode="0" glyph-name="zero" horiz-adv-x="626" d="M576 463Q569 333 565 307Q563 299 563 295Q562 263 552 226T533 168T504 104Q490 74 463 45T407 3Q370 -14 316 -31Q309 -34 291 -34Q235 -35 186 -5Q134 29 120 46Q108 59 94 78T73 116Q48 195 51
242Q58 341 80 539Q81 545 83 556T87 570Q104 636 104 640Q109 670 128 706Q150 748 170 779Q181 795 193 802Q224 822 259 825Q337 828 397 799Q404 796 418 790T439 780Q465 766 478 757Q532 721 557 635L569 591Q571 579 571 572Q572 551 572 534T572 497T576
463ZM143 299Q146 262 150 183Q151 180 158 173Q163 169 168 176Q211 236 245 318Q268 373 304 434Q332 479 343 515Q348 530 365 558T387 601L390 607Q397 636 415 667Q418 672 417 679T410 690Q400 698 394 702Q348 726 339 734Q324 747 296 743Q239 737 216
685Q195 638 183 587Q178 562 158 447Q148 389 143 299ZM460 512Q459 510 455 499T446 483Q436 470 427 455T407 418T391 388L351 314Q337 290 336 286Q332 279 303 220T256 131L244 95Q241 76 259 69Q274 62 290 63Q345 66 392 113Q429 155 443 202Q462 263 466
309Q469 343 474 464Q475 481 466 507Q466 508 460 512Z" />
<glyph unicode="1" glyph-name="one" horiz-adv-x="435" d="M265 162Q264 179 261 198T257 245Q254 299 252 407Q251 435 250 491T248 576Q248 594 245 610Q244 614 237 621Q228 628 218 618L173 574Q170 571 164 564T154 553Q144 541 124 536Q112 532 103 535Q66
544 53 580Q48 591 51 604T64 624Q85 639 150 697Q211 751 243 792Q263 818 304 822Q329 825 344 812T361 774Q363 761 360 753Q351 723 351 662Q351 637 351 585T351 507Q353 357 359 282Q365 219 365 208Q369 111 381 54Q387 31 382 -2Q380 -18 367 -28T337 -38Q300
-36 276 -9Q270 -3 266 10Q261 29 262 37Q265 56 265 162Z" />
<glyph unicode="2" glyph-name="two" horiz-adv-x="570" d="M394 -8Q379 -9 350 -10T308 -14Q305 -14 253 -23Q218 -31 212 -31Q176 -33 156 -6Q146 7 135 30Q129 44 133 58L142 84Q181 229 194 296Q212 380 242 457Q269 531 299 623Q314 666 313 692Q311 714
293 717Q251 726 220 700Q198 681 181 660Q164 640 128 615Q110 605 94 614Q57 634 51 675Q50 688 58 701Q64 709 68 712Q122 763 124 765Q177 816 257 821Q340 824 401 776Q414 766 419 747Q425 725 421 691Q411 600 379 513Q357 454 317 334Q314 325 310 307Q303
278 293 221T275 135Q274 132 274 114Q274 110 278 105T286 99Q320 93 356 98Q406 103 419 106Q451 112 487 95Q514 82 519 52Q520 42 517 31Q500 -5 456 -10H428L394 -8Z" />
<glyph unicode="3" glyph-name="three" horiz-adv-x="414" d="M215 -35Q214 -35 200 -33T176 -30Q121 -27 81 24Q67 39 78 59Q78 60 79 62T81 66Q94 91 118 95T162 80Q166 77 173 70Q186 60 201 61T228 74Q252 98 255 135Q261 206 211 268Q205 276 180 301Q151
331 122 334Q92 337 61 374Q48 390 50 409T68 441Q71 443 99 463Q102 465 118 476T142 493Q196 536 224 591Q239 623 238 656Q235 690 203 701Q175 710 128 712Q101 715 80 744Q69 761 77 780T106 803Q142 810 180 799Q228 785 276 755Q307 736 324 708Q344 675
341 643Q333 554 280 491Q272 481 262 470T239 445T219 424Q206 409 217 396L226 384Q236 372 242 368Q277 340 326 262Q373 187 361 96Q355 40 305 -8Q274 -38 215 -35Z" />
<glyph unicode="4" glyph-name="four" horiz-adv-x="590" d="M269 289Q267 327 267 345Q267 354 275 364T291 377Q314 384 347 379Q357 378 364 369T373 349Q373 325 372 314Q371 302 376 243Q377 238 384 232T396 227Q442 232 445 233Q479 239 515 231Q529 229
536 215T536 187Q528 171 520 164Q516 160 506 154T492 143Q456 109 415 124H401Q397 124 393 120T386 111Q381 93 387 55Q388 46 391 28T395 0Q398 -18 387 -41Q372 -73 341 -63Q316 -54 308 -49Q294 -39 290 -29Q273 13 277 39Q283 84 276 109Q271 121 260 123Q258
123 254 123T246 124Q190 124 162 119Q160 119 127 113Q91 110 63 137Q49 152 51 176Q53 187 57 196Q83 255 110 349Q130 420 140 443Q147 461 152 483Q156 499 183 591T220 735Q226 752 227 755Q237 773 254 776Q287 780 310 776Q323 773 332 759T338 733Q322
687 315 674Q302 646 294 615Q291 603 285 578T275 540Q264 499 259 486L203 319Q197 299 181 237Q180 231 184 224T195 216Q196 216 198 216T202 215Q234 215 251 216Q272 218 272 240Q270 272 270 289H269Z" />
<glyph unicode="5" glyph-name="five" horiz-adv-x="486" d="M335 240Q336 276 307 309Q289 329 233 361Q191 385 152 382H117Q92 381 67 404Q48 421 51 441Q55 476 57 541T62 638Q63 647 63 666T65 694Q68 716 90 726Q122 740 158 742Q196 745 227 756Q262 768
302 750Q318 743 320 722Q325 676 280 665Q271 663 252 663Q218 660 217 660Q185 654 175 642T162 599Q161 571 163 515Q165 483 192 471Q200 467 224 455T262 437Q303 418 367 367Q378 359 397 338Q432 297 435 242Q436 188 407 134Q363 48 284 14Q234 -6 218
-12Q194 -19 171 -10T133 21Q117 46 135 67L150 82Q178 103 203 96Q230 89 262 110Q289 127 302 149L326 192Q337 211 335 240Z" />
<glyph unicode="6" glyph-name="six" horiz-adv-x="509" d="M51 424Q50 508 67 620Q72 658 99 769Q105 797 136 802Q143 804 159 804Q197 806 209 767Q211 762 211 745Q211 741 208 738Q162 657 155 534Q150 470 149 405Q147 352 157 315Q159 306 168 306Q180
303 198 305Q231 309 296 305Q354 301 423 259Q437 250 446 229Q468 176 453 125Q451 118 436 83Q424 57 398 36Q394 33 386 28T373 19Q315 -20 242 8Q169 37 115 102Q98 122 83 162Q47 268 51 378V424ZM272 221H249Q219 220 200 191Q189 176 198 156Q217 120 262
95Q283 84 306 96Q346 118 354 160Q361 195 330 209Q302 222 272 221Z" />
<glyph unicode="7" glyph-name="seven" horiz-adv-x="438" d="M200 788Q232 790 315 796Q336 798 357 790Q373 785 381 771T387 741Q387 736 386 734Q369 676 359 596T344 456Q339 411 316 183Q315 173 311 155Q302 111 307 64Q308 58 308 46T309 28Q310 -11 276
-29Q270 -32 262 -32Q230 -31 209 -8T192 46Q192 56 194 60Q206 104 222 248Q249 480 260 577Q262 592 264 622T268 668Q268 676 261 683T246 692Q245 692 243 692T239 693Q181 695 134 684Q108 677 85 691T53 733Q42 775 84 787Q95 791 111 791Q179 789 200 788Z"
/>
<glyph unicode="8" glyph-name="eight" horiz-adv-x="492" d="M385 562Q385 538 375 515Q351 466 334 426Q325 410 337 393Q344 383 358 365Q384 335 408 289Q465 182 424 57Q417 35 397 17Q345 -29 254 -33Q175 -36 127 42Q97 92 107 150Q121 224 136 259L177
363Q186 387 169 409Q164 415 145 441T113 481Q85 514 56 586Q51 599 51 620Q49 671 76 714Q97 745 99 749Q115 774 147 789Q194 812 243 797Q273 787 291 769Q324 736 338 708Q342 700 350 685T364 657T374 632Q385 597 385 562ZM215 123Q216 116 216 102Q220
76 248 69Q271 64 289 71Q318 82 327 109Q335 139 338 164Q341 178 337 198Q332 225 324 245Q308 284 283 300Q276 305 270 299Q259 286 258 283Q246 259 224 185Q215 154 215 123ZM233 488Q235 489 239 489T246 492Q265 518 269 526Q301 594 269 653Q248 690 239
700Q221 716 200 704Q182 693 171 675Q134 619 163 563Q187 522 220 493Q222 492 226 491T233 488Z" />
<glyph unicode="9" glyph-name="nine" horiz-adv-x="491" d="M220 820Q307 823 382 753Q385 751 389 745T397 737Q453 686 436 595Q430 555 412 485Q401 447 394 432Q373 388 339 305T288 186Q257 113 202 24L163 -42Q153 -58 147 -65Q137 -75 122 -77Q99 -80
79 -64T57 -26Q56 -17 61 -6Q64 3 75 18Q106 56 141 126Q191 223 254 368Q259 378 263 402Q263 409 255 413Q249 416 243 417T228 418T214 419Q184 422 159 432Q74 465 52 561Q49 575 52 589Q63 665 89 732Q98 755 113 775Q147 821 196 818Q200 818 220 820ZM213
516Q257 516 272 525Q280 530 286 543T296 559Q308 573 314 581Q321 593 322 600Q325 613 329 648Q330 654 327 662Q313 710 272 730Q242 745 211 733Q188 725 182 705Q172 670 159 610Q155 595 157 575Q157 565 161 547Q168 526 190 520Q202 516 213 516Z" />
<glyph unicode=":" glyph-name="colon" horiz-adv-x="245" d="M117 215Q153 210 175 184Q200 153 190 118Q189 114 173 82Q166 69 150 64Q118 53 95 63T59 101Q40 142 63 189Q68 200 84 208T117 215ZM195 519Q194 491 176 468T130 437Q122 434 110 438Q96 444
85 455Q65 475 57 497Q41 543 68 574Q81 590 102 593Q161 599 192 539L195 519Z" />
<glyph unicode=";" glyph-name="semicolon" horiz-adv-x="312" d="M193 196Q193 184 192 180Q191 173 185 161Q177 146 171 130T157 90T145 57Q140 41 121 33T86 32Q38 51 54 97Q69 138 97 201Q97 202 107 218Q115 231 131 235T161 235Q167 233 171 231Q192 221
193 196ZM262 500L250 461Q244 445 227 436T193 429Q166 434 149 452Q120 482 123 515Q126 563 165 593Q177 601 194 601T221 590Q245 564 254 540Q257 532 259 518T262 500Z" />
<glyph unicode="&lt;" glyph-name="less" horiz-adv-x="633" d="M479 739Q511 737 519 708Q523 698 519 683T506 661Q504 660 502 658T498 655Q449 632 411 586Q410 584 408 582T404 578Q375 543 341 505T265 421T200 350Q181 328 207 308L385 172Q415 151 463
122Q481 112 514 94T561 67Q584 54 582 24Q580 -2 555 -17T506 -21Q491 -14 488 -11Q452 27 377 77Q370 82 270 156L180 223Q140 252 98 263Q77 268 68 283T51 324Q48 337 60 352Q64 357 67 359Q164 428 302 585Q381 676 405 699Q424 718 435 726Q456 741 479 739Z"
/>
<glyph unicode="&gt;" glyph-name="greater" horiz-adv-x="566" d="M390 437Q388 443 386 447Q362 485 309 542Q296 555 277 567Q242 590 189 620Q148 644 72 702Q61 710 53 726Q48 736 52 750T68 769Q95 781 118 774Q124 773 145 761Q148 759 152 753T157 745Q176
721 203 704Q216 696 241 679T280 654Q332 620 383 571Q406 548 438 518T498 470Q504 465 510 453Q518 434 513 424Q501 398 491 378Q477 355 459 338Q388 275 308 172L231 76Q208 47 135 -56Q123 -72 98 -68Q77 -65 63 -49Q56 -42 54 -30T56 -11Q62 1 66 6L187
159L336 341Q375 392 389 428Q390 430 390 433T390 437Z" />
<glyph unicode="?" glyph-name="question" horiz-adv-x="348" d="M297 638Q302 559 272 499Q269 492 251 455T222 398Q205 367 208 319Q213 249 237 190Q246 169 231 141Q222 123 202 117T160 122Q131 136 130 161Q128 194 123 231T111 314T100 384Q98 395 100
404Q102 423 110 432L125 447Q160 475 177 514T205 608V628Q204 647 191 660T159 673L142 672H143Q111 669 108 669Q74 669 57 696Q48 710 51 726T69 748Q95 760 129 762Q168 762 210 751Q250 741 276 705Q285 690 289 678Q296 657 297 638ZM195 -7Q229 -5 248
-32Q260 -48 255 -69T232 -101Q209 -114 183 -103T152 -66Q152 -59 151 -56Q157 -21 185 -10Q191 -7 195 -7Z" />
<glyph unicode="@" glyph-name="at" horiz-adv-x="750" d="M395 -14H343Q303 -12 274 2Q267 6 252 13T228 24Q216 31 203 42Q137 96 101 168Q91 186 88 196Q72 250 58 304Q43 369 62 476Q68 517 80 556Q89 586 104 612Q129 655 172 671Q263 704 340 716Q368 721
390 714Q457 694 467 687Q488 675 505 671Q552 658 599 612Q613 598 662 545Q687 517 690 481L699 390Q705 308 645 240Q637 230 623 219Q575 179 508 195Q499 196 489 203Q484 206 439 238Q425 249 411 243Q400 239 378 230T344 217Q327 210 304 219Q280 226 259
243Q225 272 217 311Q199 396 261 461Q313 515 383 490Q420 476 475 445Q479 443 488 429Q507 397 507 361Q507 331 511 321Q519 299 540 295Q555 291 568 302Q608 335 609 382Q609 421 605 453Q600 501 572 526L545 556Q531 571 513 582Q463 611 422 628Q392 642
363 635Q296 621 235 598Q199 583 183 552Q182 550 173 532T162 505Q159 492 143 405Q141 390 143 374Q156 284 179 226Q187 207 207 171Q215 155 234 141Q238 138 253 128T275 111Q309 81 360 84Q425 90 451 98Q456 100 481 102Q493 104 505 97T522 78Q524 74
529 59Q534 32 511 14Q485 -8 445 -11Q425 -14 395 -14ZM385 381V392Q387 404 376 412T350 413T333 402Q311 379 310 348Q309 343 316 329Q318 323 326 320T341 319Q379 338 385 381Z" />
<glyph unicode="A" glyph-name="A" horiz-adv-x="548" d="M457 240Q457 214 451 207Q441 195 452 156Q464 110 491 19Q499 -9 497 -43L494 -63Q489 -83 468 -83Q461 -83 447 -81Q431 -78 425 -65Q408 -35 404 -21Q398 0 382 51T358 132Q353 150 346 155T316 156Q243
146 199 139Q180 134 175 116Q155 30 152 -2Q150 -14 148 -22Q147 -32 137 -38T116 -44Q76 -41 55 -2Q51 6 51 11Q51 39 53 46Q58 62 65 129Q68 155 82 212Q84 220 100 287T129 388Q139 418 144 450Q147 475 170 559L191 640Q199 667 217 721Q226 746 254 748Q272
751 276 750Q306 747 324 720Q340 686 349 625Q356 587 374 504T400 376Q407 328 412 305Q416 287 420 282T431 276T442 274Q453 269 457 240ZM306 351Q302 371 290 445Q285 466 283 473L277 485Q273 492 266 490Q262 488 260 486Q254 478 253 474Q223 345 220
316Q220 311 219 302T218 284T217 269Q217 266 222 262T230 258Q277 258 300 259Q320 258 317 279Q312 309 306 351Z" />
<glyph unicode="B" glyph-name="B" horiz-adv-x="421" d="M74 660Q73 677 71 715Q70 744 94 751Q112 757 122 758Q162 762 178 737Q198 709 237 689Q278 667 332 617Q335 614 354 590Q379 555 366 510Q354 471 334 417Q329 404 316 387Q310 380 299 367T284 350Q270
333 271 324T289 297L304 282Q309 277 318 267T333 251Q356 228 363 189Q365 174 363 168L333 89Q327 76 316 67Q259 12 210 -14Q204 -17 183 -29T149 -48Q137 -56 122 -48Q113 -44 99 -36T79 -24Q48 -8 52 27Q56 54 53 83Q50 116 50 182L59 498Q59 509 61 533Q69
617 74 660ZM162 482Q162 438 163 419Q163 410 167 406Q171 400 178 403Q234 452 245 531Q251 567 220 583Q212 588 194 594Q189 596 182 592T173 580L162 482ZM156 187H155Q157 147 160 125Q161 120 164 110T167 99Q168 95 174 94T185 94Q223 116 235 167Q245
217 206 247Q198 254 180 256Q172 256 165 250T156 236V187Z" />
<glyph unicode="C" glyph-name="C" horiz-adv-x="426" d="M52 345Q56 432 74 512Q78 536 79 547Q88 629 144 700Q148 704 155 714T166 728Q194 759 232 765Q264 771 295 774Q317 777 343 768Q362 762 369 746Q379 728 374 712T351 687Q343 682 325 676Q320 674
309 671T292 666Q252 650 232 619Q207 583 202 549Q198 524 184 481Q169 428 169 384Q169 375 168 346T168 300Q169 227 193 155Q211 95 265 63L348 10Q358 3 361 -10T359 -35Q355 -44 345 -50T325 -56Q311 -56 304 -54Q280 -47 230 -31Q223 -29 218 -26Q198 -13
173 7T134 49L89 120Q74 145 65 186Q47 292 52 345Z" />
<glyph unicode="D" glyph-name="D" horiz-adv-x="536" d="M475 456Q477 427 479 421Q491 383 478 323Q477 321 477 316T476 309Q473 280 465 233L401 108Q394 98 387 92Q339 48 304 28Q298 24 228 -9Q216 -14 207 -14Q188 -15 147 -32Q130 -39 106 -29Q70 -15
54 24Q50 33 50 45Q50 88 62 128Q72 167 71 205Q70 232 74 282Q81 383 83 585Q85 669 87 712Q88 734 110 745Q140 759 155 765Q193 777 224 762Q247 751 277 735T327 702Q342 692 345 691Q363 684 379 670T405 640T428 607Q431 602 439 582L460 529Q462 524 465
517T471 503T475 491Q477 484 477 456H475ZM358 404Q360 420 357 437T347 479T338 515Q335 529 323 547Q304 576 285 598Q258 628 230 641Q220 646 210 641T198 624Q197 619 197 610T196 596Q196 465 194 399Q194 375 192 331T190 272Q190 221 187 195Q184 179
186 146Q188 136 198 113Q199 109 205 106T216 105Q274 134 305 182Q330 220 342 265Q361 339 358 404Z" />
<glyph unicode="E" glyph-name="E" horiz-adv-x="455" d="M312 769Q330 771 345 771Q361 771 377 760T398 732Q409 688 371 665Q349 653 324 652Q258 648 227 638Q224 637 217 635T207 631Q195 623 194 615Q192 600 188 570T182 515T180 468Q180 457 183 448Q186
438 192 438Q240 428 268 435Q293 440 330 425Q342 420 350 407T357 380Q355 365 345 355Q324 335 295 331Q280 329 250 326T205 320Q199 319 194 313T187 301Q170 191 179 83Q180 76 185 71T197 65H211Q212 65 225 66T246 68Q273 68 301 79Q323 87 334 88Q349
91 369 87Q386 86 396 66Q400 58 402 47Q409 19 395 -4T352 -32Q343 -34 325 -36H268Q198 -38 154 -64Q125 -81 88 -55Q86 -53 81 -48T73 -41Q45 -11 52 22Q65 82 60 162Q57 215 65 260Q76 323 70 393Q64 469 72 569Q72 574 74 591T76 618Q78 661 70 687Q66 705
75 720T102 743Q121 752 143 752Q196 754 233 765Q237 766 274 769H312Z" />
<glyph unicode="F" glyph-name="F" horiz-adv-x="393" d="M301 787Q302 787 307 786T314 784Q324 780 332 772Q344 758 342 725T323 683Q316 679 307 679T291 678Q282 675 259 678T227 678Q223 676 215 676T203 674T197 665Q171 560 177 484Q178 473 178 435T180
386Q182 376 184 372Q188 365 192 362Q213 349 233 353Q243 355 263 351T293 350Q302 352 312 341T326 319Q330 297 321 277Q315 264 304 259T279 249Q275 243 237 244T194 245Q188 244 183 238T176 226Q167 141 173 85Q178 47 174 15Q171 -3 167 -41Q164 -63 139
-78T91 -82Q89 -81 85 -80T77 -77Q65 -71 58 -64T51 -35Q51 -34 51 -29T52 -18T53 -5T54 7T55 15T53 17Q58 96 60 116Q67 204 61 264Q57 316 65 341Q70 428 69 453Q65 556 75 608Q77 621 79 645T82 678Q84 695 78 727Q76 739 84 761Q90 779 107 785Q125 791 135
792Q144 793 160 789T186 785Q190 785 209 783T232 785Q242 781 269 784T301 787Z" />
<glyph unicode="G" glyph-name="G" horiz-adv-x="555" d="M53 243Q55 327 57 369Q59 413 81 501Q82 507 86 523T92 549Q100 605 147 684L156 696Q171 727 197 745T264 780Q270 783 277 783Q321 785 352 767Q359 764 363 758Q385 738 376 714Q374 704 372 701Q366
681 347 679Q338 677 291 675Q276 674 267 661Q206 572 188 467Q170 369 166 335Q164 311 166 237Q167 226 169 207T173 181Q178 137 211 76Q219 59 241 55T278 63Q317 92 338 149Q353 193 355 224Q355 233 349 235Q340 238 323 244T296 254Q273 266 273 294Q272
317 293 329Q310 338 339 344Q409 355 437 358Q456 361 473 350T498 320Q501 311 505 293Q505 286 503 272Q499 261 494 253Q476 222 471 187Q463 133 412 45Q381 -9 313 -42Q277 -59 237 -51Q193 -42 158 -21Q120 0 100 39Q80 76 73 111Q71 125 64 160T53 215Q51
233 50 243H53Z" />
<glyph unicode="H" glyph-name="H" horiz-adv-x="543" d="M377 586V678Q376 689 375 710T373 741T380 763T399 780Q423 789 447 786Q466 784 480 768T492 731Q492 722 490 717Q475 656 483 542Q486 493 483 444Q482 422 481 377T478 310Q473 189 470 170Q464 139
474 107Q479 86 472 58Q470 49 466 31T459 3Q452 -26 422 -35Q399 -43 382 -28Q358 -9 355 19Q353 57 353 76Q353 86 353 149T355 224Q355 229 353 259Q352 263 348 268T339 273Q325 275 318 275Q270 274 193 255L187 252Q170 244 170 232Q158 101 173 35Q175 27
173 7Q170 -36 126 -46Q115 -48 106 -45Q102 -44 87 -37Q46 -20 51 26Q55 65 53 166Q53 237 59 272Q69 331 69 469Q69 553 72 595Q74 627 72 722Q72 743 93 756Q120 774 161 764Q171 761 180 749T189 726Q189 719 187 705Q174 643 174 558Q172 423 174 389Q174
383 179 378T191 370Q193 370 195 370T198 369Q285 366 344 387Q365 394 370 418Q377 454 376 480V586H377Z" />
<glyph unicode="I" glyph-name="I" horiz-adv-x="255" d="M65 396V473Q63 572 73 655Q74 665 74 682T75 704Q81 759 137 757Q155 755 171 751Q187 746 197 729T204 695Q200 675 196 668Q174 623 174 552Q176 482 171 411Q166 324 171 236Q173 216 172 207Q170
174 179 124Q183 96 183 82Q183 64 178 54Q167 28 152 5Q141 -14 116 -12Q97 -11 80 1T58 32Q49 53 51 80Q51 99 54 108Q66 152 64 241V396H65Z" />
<glyph unicode="J" glyph-name="J" horiz-adv-x="443" d="M249 311Q249 378 252 456Q252 480 258 504Q267 543 267 609Q269 693 271 735Q273 754 277 770Q278 779 289 786Q311 800 329 796Q334 794 343 792T356 789Q373 784 384 767T391 735Q372 672 382 588Q384
572 380 539Q371 469 371 420Q371 405 363 280Q355 160 357 140Q358 112 349 70Q339 24 325 7T264 -30Q230 -44 188 -41Q156 -39 136 -22Q127 -14 80 21Q71 27 57 47Q41 71 59 93Q78 115 102 111Q116 108 129 102L177 74Q194 65 211 72T233 98Q237 112 237 119Q245
234 249 311Z" />
<glyph unicode="K" glyph-name="K" horiz-adv-x="572" d="M54 289V402Q55 421 56 499T65 619Q71 648 61 682Q57 695 57 724Q57 736 67 745T89 755Q109 755 130 747Q144 742 154 727T165 698Q165 655 162 635Q157 606 166 565Q166 560 170 560Q179 558 182 561Q202
578 226 616Q229 621 236 633T248 652Q276 703 310 726Q324 736 342 764Q358 785 368 797Q371 802 380 804Q419 818 451 788Q468 770 458 749Q448 729 439 720Q394 671 359 621Q345 602 350 574Q351 573 351 571T352 567L370 478Q373 461 401 370Q423 293 426 275Q432
241 454 180Q475 120 481 93Q489 56 512 15Q522 -7 521 -26Q519 -50 500 -60Q460 -79 430 -48Q409 -27 405 -6Q403 12 398 30T385 74T374 109Q342 229 334 266Q328 294 324 307L272 468Q271 470 269 474T265 480Q260 488 253 482Q249 480 247 478Q204 426 198 419Q174
387 161 359Q155 347 155 329T155 297Q152 234 154 156Q154 149 159 114Q161 100 164 72T169 30V2Q168 -14 156 -28T125 -47Q106 -50 92 -38Q79 -27 74 -17Q54 21 59 50Q61 63 59 113Q57 139 56 169T53 234T50 289H54Z" />
<glyph unicode="L" glyph-name="L" horiz-adv-x="382" d="M57 325Q57 338 59 360Q64 449 62 628Q62 639 54 740V761Q56 779 71 790Q102 811 131 798Q134 796 140 794T150 790Q160 786 169 770T177 743Q176 737 174 723Q166 697 170 660Q177 584 169 555Q167 547
169 541Q173 526 171 482T169 422V309Q169 230 170 190Q171 148 175 64Q176 53 184 45T202 36Q218 35 251 35Q294 35 322 -4Q338 -27 328 -51Q313 -81 284 -82Q249 -84 214 -79Q176 -73 137 -79Q123 -81 109 -79Q101 -79 96 -74Q67 -48 60 -32Q47 -4 51 16Q55 35
55 100Q55 157 56 185Q56 231 58 325H57Z" />
<glyph unicode="M" glyph-name="M" horiz-adv-x="923" d="M175 53Q175 47 173 23Q172 13 162 2T141 -10Q139 -10 137 -10T134 -11Q105 -11 80 3Q70 8 59 21T52 47T77 155T116 299Q122 316 142 387Q155 439 156 449Q159 479 170 534T185 615Q186 619 193 642Q198
652 205 659Q231 685 259 690Q286 696 304 677Q327 654 327 627Q327 611 327 578T329 529Q329 501 331 493Q339 453 351 372T371 251Q373 241 377 223Q378 217 382 212T390 208Q398 214 400 216Q422 258 432 279Q465 354 514 450Q528 478 551 530T584 604Q587 613
592 623Q603 643 622 652Q644 660 655 663Q677 667 696 655T720 622Q721 620 721 615Q737 523 749 477Q759 439 766 381Q777 290 810 182Q823 137 841 103Q857 72 871 25Q877 -1 861 -29Q856 -39 843 -44T819 -47Q801 -42 786 -35Q772 -28 764 -17Q743 10 737 32Q730
60 714 116T687 217T669 304Q666 322 646 415Q645 418 638 425Q637 426 635 426T632 425Q617 410 614 404Q593 366 565 311T522 215Q514 192 466 78Q444 26 436 -1Q429 -24 407 -33T361 -31Q341 -23 315 1Q302 14 303 26Q303 39 301 52T294 83T288 109Q270 191
259 261Q252 296 246 308Q244 312 241 312Q237 312 235 310Q233 306 229 298T223 285L182 128Q172 91 175 53Z" />
<glyph unicode="N" glyph-name="N" horiz-adv-x="604" d="M57 288L69 428Q74 505 74 520Q76 586 62 631Q49 670 55 736Q57 752 70 759Q94 773 107 778Q126 784 145 776T172 749Q188 707 252 584Q279 530 303 476Q312 454 331 414T356 361L394 278Q398 269 406
275Q410 277 410 280Q413 292 413 294Q413 301 413 315T414 336Q414 350 414 375T415 422T417 463L423 575Q426 619 419 673L416 715Q415 729 427 740Q460 767 505 769Q527 769 542 750T552 711Q552 708 550 704T548 697Q528 649 525 580Q525 568 520 510Q519 497
517 453T513 383V130Q513 83 521 60Q527 40 517 12Q509 -14 476 -21Q467 -23 462 -20Q428 -11 395 19Q388 25 384 36L234 393Q218 432 185 486Q180 494 173 488L167 485Q167 482 165 464T161 436Q153 330 151 309Q150 298 147 204Q146 178 146 127T145 49Q145 17
137 -6Q133 -19 119 -27Q93 -44 67 -23Q50 -9 50 13Q52 215 57 288Z" />
<glyph unicode="O" glyph-name="O" horiz-adv-x="746" d="M51 298Q52 409 92 512Q101 539 117 595Q128 628 140 642Q151 661 177 699Q207 747 273 776Q304 789 358 793Q402 795 444 790Q473 788 495 775Q534 749 574 739Q590 736 614 718Q637 703 642 681Q650
648 670 622Q682 605 682 577Q680 536 692 500Q699 475 691 446Q673 372 673 335Q673 317 665 303Q639 259 604 170Q599 158 595 153Q575 127 560 105T522 59T476 19Q441 -6 399 -19Q367 -33 334 -22Q329 -21 218 3Q147 20 113 80L85 125Q61 168 57 206Q50 274
51 298ZM377 677Q344 682 326 682Q305 684 287 666Q243 622 225 579L193 486Q163 402 161 345Q155 316 157 258Q160 198 192 158Q210 132 215 128Q218 120 235 113Q247 107 270 102T300 94Q354 79 406 113Q442 138 462 164Q470 174 482 194T499 222Q549 299 572
408Q580 469 575 495Q572 509 574 527Q575 570 542 627Q537 637 527 644T503 659T482 671Q456 682 440 681Q429 681 377 677Z" />
<glyph unicode="P" glyph-name="P" horiz-adv-x="459" d="M69 318Q64 427 63 473Q61 585 55 627Q52 644 50 704Q50 730 60 751Q65 760 73 767Q109 793 146 783Q169 776 212 768T263 757Q287 752 302 743L369 704Q400 686 406 647Q416 572 388 495Q381 481 377
477Q339 438 304 423L194 377Q179 371 178 356Q176 318 176 300V244Q172 192 181 118Q182 92 192 63Q197 50 192 36Q183 9 170 -1T124 -4Q114 -2 111 0Q70 14 70 51Q69 89 69 164Q69 176 70 199T71 234Q71 244 69 318ZM172 575H171V526Q173 497 204 502Q233 505
262 524Q273 533 276 538Q289 558 292 584Q294 602 284 618T257 640Q243 644 203 653Q190 655 181 647T172 624V575Z" />
<glyph unicode="Q" glyph-name="Q" horiz-adv-x="732" d="M55 265Q45 357 60 429Q65 457 71 513Q75 550 90 595Q104 628 108 648Q115 682 138 719L172 772Q196 805 230 821Q241 826 249 831Q299 858 359 844Q426 826 496 817Q510 815 523 809Q573 785 604 767Q624
758 628 742Q632 727 639 711T655 676T670 646Q679 627 672 612Q659 578 661 507Q661 499 662 483T663 458Q663 433 653 410Q631 354 623 325Q602 252 579 214Q578 213 577 210L576 207Q569 190 582 174L665 79Q669 74 677 62Q684 51 679 35T661 14Q642 7 634 8Q591
8 564 35Q563 36 521 81Q519 84 512 84T501 81Q499 79 492 73T482 61Q463 35 428 17Q423 15 414 10T403 4Q353 -24 296 -27Q291 -27 279 -28T261 -29Q244 -29 226 -24Q222 -23 211 -18T194 -11Q138 9 107 67Q103 74 70 143Q55 176 55 212V265ZM159 319Q166 255
168 222Q172 178 204 124Q209 114 223 104Q246 86 289 82Q317 78 344 90Q404 115 431 168Q436 182 427 195Q425 196 423 200T419 206L382 239Q380 241 371 249T357 263Q343 277 346 297T372 326Q388 332 399 332T434 328Q440 326 451 317L461 307Q463 304 468 300T476
293Q485 284 493 298Q509 322 525 376Q543 435 540 458Q539 464 542 472Q547 487 549 514T552 548Q557 592 543 653Q537 685 508 703Q467 729 422 732Q390 736 373 739Q334 745 291 725Q274 718 262 706Q220 664 209 617L179 494Q169 453 159 369V319Z" />
<glyph unicode="R" glyph-name="R" horiz-adv-x="582" d="M56 613V725Q56 745 75 761Q106 786 141 780Q173 774 239 770Q341 761 405 689Q421 672 425 652Q430 628 435 611Q446 567 436 513Q430 474 399 456Q384 446 382 444Q369 435 371 420Q371 402 374 385Q397
291 438 191Q442 182 461 148L513 48Q526 23 531 -12Q532 -20 526 -32T512 -48Q486 -60 464 -59Q429 -56 413 -26Q405 -9 404 -7Q397 15 388 37T363 92T343 135Q324 179 297 261Q278 318 256 358Q247 376 225 375T191 358Q185 350 185 345Q183 300 172 233V198Q172
193 173 181T174 163Q171 119 184 73Q188 61 188 45Q186 3 148 -5Q134 -9 113 -7Q94 -5 78 13T60 51Q60 61 61 65Q65 84 63 121Q61 187 63 220Q64 248 62 300T59 361Q59 375 58 382Q45 427 55 486Q63 528 57 577Q56 584 55 597T54 612H55L56 613ZM224 646H200H193Q186
645 180 640T175 629Q181 579 171 531Q170 528 173 504Q175 488 193 486Q210 486 214 488Q269 512 289 523Q299 529 313 549Q325 564 320 582Q316 600 313 609Q305 631 283 636Q264 640 224 646Z" />
<glyph unicode="S" glyph-name="S" horiz-adv-x="409" d="M193 759Q229 756 235 755Q254 752 268 743Q285 731 287 707Q287 696 280 687T263 677T235 677T207 675Q184 675 174 652Q153 609 169 571Q177 549 183 539Q225 469 240 450Q257 429 281 387T314 332Q320
323 323 312Q355 188 357 169Q367 94 296 35Q295 35 293 34T290 31Q269 24 240 19T187 16Q163 18 146 27Q140 31 128 37T109 47Q66 76 54 126Q49 143 59 157T85 173Q112 177 138 162Q145 158 150 153T164 140T174 129Q194 111 213 121Q232 133 234 156Q240 221
212 286Q185 343 165 373Q104 465 95 478Q73 511 54 574Q49 588 53 616Q64 667 64 671Q70 729 138 757Q149 761 165 761Q175 761 193 759Z" />
<glyph unicode="T" glyph-name="T" horiz-adv-x="471" d="M153 666Q118 661 90 667Q80 670 71 676Q51 691 51 711Q49 734 80 747Q98 753 108 753Q118 754 138 753T164 752Q189 755 191 756Q213 769 252 760Q289 751 314 753Q334 754 397 738Q414 734 419 713Q422
705 419 696T407 684Q386 674 312 656L300 650L297 644Q295 640 295 637Q294 630 294 616Q301 485 288 399Q285 383 287 364Q292 290 286 224Q285 207 291 175Q295 153 297 84Q300 48 278 10Q266 -9 243 -11Q197 -16 187 29Q180 58 185 78Q191 104 191 169Q188
336 198 464Q200 492 200 632V639Q199 651 192 658T174 666H153Z" />
<glyph unicode="U" glyph-name="U" horiz-adv-x="512" d="M340 487V515Q336 538 338 609T340 705Q339 742 351 795Q359 827 393 838Q406 842 424 837T451 822Q461 809 461 796V775Q453 753 453 691Q452 654 451 579T449 466L446 424Q446 413 444 392T442 361Q440
279 437 256Q435 243 435 200Q435 175 425 145Q411 104 378 43Q359 7 316 -13T234 -25L201 -13Q162 2 124 35Q86 66 65 121Q61 133 61 141Q55 211 55 247Q57 383 61 450Q69 562 59 661Q59 666 57 703T51 759Q51 761 53 773Q54 783 62 791T80 801Q104 805 129 799Q147
794 158 779T165 747Q151 692 162 607Q169 542 164 495Q162 474 159 340Q157 261 165 214Q166 207 169 151Q170 138 180 125Q200 92 246 75Q254 72 266 78Q294 95 306 125Q322 162 325 185Q337 273 337 318Q336 344 336 396Q336 425 338 487H340Z" />
<glyph unicode="V" glyph-name="V" horiz-adv-x="619" d="M304 272Q305 273 309 275T314 280Q327 302 339 345L399 555L411 595Q425 636 429 678Q432 696 442 740Q446 756 464 766Q474 771 483 774Q527 790 559 753Q572 737 566 713Q566 711 564 707Q524 628 477
469Q444 353 381 153Q368 112 369 85Q369 71 360 51Q349 30 331 22Q322 18 304 14Q281 8 265 24Q251 38 244 52L232 85L220 133Q203 189 175 294T133 444Q128 459 84 620Q80 636 71 664T59 701Q52 721 51 728Q48 741 55 755T74 776Q104 792 127 781Q148 770 152
768Q166 758 167 745Q167 742 188 642Q217 511 257 376Q281 297 292 277Q295 269 304 272Z" />
<glyph unicode="W" glyph-name="W" horiz-adv-x="947" d="M115 149Q115 174 108 210Q101 245 101 286Q101 364 87 419Q82 443 82 475Q84 532 66 714Q65 724 63 735T57 760T51 782Q49 794 57 805T78 819Q94 821 126 823Q134 824 142 818T152 803Q161 770 165 719Q181
545 181 516Q187 486 192 431T200 355Q200 351 206 343Q207 341 211 339Q215 339 217 341Q233 367 234 372Q241 398 251 427T276 489T298 543Q300 549 310 577T326 622Q330 640 346 667Q367 707 369 733Q369 738 374 753Q382 779 406 788Q439 797 461 796Q475 795
485 783Q491 775 492 770Q497 750 514 701T536 622Q540 611 554 568T579 503Q598 463 609 417Q613 402 623 371T638 323Q640 315 660 272Q662 269 670 265L674 270Q687 313 686 332Q686 336 694 394Q697 408 703 437T714 488T720 532Q723 579 743 635Q762 687 762
738T821 818Q828 821 835 820Q853 818 869 814Q877 812 880 806Q908 763 889 726L874 702Q860 682 858 656Q856 606 837 561Q836 560 835 558T834 554Q832 533 817 472T803 375Q803 322 785 271Q781 257 774 209Q763 141 761 48Q761 38 759 20Q754 -16 721 -26Q680
-38 657 -10T626 45Q594 148 536 304Q531 317 523 349T508 398Q493 430 473 483Q467 499 458 528T444 569Q441 578 433 573Q428 570 427 569Q413 545 407 533Q368 456 344 376Q330 329 312 283Q302 257 274 170Q256 108 251 67Q245 27 233 -8Q227 -33 199 -41Q191
-45 186 -44Q153 -35 137 -18Q124 -5 124 7Q124 18 118 66T115 149Z" />
<glyph unicode="X" glyph-name="X" horiz-adv-x="670" d="M161 785Q167 785 173 785T180 784Q213 781 224 753Q239 718 266 673T314 594Q316 591 323 591T332 596Q339 605 340 608Q347 621 365 651T395 705T416 750Q418 757 426 769Q429 773 435 779Q454 795 480
798T533 784Q547 773 550 751T542 714Q532 701 523 693Q492 667 466 622L399 506Q385 480 401 453Q409 439 443 379Q447 373 461 350T483 313Q494 292 555 209Q567 192 595 170Q614 155 617 127Q619 109 619 99Q621 69 586 60Q532 48 500 94Q500 95 498 96T496
99Q486 122 473 143T438 195T409 236Q399 252 355 327L339 349Q336 353 330 352T321 347Q315 339 313 335L205 130Q199 119 191 99T179 72T156 28Q143 5 116 2T70 12Q63 15 60 22Q49 40 51 62Q51 69 55 75Q78 101 105 152Q118 177 146 229T195 323T233 402Q243
422 256 446Q268 467 257 486Q252 495 231 532T197 590Q192 598 176 624T148 668T122 700Q110 715 108 739Q106 768 132 778Q143 782 161 785Z" />
<glyph unicode="Y" glyph-name="Y" horiz-adv-x="530" d="M108 830Q130 831 149 820T175 791Q183 767 219 687Q238 647 274 589Q277 585 283 578T292 567Q295 563 302 560T311 559Q316 564 319 570Q327 592 330 603Q345 665 349 678Q353 693 356 710T361 749T365
782Q366 791 374 800T392 811Q408 814 447 818Q466 818 474 799Q483 774 476 750Q455 683 453 670Q451 661 446 643T439 615Q431 575 421 532T395 432T372 349Q365 323 349 264T324 173Q308 108 305 70Q303 42 301 28Q298 9 285 -11Q263 -40 230 -24Q205 -12 193
8Q180 30 185 48Q210 155 242 265Q255 314 274 380Q278 398 279 408Q282 423 272 433Q268 437 259 444T246 457Q229 474 224 485Q218 500 185 551Q148 613 137 637Q108 708 63 764Q61 767 58 773T52 782Q49 786 50 795T57 808Q71 820 79 824Q85 826 108 830Z" />
<glyph unicode="Z" glyph-name="Z" horiz-adv-x="611" d="M302 -78Q280 -79 234 -80T168 -83L126 -86Q98 -88 75 -66T50 -17Q50 1 58 17Q68 33 74 40Q76 43 83 50T92 62Q104 88 130 133T166 197L274 404Q355 564 385 654Q387 661 390 673T394 688Q395 694 390
701T379 709Q355 713 344 713Q327 714 296 715T239 718T190 722Q163 723 143 750Q131 765 126 788Q121 818 147 828Q162 835 174 834Q209 832 237 827Q323 810 447 813Q480 813 496 808Q530 799 540 767Q543 758 541 746Q540 738 534 726Q518 696 495 637T465 564Q460
553 438 499T402 415Q392 391 345 310Q304 241 254 120Q249 109 231 39Q228 32 237 28Q263 22 265 22Q366 7 446 27L474 33Q501 40 534 20T559 -41Q557 -49 553 -53Q521 -85 491 -80Q476 -78 414 -80Q340 -84 302 -78Z" />
<glyph unicode="[" glyph-name="bracketleft" horiz-adv-x="366" d="M59 99Q59 161 60 171Q62 207 57 242Q52 278 54 314Q61 443 52 579Q48 640 54 671Q62 705 51 752Q46 772 64 788Q91 815 117 816Q186 819 238 831Q259 837 288 826Q315 815 315 786Q314 770
304 757T279 742L219 736Q197 734 170 720Q156 712 153 696Q150 676 150 655Q152 541 152 482Q154 292 154 196Q154 143 167 95Q173 75 184 66T218 53Q270 48 279 46Q297 44 303 30Q321 -8 313 -50Q312 -62 300 -70T276 -75Q270 -73 257 -68T238 -60Q206 -48 178
-51Q138 -56 127 -55Q112 -55 98 -47Q56 -26 57 18Q60 96 59 99Z" />
<glyph unicode="\" glyph-name="backslash" horiz-adv-x="678" d="M107 755Q135 750 150 731Q160 706 176 680T208 632T243 586Q286 529 326 457Q348 412 368 388Q408 336 433 285Q490 174 595 50L613 26Q632 -6 625 -43Q621 -61 606 -71T572 -81Q540 -80 513
-46Q507 -39 498 -19Q476 37 436 86Q397 132 352 225Q325 280 298 311Q287 324 271 354L221 443Q199 480 165 528L58 677Q44 698 56 726Q58 731 61 734Q79 752 107 755Z" />
<glyph unicode="]" glyph-name="bracketright" horiz-adv-x="438" d="M368 387L362 296Q353 137 363 40Q365 20 363 -1Q362 -31 340 -53T293 -78Q292 -78 276 -79T252 -81Q175 -78 119 -84Q82 -90 59 -53Q40 -27 58 -6Q80 20 92 32Q98 39 109 40T129 37Q132 35
138 31T146 25Q171 5 214 15Q236 21 242 41Q258 98 255 152Q252 197 259 254Q261 269 262 298T264 336Q266 361 269 419T276 509Q285 587 280 673Q280 683 272 691T255 700Q241 702 235 702Q227 702 210 701T183 700Q135 696 112 746Q108 752 108 755Q105 771 115
784Q132 802 160 804Q183 805 211 802Q258 799 291 814Q313 824 341 812Q346 810 355 806T368 799Q379 795 385 775Q388 766 388 755Q385 724 382 663T376 571Q374 556 366 388Q366 387 368 387Z" />
<glyph unicode="_" glyph-name="underscore" horiz-adv-x="677" d="M346 -129H204Q202 -129 113 -135Q94 -136 73 -130Q64 -127 57 -118T51 -100Q52 -79 63 -61Q68 -51 77 -47Q104 -39 106 -39Q184 -39 332 -33T502 -26Q512 -26 532 -25T563 -23Q602 -22 619 -59Q624
-71 626 -88Q627 -99 619 -111T600 -128Q599 -128 596 -129T590 -131Q573 -131 532 -128T468 -126Q428 -128 346 -128V-129Z" />
<glyph unicode="a" glyph-name="a" horiz-adv-x="581" d="M531 9Q530 0 528 -11Q527 -24 515 -34T489 -44Q462 -42 442 -31Q424 -20 420 -4Q410 28 406 57Q399 96 375 165Q370 178 353 181Q332 185 290 179Q281 178 265 175T234 169T207 167Q197 167 193 154Q172
84 176 22Q177 2 164 -18Q153 -32 135 -37T101 -35Q73 -20 59 1Q48 16 52 28Q56 41 59 55T64 89T68 117Q72 144 92 220Q133 375 149 445Q155 471 169 521T185 581Q189 592 190 601Q192 625 198 649T217 709T233 756Q240 781 267 789Q283 793 301 795Q324 797 341
784T362 748Q364 735 367 710T373 672Q394 542 423 431L446 329Q469 229 494 138Q498 123 508 94T522 51Q524 46 531 9ZM319 263Q322 263 326 264H330Q350 264 350 278Q350 280 349 287T347 296L302 488Q301 492 295 500Q293 502 289 502Q284 502 282 499Q273 475
273 473Q269 437 253 384Q243 354 234 309Q225 273 229 270T260 269Q273 268 292 266T319 263Z" />
<glyph unicode="b" glyph-name="b" horiz-adv-x="465" d="M68 402Q67 443 66 525T63 648Q63 705 52 752Q44 784 78 796Q107 805 119 805Q146 804 202 796Q210 795 222 789L310 745Q318 741 334 731Q354 720 366 695Q386 649 388 614Q391 552 356 518Q345 508 295
450Q293 447 293 440T298 430Q311 419 314 418Q324 414 333 407T354 391T372 378Q401 359 414 307Q416 298 412 287L384 200Q354 109 263 60Q237 47 173 21Q136 7 106 31Q82 52 76 60Q67 71 70 79Q74 96 74 114T74 156T72 191T71 222T69 254Q67 352 67 402H68ZM180
272Q181 253 183 220T187 172Q187 171 190 159Q191 153 199 150T213 151Q228 163 229 164Q262 196 279 255Q292 299 284 319T233 360Q229 362 214 367Q209 369 200 369Q194 370 187 365T180 354V272ZM175 607Q177 575 179 529Q179 522 186 519T200 518Q230 534
245 568Q253 584 260 614Q262 620 262 641Q261 663 239 674Q219 683 192 680Q188 679 183 675T177 668Q175 620 175 607Z" />
<glyph unicode="c" glyph-name="c" horiz-adv-x="403" d="M53 330Q46 383 56 435Q57 438 57 442Q57 448 57 481T61 520Q86 610 92 628Q97 642 109 668T123 698Q157 773 254 775Q268 775 282 772Q311 768 325 739Q332 727 325 712Q313 686 289 682Q285 682 278
681T268 680Q254 678 239 661Q221 638 215 619Q197 565 189 538Q175 494 177 448Q177 405 173 370Q167 316 180 230Q188 179 220 142Q232 130 243 126Q261 118 318 107Q343 101 351 73Q355 58 349 45T329 27Q311 21 302 21Q255 23 232 26Q145 38 104 115Q88 145
71 185Q54 221 55 260Q55 266 53 330Z" />
<glyph unicode="d" glyph-name="d" horiz-adv-x="513" d="M462 411Q458 335 457 319Q457 311 450 292Q422 220 413 201Q395 166 369 129Q344 94 314 65Q306 56 296 50T270 37T248 26Q190 -7 180 -12Q166 -21 148 -27Q115 -39 91 -12Q74 5 64 20Q42 47 55 72Q68
100 63 134Q59 178 68 239Q70 252 71 267T72 301T74 330Q75 357 75 405T77 493T83 569Q85 587 88 634T96 708Q99 728 95 743Q85 773 114 822Q118 830 136 839Q156 848 177 842Q199 836 223 825Q243 817 256 800Q262 793 293 756T340 697Q349 685 389 637Q419 599
425 593Q440 575 441 555Q450 489 462 423V410V411ZM187 337Q186 301 182 210Q179 178 185 147Q187 139 193 136T206 136Q265 174 283 224Q293 248 295 250Q318 280 330 333Q341 389 334 424Q332 433 332 466Q331 507 311 555Q289 608 225 683Q222 686 212 684Q206
683 204 674L189 499Q187 479 187 470V337Z" />
<glyph unicode="e" glyph-name="e" horiz-adv-x="354" d="M56 112Q54 139 52 189Q50 222 51 231Q54 261 59 407Q63 571 66 653L75 758Q76 762 78 769T81 778Q88 796 106 800Q114 803 120 803Q179 803 232 816Q243 818 260 815Q276 814 288 797Q297 780 297 763Q298
750 288 738T264 724Q258 724 246 724T229 723Q206 721 201 719Q176 712 173 691Q163 635 162 607Q161 585 161 474Q161 467 166 461T177 454H205L254 451Q270 450 286 437Q302 426 303 406T286 372Q265 358 247 357Q201 353 172 340Q170 339 167 335T163 330Q161
326 161 323Q153 215 156 162Q160 128 167 107Q173 92 188 89Q193 88 202 88T216 87Q222 86 233 86T251 85Q265 84 276 74T289 49Q291 33 283 18T259 -1Q235 -8 218 -9Q204 -11 176 -14T134 -19Q103 -24 79 -4T52 49Q52 70 54 112H56Z" />
<glyph unicode="f" glyph-name="f" horiz-adv-x="445" d="M50 90Q54 228 59 253Q60 258 60 281Q58 361 63 387V394Q59 431 60 450T64 506T69 562Q70 572 73 593T76 625Q77 638 79 662T82 707T82 745T96 782T133 805Q158 810 167 808Q190 805 259 805Q316 805 370
789Q391 783 394 758Q396 747 390 735T372 718Q339 703 311 702H254H233Q208 702 203 679Q195 637 192 616Q186 562 179 533Q165 469 175 436Q174 426 173 408T171 380Q171 377 175 371T183 364Q185 364 190 362T197 360Q204 359 220 357T246 353Q271 351 306 334Q341
316 333 277Q331 266 322 259T302 253L260 259Q232 263 204 259Q189 257 178 247T165 223Q149 87 160 13Q164 -17 142 -38Q121 -61 92 -52Q58 -40 52 -7Q50 0 50 14V90Z" />
<glyph unicode="g" glyph-name="g" horiz-adv-x="544" d="M164 295Q168 222 171 182Q174 151 198 95Q202 85 214 78T238 72Q260 73 277 86Q321 120 332 166Q335 176 348 235Q351 253 332 262Q328 264 320 267T307 273Q283 285 279 308T291 350Q304 363 315 363Q360
363 391 374Q417 383 460 376Q478 371 486 354Q499 325 490 299Q487 292 482 279T474 259Q466 238 466 233Q467 213 459 188T442 146Q413 71 412 67Q402 37 377 15L372 10Q339 -25 271 -34Q190 -46 128 8Q116 18 109 28Q66 105 59 181Q48 296 53 363Q46 434 75
537Q81 559 82 571Q91 637 136 715Q139 722 147 734T157 752Q186 800 254 814Q297 821 337 803Q364 792 387 779Q400 771 400 755Q401 735 390 715Q384 704 367 700Q339 697 318 706Q295 716 267 694Q258 688 252 679Q217 625 206 592Q168 481 162 358L165 295H164Z"
/>
<glyph unicode="h" glyph-name="h" horiz-adv-x="599" d="M410 210L417 339Q417 344 417 353T416 367Q415 375 408 382T393 392Q390 392 384 393T373 394Q309 391 205 372Q198 371 191 364T182 348Q180 334 180 327Q178 252 176 236Q172 157 178 124Q179 118 182
67Q182 55 174 33Q160 2 132 1H104Q90 2 78 13Q50 38 51 67Q53 168 57 201Q62 248 64 342Q69 494 69 525Q71 708 67 778Q65 808 92 816Q111 822 133 825Q152 827 169 813T188 780Q190 747 187 731Q181 693 180 622T178 534Q178 530 180 520Q181 509 188 501T206
492Q218 491 241 490T276 487Q340 481 393 508Q418 521 419 547Q421 609 421 639Q421 660 420 702T419 765Q419 774 421 786Q422 793 429 798Q449 816 477 816T525 798Q548 779 540 754Q530 724 530 663Q531 618 531 512T532 360Q533 328 527 262Q525 225 527 213Q528
209 533 161T547 88Q552 76 544 53Q540 36 530 30Q515 17 496 5Q482 -3 469 5Q457 11 439 23Q420 37 417 58Q412 110 412 121Q412 180 410 191Q410 191 410 210Z" />
<glyph unicode="i" glyph-name="i" horiz-adv-x="228" d="M50 88Q50 89 50 95T52 105Q66 170 62 302Q58 478 59 585Q59 615 57 670T54 747Q54 770 56 782Q59 809 85 817Q100 822 120 824T156 814T175 782Q180 757 175 740Q163 706 163 628Q161 430 166 310Q168
282 165 141Q165 92 169 78Q170 76 170 71Q168 34 140 19Q109 3 81 24Q50 46 50 88Z" />
<glyph unicode="j" glyph-name="j" horiz-adv-x="495" d="M313 614Q321 701 315 753Q312 775 325 788T360 804Q373 805 388 802Q415 797 431 774T443 725Q442 723 441 718T440 711Q418 611 424 543Q426 524 424 515Q419 499 417 469T411 425L405 362Q400 279 393
251Q386 228 392 188Q395 169 386 147Q362 88 359 82Q340 43 303 31Q279 24 258 13Q222 -5 175 10Q121 29 89 80Q54 136 53 185Q53 194 52 213T50 234Q50 245 60 256T80 269Q100 272 115 271Q139 270 153 244Q163 225 165 203Q166 173 195 133Q202 123 215 123T238
131T253 154Q263 200 269 223Q282 270 280 292Q278 298 280 306Q287 328 289 351T293 407T296 452V459Q306 491 308 546T313 614Z" />
<glyph unicode="k" glyph-name="k" horiz-adv-x="599" d="M54 258Q55 272 57 318Q64 410 62 431Q61 442 65 466Q77 552 73 691Q73 710 75 810Q75 826 79 838Q81 849 89 856Q133 891 178 848Q183 843 185 829Q185 797 182 787Q171 753 175 675Q176 661 183 599Q183
593 187 593Q197 593 200 596Q209 603 214 611Q235 645 295 718Q314 740 363 807Q376 824 401 839Q422 851 441 844Q445 842 455 840Q485 831 487 798Q491 760 469 740L434 705L416 684Q408 668 392 649T364 617Q357 610 352 600Q344 578 345 573Q354 458 382 395Q388
380 403 343T428 284Q481 168 535 79Q538 75 542 67Q555 44 545 20T508 -12Q498 -14 494 -13Q432 -5 416 49Q413 58 405 77T394 108Q389 125 387 128Q370 151 349 201T314 272L299 311Q297 316 291 332T282 357Q258 412 252 444Q250 453 242 448Q237 445 236 444Q229
434 223 419Q213 393 194 381Q171 366 170 341Q169 330 167 309T163 278Q162 269 162 250Q163 220 166 159T172 67Q174 42 163 19Q154 -5 131 -16Q117 -24 104 -17Q95 -13 79 -3Q55 15 52 44Q50 64 50 72Q51 84 52 107T55 143Q62 201 54 258Z" />
<glyph unicode="l" glyph-name="l" horiz-adv-x="370" d="M62 523L65 629Q65 652 66 699T69 770Q71 797 97 806Q117 813 132 809Q138 807 152 803Q169 798 179 782T187 748Q183 721 180 691T174 624T169 566Q167 519 167 510Q170 472 169 404T170 298Q166 271
166 229T166 158Q166 139 167 130Q169 118 178 109T201 99H264Q280 98 297 89Q320 78 320 56Q320 36 299 22Q298 22 296 20T293 18Q291 18 287 16T279 14Q257 10 212 -1T142 -17Q116 -22 89 -5Q60 13 54 45Q50 66 51 87Q52 108 55 174T61 277Q67 347 63 488V523H62Z"
/>
<glyph unicode="m" glyph-name="m" horiz-adv-x="980" d="M361 811Q362 803 362 788T363 762T368 739Q372 721 377 679T389 615Q398 550 422 431T451 283Q453 272 457 263Q457 261 468 256Q471 256 473 260Q489 294 496 311Q501 323 511 349T527 389Q546 429 566
495Q571 513 582 545T597 588Q620 654 631 710Q634 723 641 746T650 778Q653 793 671 813Q691 834 719 837T774 824Q782 818 783 814Q796 774 796 767Q801 725 826 593Q829 579 839 510Q847 452 865 386Q869 370 876 338T887 290Q900 229 918 197Q931 172 929 142Q929
136 929 117T927 86Q925 63 902 55Q874 45 856 63Q822 95 810 125Q803 144 803 152Q802 186 783 262Q756 365 736 489Q725 547 717 564Q714 569 712 569Q711 568 708 566T702 561T698 555Q585 255 554 165Q552 162 550 152Q527 103 512 31Q510 22 504 4Q497 -11
481 -21Q454 -38 428 -21L395 6Q379 19 376 42Q352 224 314 432Q312 442 309 464T302 502T291 534Q291 537 287 537T280 534T276 529Q270 518 270 516L226 353Q215 314 206 257Q204 236 187 153Q176 96 179 62Q183 28 150 2Q124 -19 97 -2Q90 2 78 11T62 22Q46
34 52 53Q67 95 81 183Q101 295 146 457Q192 617 209 688Q215 713 224 761T235 819Q237 849 242 862Q252 889 259 894Q269 904 280 912T304 922Q324 924 340 912T360 880Q360 874 360 863T362 845V816V814Q362 811 361 811Z" />
<glyph unicode="n" glyph-name="n" horiz-adv-x="690" d="M59 237Q59 264 58 282Q56 328 60 451Q61 476 66 500Q73 546 68 578Q64 600 64 662V690Q59 720 64 760T74 830Q75 843 87 853T113 864Q138 865 162 858Q181 852 188 836Q193 826 210 784Q213 779 217 768T223
751Q228 742 242 717T263 677Q266 671 277 643T297 600Q312 577 326 543Q330 534 365 469Q378 447 424 349L463 274Q465 267 475 269Q480 269 482 278Q491 325 491 341Q491 360 493 397T496 453Q496 520 505 587Q508 614 508 643Q508 666 508 713T509 784L512 826Q513
847 532 862T569 879Q570 879 572 879T576 880Q611 879 625 864T639 815L636 766Q627 733 623 672T615 591Q612 575 612 493Q612 470 611 465Q605 430 600 360T589 255Q587 241 586 225T585 188T583 157Q582 145 582 122T582 86Q581 58 588 31Q594 3 575 -18T527
-36Q523 -36 513 -34Q461 -26 451 24Q448 45 431 76Q426 86 412 114T390 158Q360 216 306 336Q273 411 241 469Q237 478 228 497T212 529T195 555Q193 560 189 558Q181 556 178 552Q175 549 173 539Q158 454 162 371Q162 369 168 301Q170 260 166 231Q163 212 162
189T161 146T161 104Q159 47 173 14Q179 0 174 -20Q170 -45 150 -57T105 -62Q93 -58 79 -51Q45 -33 52 1Q56 27 56 78Q55 121 59 237Z" />
<glyph unicode="o" glyph-name="o" horiz-adv-x="671" d="M53 287Q46 345 60 420L72 489Q82 551 98 576Q109 612 139 680Q154 717 190 736Q227 756 309 778Q313 779 323 779Q441 760 506 730Q518 724 533 709Q554 687 594 641Q609 624 609 602Q610 596 609 584T608
567Q606 524 613 497Q627 439 613 372Q604 330 605 302Q605 254 591 206Q582 173 573 153Q565 133 551 93Q541 64 519 39Q452 -31 386 -63Q347 -82 300 -78T220 -48Q173 -12 125 36Q91 71 68 147Q57 182 56 217Q56 227 56 238T54 264T53 287ZM501 443Q503 503 502
520Q497 626 414 650Q408 652 395 658T375 667Q335 680 307 664Q291 654 281 654Q257 655 244 643T218 607Q193 554 189 528L177 480Q150 369 155 292Q158 245 190 135Q197 112 218 94Q247 68 272 50Q282 43 310 32Q324 26 337 34Q405 64 442 134Q451 148 457 166Q475
224 481 254Q482 258 486 278T491 304T494 327T498 354T500 377T501 404T500 429Q499 433 501 443Z" />
<glyph unicode="p" glyph-name="p" horiz-adv-x="448" d="M66 109Q66 114 64 154T60 217Q57 259 57 301Q57 348 55 372Q48 442 56 469Q57 472 57 476Q53 498 53 523T57 569T63 616Q67 652 60 686Q54 718 52 735Q49 752 57 769Q70 794 84 802T124 808Q125 808 127
808T131 807Q145 802 190 791T259 769Q318 742 343 708Q347 704 357 693T371 676Q403 637 397 591Q393 563 393 549Q396 508 362 466Q330 423 299 400Q279 386 256 375L175 334Q168 330 168 322Q164 300 165 287Q167 247 167 147T170 6Q170 -8 167 -22Q164 -44
144 -56Q122 -72 98 -58Q66 -41 65 -8Q65 0 63 26T61 71T66 109ZM177 551Q181 524 175 495Q175 490 174 488Q174 478 181 472T197 467Q245 477 274 524Q276 528 276 531Q283 585 283 600Q283 631 257 648Q234 663 212 667Q200 670 191 665T181 648Q178 606 177
599Q172 572 177 551Z" />
<glyph unicode="q" glyph-name="q" horiz-adv-x="675" d="M50 336Q55 427 59 459Q67 530 82 619Q91 672 122 738Q139 774 179 787Q258 813 339 801Q344 800 365 791Q371 788 376 783Q411 749 467 731Q480 728 493 720Q527 702 544 673Q568 634 599 600Q618 579
615 555Q612 522 622 485Q630 447 615 417Q610 406 607 394T601 366T596 342Q588 310 587 294Q582 241 556 202Q544 185 556 169Q567 151 593 117Q606 99 608 94Q621 67 612 55Q605 44 589 41T561 45L519 69Q511 74 499 68Q493 64 483 54Q441 10 421 -13Q392 -45
338 -64Q324 -69 310 -70Q248 -76 189 -43Q188 -42 186 -41T183 -39Q117 -9 85 83Q63 144 57 213Q55 234 53 275T50 336ZM164 288L170 211Q173 172 188 122Q205 60 264 46Q299 38 324 56Q378 95 406 142Q410 149 411 155Q415 164 407 175L387 195Q382 200 361 221T329
255Q320 264 324 282Q333 321 376 318Q390 316 396 313Q403 311 416 305T435 297Q437 296 441 294T447 290Q457 285 464 298Q470 309 474 322T481 353T487 379Q504 439 496 518Q494 537 488 545Q478 558 465 583T446 618Q440 628 425 637Q420 640 410 645T394 653Q356
674 328 676Q313 677 293 697Q282 708 260 704Q226 701 212 668Q203 648 197 629Q170 536 166 449Q164 402 160 379Q156 355 160 330Q162 316 164 288Z" />
<glyph unicode="r" glyph-name="r" horiz-adv-x="565" d="M61 43Q62 85 59 165Q59 216 58 222Q54 276 55 292Q57 317 55 362T52 426Q50 437 50 461Q50 521 51 558Q52 568 52 592T52 618V714Q51 723 53 742Q55 757 67 765Q94 777 96 778Q119 787 144 779Q148 778
163 774T184 769Q234 754 252 751Q289 744 341 692Q352 681 352 667Q357 608 351 584Q348 557 343 532T326 480Q319 444 290 430Q287 428 281 423T272 417Q253 407 249 401T251 390T266 375Q329 305 379 231Q383 225 432 165Q446 149 452 146Q466 140 478 127T494
106T510 78Q514 70 514 50Q515 33 503 23T473 13Q450 14 399 33Q391 37 382 46Q372 56 369 62Q354 92 317 140T271 200Q266 206 253 223T233 250Q212 284 174 310Q172 312 161 309Q160 309 160 301T160 291Q158 286 160 274T162 254Q166 226 166 177Q165 157 168
127T171 80Q174 26 177 19Q186 -10 174 -25Q171 -28 166 -29T158 -33T142 -36H129Q110 -40 99 -39T73 -26Q60 -13 62 0Q62 2 61 21T61 43ZM147 522V509Q146 496 157 489T181 486Q213 496 220 523Q222 530 228 546T237 575T241 604Q241 606 241 608T242 611Q242
631 228 642Q223 645 213 651T198 661Q196 662 192 663T185 665Q156 672 153 665Q150 659 149 653T148 633T147 610Q152 582 149 566Q147 558 147 544T147 522Z" />
<glyph unicode="s" glyph-name="s" horiz-adv-x="437" d="M106 224Q130 219 133 218Q156 210 163 190Q177 152 181 144Q189 126 209 113Q216 109 226 111T241 119Q252 134 263 178Q272 206 262 233Q244 283 243 301Q243 305 232 326Q219 354 191 408Q180 432 162
456Q132 498 124 560Q119 591 132 615L156 666Q166 693 197 701Q241 714 308 718Q316 718 328 712Q350 701 359 672T358 620Q351 604 337 603Q319 600 281 596Q257 594 257 568Q257 536 270 514Q288 482 366 319Q375 297 380 268T387 216Q387 206 385 202Q376 180
374 133Q374 121 370 113Q355 82 340 57Q328 35 303 26Q291 22 274 16T253 7T237 4T222 3T205 8T183 17T151 33Q93 61 72 118Q69 127 62 142T53 163Q41 191 67 214Q79 226 106 224Z" />
<glyph unicode="t" glyph-name="t" horiz-adv-x="503" d="M208 278Q208 285 210 303Q223 503 224 528Q224 547 217 647Q216 655 209 661T192 668Q166 669 129 664Q106 662 74 675Q58 683 53 701T57 736Q63 744 67 746Q92 760 121 761H142Q174 763 191 763Q205
763 234 772T280 780Q327 773 364 780Q390 784 425 767Q433 763 446 748Q455 737 452 722Q444 690 417 680Q387 667 363 665Q340 662 333 655T328 626Q332 568 324 429Q322 395 317 218L314 84Q314 18 320 -13Q324 -38 301 -56Q283 -72 271 -71Q236 -71 212 -51Q209
-49 204 -40Q202 -32 202 -26Q202 32 204 57Q215 214 208 278Z" />
<glyph unicode="u" glyph-name="u" horiz-adv-x="566" d="M70 279Q71 290 72 310T75 346T76 377Q78 409 75 433Q73 452 73 490Q73 513 68 623Q68 629 67 641T66 658Q66 696 55 728Q54 732 51 755Q50 768 62 780T87 792Q92 791 101 790T115 788Q136 786 159 755Q164
747 162 735Q159 711 163 650Q165 622 170 602Q180 570 175 532Q170 492 179 455Q181 448 181 420L178 371Q175 344 175 343Q176 322 177 273T180 188T190 119Q195 92 210 74Q212 72 219 65T229 53Q249 25 295 18Q320 14 339 34Q366 64 372 104Q390 228 391 293Q391
294 394 504Q394 528 396 539Q408 596 397 637Q400 653 393 714Q390 738 410 759Q416 765 421 767Q440 778 462 774T497 754Q523 723 512 688Q506 672 506 668Q504 655 506 648Q518 615 510 586Q507 576 507 544L504 417Q504 394 503 389Q490 333 495 249Q497 216
493 193Q490 166 491 144Q491 99 475 69Q474 67 460 22Q441 -36 399 -60Q394 -63 386 -68T375 -76Q352 -89 328 -88Q296 -86 279 -86Q242 -86 207 -61Q177 -40 118 19Q101 36 96 63Q89 101 82 134T71 206T70 279Z" />
<glyph unicode="v" glyph-name="v" horiz-adv-x="619" d="M271 -5Q246 -6 226 11T200 55L197 97Q195 129 190 145Q153 252 135 349Q129 381 110 459Q106 476 92 560T71 671Q58 731 55 739Q54 742 51 760Q43 807 90 816Q115 820 137 806T165 767Q168 760 168 753Q173
718 181 648Q191 583 207 505Q225 403 237 353L270 239Q273 230 282 232Q289 234 292 240L304 273L348 429Q358 466 392 584Q405 635 409 652Q419 707 443 774Q449 788 463 793Q491 802 511 803Q539 805 552 782Q561 768 567 750Q570 742 566 730Q565 720 558 710Q550
697 544 674T532 637Q528 627 522 610T513 589Q501 568 492 545T478 505T466 460T454 414Q446 373 435 332T403 231T377 151Q366 115 330 34Q311 -8 271 -5Z" />
<glyph unicode="w" glyph-name="w" horiz-adv-x="984" d="M167 699Q167 679 170 652Q189 494 195 456Q214 329 214 274Q214 246 224 234Q226 231 230 231T236 234Q250 261 251 265Q254 275 264 310T281 366Q305 443 332 497Q355 541 368 588Q377 619 387 641Q413
697 413 735Q413 753 432 772Q449 792 474 795Q503 798 523 791Q535 787 542 772Q545 760 545 759Q553 675 595 532Q634 401 707 236L710 230Q718 226 723 225Q732 223 732 232L741 295L762 477Q771 532 775 553Q791 625 793 650Q794 680 810 710Q832 748 872 751H879Q927
754 932 708Q937 677 922 654L901 618Q874 568 881 523Q885 491 872 461Q859 429 857 386Q853 320 849 287Q842 237 833 197Q809 87 802 31Q798 -3 768 -28Q759 -36 746 -37T722 -31Q701 -17 689 -5Q677 9 675 19Q659 77 634 124Q633 127 632 130T629 136T626 143Q581
271 528 399Q521 414 516 432T504 472T494 506Q485 537 478 545Q472 551 467 545Q457 530 456 527Q433 454 390 357Q368 308 358 257Q353 236 318 137Q317 135 315 131T312 124Q282 60 275 4Q272 -32 251 -54Q242 -65 229 -71Q209 -82 189 -71Q164 -58 149 -32Q144
-24 142 -12Q141 -3 143 16Q143 85 129 127Q117 165 117 224Q114 300 103 386L68 658Q62 710 52 741Q50 749 52 768Q54 786 67 790Q72 792 107 803Q129 809 146 793T166 757Q167 749 167 699Z" />
<glyph unicode="x" glyph-name="x" horiz-adv-x="693" d="M51 -6Q50 14 62 28Q89 61 129 135L165 204L261 392Q266 403 271 411Q288 442 272 472Q248 522 233 547Q221 569 203 598T167 646Q161 653 153 671Q145 693 153 712Q163 733 185 736Q208 740 240 729Q257
723 267 707Q271 699 279 681Q306 621 336 576Q340 571 347 571T359 578Q395 628 421 696Q436 736 455 773Q464 792 484 845Q492 867 520 877T573 874Q588 865 594 855Q611 832 600 809L599 806Q598 803 597 802Q585 786 576 768T554 721T537 683Q505 613 451 522Q429
486 413 454Q405 442 411 427Q419 405 424 395Q430 382 463 312T516 204Q524 188 581 87Q612 33 633 12Q635 11 637 6Q641 -5 642 -14Q644 -38 630 -61Q619 -81 597 -85T558 -77Q537 -62 530 -46Q515 -9 456 98Q444 119 425 160T400 212Q365 285 357 300Q355 303
346 308Q339 314 330 299Q320 283 316 275L265 174L201 49L160 -33Q151 -51 131 -60T88 -66Q79 -65 70 -56Q51 -37 51 -6Z" />
<glyph unicode="y" glyph-name="y" horiz-adv-x="553" d="M147 808Q151 807 158 806T170 804T181 802Q207 795 220 774Q221 771 224 765T230 756Q237 739 247 724T274 686T296 657Q298 654 305 654T315 658Q325 688 347 741T377 815Q382 831 384 835Q395 858 419
867Q429 872 439 869Q473 862 497 832Q503 825 503 812Q503 791 492 772Q489 767 473 743Q456 718 450 692Q441 660 421 620Q393 558 390 520Q389 495 370 468Q342 430 320 384Q291 323 277 280Q273 268 196 63Q188 41 183 31Q166 -7 165 -30Q165 -50 147 -75Q134
-95 111 -88Q81 -77 67 -65Q56 -56 52 -41T53 -14Q85 59 137 209Q168 296 226 423Q247 476 251 489Q256 513 247 530Q226 569 194 621T131 705Q112 726 101 753Q95 767 103 783T126 804Q129 805 136 806T147 808Z" />
<glyph unicode="z" glyph-name="z" horiz-adv-x="692" d="M492 -13Q488 -13 468 -14T435 -16Q412 -19 371 -23T297 -31T233 -40Q201 -46 184 -47Q165 -48 142 -45Q126 -44 114 -27Q98 -8 93 17Q90 33 95 45L294 449Q349 557 382 655Q384 660 381 665T374 672L347
678Q309 682 291 685Q209 695 151 688Q129 686 108 688Q74 689 60 723Q58 727 51 757V771Q52 781 60 790T78 799Q125 801 148 799Q178 796 212 793T287 785T351 778Q413 772 449 781Q475 788 510 771Q530 761 537 740T534 699Q532 695 530 693Q506 665 487 621T455
543Q441 509 424 472T384 389T350 320L279 175Q267 149 260 137Q249 116 242 84Q241 80 246 75T255 70Q264 70 293 70T339 72Q346 73 458 84Q490 88 507 93Q544 103 597 94Q631 88 641 53Q643 41 640 33Q615 -18 562 -17Q548 -17 492 -13Z" />
<glyph unicode="{" glyph-name="braceleft" horiz-adv-x="423" d="M279 861Q298 859 301 858Q310 857 317 846Q321 838 311 829Q281 806 272 797Q244 773 242 734Q239 667 240 612Q242 561 231 510Q212 420 195 383Q189 371 198 354Q201 347 208 336T218 319Q235
284 237 261Q239 245 243 211T251 160Q259 91 261 79Q270 27 309 -9Q315 -15 328 -25T351 -45T369 -64Q373 -68 373 -78T368 -92Q351 -111 332 -108Q279 -98 239 -70Q226 -62 217 -49Q201 -26 160 59Q154 70 154 89Q153 98 153 108T152 130T151 150Q149 209 135
261Q129 281 110 292Q107 294 94 300T74 312Q66 318 54 334Q50 339 50 349T54 363Q62 374 78 393T99 419Q123 448 130 482Q133 511 140 532Q148 563 148 603Q147 653 150 715Q150 736 156 776Q159 800 179 820Q203 844 231 851Q235 852 279 861Z" />
<glyph unicode="}" glyph-name="braceright" horiz-adv-x="384" d="M269 710Q268 704 264 673T257 622Q255 608 250 581T243 541Q240 516 253 492Q269 459 288 442L311 422Q350 391 320 340Q314 331 288 300Q271 278 268 243Q262 167 275 122Q290 68 288 -30Q285
-94 225 -129Q210 -137 178 -149Q165 -153 158 -151Q122 -144 103 -127Q89 -116 91 -95T110 -66Q111 -66 114 -64T119 -62Q139 -58 149 -54Q179 -42 184 -8Q191 36 182 83L170 143Q165 171 165 194Q161 301 195 363Q203 376 194 392L157 464Q149 482 142 502Q135
525 138 543L156 633Q171 679 166 744Q163 792 122 806Q96 816 84 821Q67 828 55 848Q45 864 53 882T80 903Q101 907 110 905Q158 897 195 872Q241 842 257 793Q268 758 269 710Z" />
</font>
</defs>
</svg>
