<?xml version="1.0" standalone="no"?>
<!DOCTYPE svg PUBLIC "-//W3C//DTD SVG 1.1//EN" "http://www.w3.org/Graphics/SVG/1.1/DTD/svg11.dtd" >
<svg xmlns="http://www.w3.org/2000/svg">
<metadata>
This is a custom SVG webfont generated by Font Squirrel.
Copyright   : Copyright c 2009 by The Entente AS  EH All rights reserved
Designer    : The Entente AS  EH
Foundry     : The Entente AS  EH
Foundry URL : httpwwwcolophonfoundryorg
</metadata>
<defs>
<font id="ReaderMedium" horiz-adv-x="1208" >
<font-face units-per-em="2048" ascent="1536" descent="-512" />
<missing-glyph horiz-adv-x="583" />
<glyph unicode=" "  horiz-adv-x="583" />
<glyph unicode="&#x09;" horiz-adv-x="583" />
<glyph unicode="&#xa0;" horiz-adv-x="583" />
<glyph unicode="!" horiz-adv-x="411" d="M82 0v256h248v-256h-248zM86 1055v399h240v-399l-39 -629h-164z" />
<glyph unicode="&#x22;" horiz-adv-x="813" d="M106 1227v227h220v-227l-29 -256h-164zM487 1227v227h220v-227l-29 -256h-164z" />
<glyph unicode="#" horiz-adv-x="1228" d="M-57 385v215h256l57 281h-221v215h266l76 358h229l-76 -358h289l76 358h231l-75 -358h229v-215h-274l-58 -281h240v-215h-285l-80 -385h-229l80 385h-291l-78 -385h-231l80 385h-211zM428 600h289l59 281h-291z" />
<glyph unicode="$" d="M-16 287l200 114q111 -154 320 -194v436q-141 14 -239.5 48t-167 120t-68.5 221q0 201 132 309.5t343 126.5v158h223v-166q283 -37 397 -229l-202 -113q-59 84 -195 123v-407q465 -57 465 -402q0 -209 -126 -317.5t-339 -128.5v-154h-223v158q-364 51 -520 297zM242 1032 q0 -150 262 -180v403q-262 -28 -262 -223zM727 199q106 14 178 70.5t72 162.5q0 94 -67.5 137t-182.5 58v-428z" />
<glyph unicode="%" horiz-adv-x="1374" d="M66 1124q0 348 292 349q88 0 148.5 -29t90.5 -83t41 -109.5t11 -127.5q0 -78 -11 -136t-41 -111.5t-89 -82t-150 -28.5q-168 0 -230 97t-62 261zM111 0l950 1454h199l-953 -1454h-196zM221 1124.5q0 -51.5 3 -83t15.5 -68.5t42 -55.5t77 -18.5t76 17.5t40.5 55.5 t15.5 68.5t3.5 83.5q0 41 -1 65.5t-8.5 57.5t-21.5 50.5t-41 30.5t-64 13q-47 0 -76.5 -17t-42 -52t-15.5 -65.5t-3 -82zM707 340q0 348 292.5 348t292.5 -348q0 -78 -11 -136.5t-41 -111.5t-90 -81.5t-151 -28.5q-168 0 -230 97t-62 261zM862 340q0 -51 3 -83t15.5 -68.5 t42 -55t77 -18.5t76 18.5t40.5 54t16.5 68.5t4.5 84t-3.5 82t-15.5 65.5t-41.5 52t-77 17.5t-77 -17.5t-42 -52t-15.5 -65.5t-3 -82z" />
<glyph unicode="&#x26;" horiz-adv-x="1351" d="M33 418q0 125 75.5 229.5t213.5 169.5q-47 53 -72 87t-52.5 94.5t-27.5 117.5q0 160 104.5 258.5t292.5 98.5q158 0 260.5 -98.5t102.5 -258.5q0 -223 -260 -373l260 -278q68 76 135 197l152 -162q-53 -100 -140 -197l285 -303h-303l-117 137q-63 -63 -182 -109t-230 -46 q-84 0 -165.5 23.5t-158.5 71.5t-125 136t-48 205zM256 416q0 -57 35 -113q72 -117 241 -117q168 0 263 111l-324 358q-92 -33 -153.5 -97t-61.5 -142zM395 1116q0 -94 133 -223q172 98 172 223q0 66 -33.5 105t-125.5 39q-68 0 -107 -42.5t-39 -101.5z" />
<glyph unicode="'" horiz-adv-x="432" d="M106 1227v227h220v-227l-29 -256h-164z" />
<glyph unicode="(" horiz-adv-x="804" d="M180 557q0 369 139 657q80 170 261 363l159 -141q-156 -168 -227 -314q-104 -221 -104 -565q0 -367 104 -582q82 -166 227 -319l-159 -141q-176 188 -261 364q-139 289 -139 678z" />
<glyph unicode=")" horiz-adv-x="804" d="M66 -344q145 154 227 319q104 215 104 582q0 344 -104 565q-72 145 -227 314l159 141q180 -193 260 -363q139 -289 140 -657q0 -389 -140 -678q-84 -176 -260 -364z" />
<glyph unicode="*" horiz-adv-x="983" d="M29 1055l65 209l299 -105l-6 314h213l-12 -314l301 105l65 -209l-301 -86l187 -252l-172 -127l-176 260l-183 -260l-174 127l193 252z" />
<glyph unicode="+" horiz-adv-x="1228" d="M61 504v192h441v463h227v-463h438v-192h-438v-477h-227v477h-441z" />
<glyph unicode="," horiz-adv-x="421" d="M100 0v256h246v-211q0 -143 -22.5 -195.5t-133.5 -136.5l-73 90q47 27 71.5 64t27.5 60.5t3 58.5v14h-119z" />
<glyph unicode="-" horiz-adv-x="888" d="M94 500v202h701v-202h-701z" />
<glyph unicode="." horiz-adv-x="450" d="M102 0v256h246v-256h-246z" />
<glyph unicode="/" horiz-adv-x="1036" d="M-41 0l797 1473h264l-799 -1473h-262z" />
<glyph unicode="0" d="M94 737q0 119 10.5 215.5t43 197.5t87 168.5t148.5 111t221 43.5t221.5 -43.5t148.5 -111t87 -168.5t43 -197.5t10 -217.5q0 -129 -10 -229t-43 -203.5t-87 -170t-148.5 -108.5t-221.5 -42t-221 42t-148.5 109.5t-87 170t-43 202.5t-10.5 231zM322 715q0 -63 1 -102.5 t6 -100.5t16 -99t31.5 -84t49.5 -72t75 -44t103.5 -18t103.5 18t74.5 44t49 72t31.5 84t16.5 99t6.5 100t1 103v39q0 74 -2 117.5t-9.5 111.5t-26 110t-48 84t-79.5 62.5t-117.5 20.5t-118 -20.5t-80 -62.5t-48 -84t-25.5 -110t-9 -112t-2 -117v-39z" />
<glyph unicode="1" d="M254 991v215q16 0 38.5 1t77 14.5t95.5 37t73.5 74.5t32.5 121h228v-1454h-228v991h-317z" />
<glyph unicode="2" d="M94 0v213q0 72 18.5 132.5t40 99t79 87t90 72t123 79.5t133.5 85q119 76 161.5 131t42.5 139q0 96 -59 156.5t-154 60.5q-172 0 -315 -147l-152 160q100 100 209 152.5t258 52.5q201 0 321 -114t120 -321q0 -160 -71 -251t-261 -216q-16 -10 -77.5 -49t-85 -55t-71 -53 t-67 -63.5t-37.5 -63.5t-18 -74h722v-213h-950z" />
<glyph unicode="3" d="M82 209l166 151q127 -166 336 -165q139 0 217 56t78 193q0 242 -357 242v213q53 0 91 2t84 12.5t75 29t49.5 52t20.5 82.5q0 186 -258 187q-176 0 -316 -160l-151 145q80 111 204.5 167.5t262.5 56.5q479 0 479 -396q0 -92 -52.5 -176t-154.5 -106q129 -41 190.5 -138.5 t61.5 -212.5q0 -229 -143.5 -345.5t-380.5 -116.5q-143 0 -284.5 59t-217.5 168z" />
<glyph unicode="4" d="M51 276v213l545 965h266l-545 -965h363v424h227v-424h250v-213h-250v-276h-227v276h-629z" />
<glyph unicode="5" d="M80 215l168 150q49 -66 139 -110t176 -44q129 2 214 86t85 217q0 129 -69.5 205t-202.5 76q-86 0 -153.5 -43t-100.5 -127h-219l63 829h824v-211h-621l-29 -366q43 61 119 95t152 34q211 0 336.5 -127t125.5 -365q0 -219 -144 -366.5t-380 -147.5q-295 0 -483 215z" />
<glyph unicode="6" d="M94 657q0 391 143.5 603.5t434.5 212.5q231 0 389 -138l-115 -157q-84 61 -144.5 76.5t-146.5 15.5q-45 0 -89 -15.5t-99 -55.5t-96 -134t-56 -231q53 94 150.5 130.5t189.5 36.5q221 0 359.5 -137t138.5 -354q0 -246 -141.5 -387t-384.5 -141q-533 -1 -533 675zM322 494 q0 -145 82.5 -222t222 -77t219.5 78.5t80 220.5q0 139 -80 220t-219 81q-135 0 -220 -82t-85 -219z" />
<glyph unicode="7" d="M143 1241v213h985v-213q-426 -485 -473 -1241h-227q29 692 459 1241h-744z" />
<glyph unicode="8" d="M115 426q0 119 62.5 218t160.5 126q-94 37 -143.5 117t-49.5 174q0 193 134.5 302.5t324.5 109.5q205 0 331 -113t126 -299q0 -90 -52.5 -171t-138.5 -120q109 -27 166.5 -123t57.5 -221q0 -207 -139.5 -325.5t-350.5 -118.5q-219 0 -354 117.5t-135 326.5zM342 426 q0 -121 73.5 -176t188.5 -55q113 0 186.5 55t75.5 176q-4 117 -76.5 172t-185 55t-187.5 -56t-75 -171zM369 1061q0 -98 66.5 -146.5t168.5 -48.5q100 0 169 51.5t69 143.5q0 98 -67.5 148.5t-170 50.5t-169 -50.5t-66.5 -148.5z" />
<glyph unicode="9" d="M55 944q0 246 141.5 387.5t385.5 141.5q532 0 532 -676q0 -391 -143.5 -603t-433.5 -212q-231 0 -390 137l115 157q84 -61 144.5 -76.5t146.5 -15.5q45 0 89 15.5t99.5 55.5t96.5 134t55 232q-53 -94 -150.5 -131t-189.5 -37q-221 0 -359.5 137t-138.5 354zM283 961 q0 -139 79.5 -220.5t219.5 -81.5q135 0 220 82t85 220q0 145 -83 222t-222.5 77t-219 -79t-79.5 -220z" />
<glyph unicode=":" horiz-adv-x="450" d="M102 0v256h246v-256h-246zM102 838v258h246v-258h-246z" />
<glyph unicode=";" horiz-adv-x="450" d="M102 0v256h246v-211q0 -143 -22.5 -195.5t-132.5 -136.5l-74 90q47 27 71.5 64t27.5 60.5t3 58.5v14h-119zM102 838v258h246v-258h-246z" />
<glyph unicode="&#x3c;" horiz-adv-x="1228" d="M197 598v100l692 600l141 -163l-565 -486l565 -485l-141 -164z" />
<glyph unicode="=" horiz-adv-x="1228" d="M145 178v242h938v-242h-938zM145 659v242h938v-242h-938z" />
<glyph unicode="&#x3e;" horiz-adv-x="1030" d="M102 164l566 485l-566 486l142 163l692 -600v-100l-692 -598z" />
<glyph unicode="?" horiz-adv-x="1169" d="M72 1214q84 115 216 187t279 72q190 0 325.5 -99.5t135.5 -288.5q0 -121 -51 -196.5t-189 -167.5q-88 -59 -119.5 -112.5t-31.5 -135.5v-65h-217v84q0 129 51 217t178 176q51 37 78 57.5t55.5 62.5t28.5 85q0 86 -71.5 138t-172.5 52q-96 0 -189 -57.5t-153 -145.5z M406 0v256h245v-256h-245z" />
<glyph unicode="@" horiz-adv-x="1572" d="M96 551q0 311 193.5 528t511.5 217q328 0 498.5 -175t170.5 -517q0 -223 -81.5 -332.5t-225.5 -109.5q-61 0 -102 17.5t-51.5 31.5t-10.5 22q-94 -86 -243 -86q-129 0 -215 70t-86 191q0 82 30.5 135t94 78.5t123 35t151.5 13.5q111 2 111 73q0 41 -37 66t-105 25 q-141 0 -209 -95l-110 107q111 141 319 141q145 0 233.5 -78t88.5 -219v-289q0 -25 2 -36t13 -22t34 -11q45 0 58.5 66.5t13.5 205.5q0 244 -102.5 362.5t-362.5 118.5q-225 0 -362.5 -151.5t-137.5 -382.5q0 -236 131 -394.5t369 -158.5q145 0 208.5 12.5t159.5 59.5 l156 -144q-106 -70 -225 -95.5t-303 -25.5q-319 0 -510 207t-191 539zM641 408q0 -96 131 -97q78 0 124 14.5t64.5 50.5t22.5 64.5t4 89.5v45q-41 -51 -176 -51q-59 0 -97 -10t-52.5 -31.5t-17.5 -35.5t-3 -39z" />
<glyph unicode="A" horiz-adv-x="1386" d="M6 0l567 1454h240l567 -1454h-245l-138 362h-608l-139 -362h-244zM471 578h444l-221 565z" />
<glyph unicode="B" horiz-adv-x="1376" d="M143 0v1454h670q78 0 149.5 -21.5t136 -66.5t103.5 -126t39 -189q0 -145 -149 -252q98 -57 156.5 -153.5t58.5 -215.5q0 -180 -131.5 -305t-315.5 -125h-717zM379 213h479q209 4 209 217q0 217 -195 217h-493v-434zM379 860h436q31 0 59.5 7t60.5 25.5t51.5 58.5 t19.5 99.5t-19.5 99.5t-51.5 58.5t-61.5 25.5t-60.5 7h-434v-381z" />
<glyph unicode="C" horiz-adv-x="1441" d="M143 727q0 315 192.5 530.5t500.5 215.5q193 0 334 -89.5t221 -244.5l-197 -115q-104 233 -358 233q-209 0 -332 -151.5t-123 -378.5t123 -378.5t332 -153.5q254 2 358 233l197 -115q-80 -156 -221.5 -243.5t-333.5 -87.5q-307 0 -500 215t-193 530z" />
<glyph unicode="D" horiz-adv-x="1384" d="M143 0v1454h482q305 0 502.5 -206t197.5 -521t-196.5 -521t-503.5 -206h-482zM379 213h246q213 0 339 142.5t126 371.5t-126 371.5t-339 142.5h-246v-1028z" />
<glyph unicode="E" horiz-adv-x="1196" d="M143 0v1454h1006v-213h-770v-381h631v-213h-631v-434h778v-213h-1014z" />
<glyph unicode="F" horiz-adv-x="1136" d="M143 0v1454h963v-213h-727v-381h588v-213h-588v-647h-236z" />
<glyph unicode="G" horiz-adv-x="1474" d="M74 727.5q0 319.5 197.5 532.5t512.5 213q401 0 570 -334l-205 -115q-104 233 -365 233q-215 0 -341 -151.5t-126 -378.5t126 -378.5t341 -151.5q166 0 259.5 98t93.5 280h-340v216h577v-791h-194l-41 104q-154 -123 -355 -122q-315 0 -512.5 213t-197.5 532.5z" />
<glyph unicode="H" horiz-adv-x="1380" d="M143 0v1454h236v-596h622v596h236v-1454h-236v645h-622v-645h-236z" />
<glyph unicode="I" horiz-adv-x="522" d="M143 0v1454h236v-1454h-236z" />
<glyph unicode="J" horiz-adv-x="1046" d="M37 414h213q2 -96 57 -157.5t162 -61.5q119 0 164 61t45 195v1003h235v-1040q0 -193 -110.5 -312.5t-333.5 -119.5q-201 0 -316.5 123t-115.5 309z" />
<glyph unicode="K" horiz-adv-x="1327" d="M143 0v1454h236v-700l622 700h297l-550 -602l585 -852h-280l-453 688l-221 -244v-444h-236z" />
<glyph unicode="L" horiz-adv-x="1138" d="M143 0v1454h236v-1241h727v-213h-963z" />
<glyph unicode="M" horiz-adv-x="1861" d="M143 0v1454h402l387 -1141l385 1141h401v-1454h-233v1231l-449 -1231h-211l-446 1231v-1231h-236z" />
<glyph unicode="N" horiz-adv-x="1394" d="M143 0v1454h244l629 -1053v1053h235v-1454h-243l-629 1051v-1051h-236z" />
<glyph unicode="O" horiz-adv-x="1576" d="M74 727q0 313 202.5 529.5t512 216.5t512 -216.5t202.5 -529.5t-202.5 -529t-512 -216t-512 216t-202.5 529zM311 727q0 -225 132 -378.5t345 -153.5q211 0 344.5 153.5t133.5 378.5t-133.5 379t-344.5 154q-213 0 -345 -154t-132 -379z" />
<glyph unicode="P" horiz-adv-x="1306" d="M143 0v1454h686q199 0 333 -131t134 -319q0 -193 -136 -322t-343 -129h-438v-553h-236zM379 766h438q113 0 178.5 65.5t65.5 172.5q0 102 -65.5 169.5t-178.5 67.5h-438v-475z" />
<glyph unicode="Q" horiz-adv-x="1595" d="M74 727q0 313 202.5 529.5t512 216.5t511 -216.5t201.5 -529.5q0 -238 -121 -426l9 -10q84 -72 182 -72v-237q-195 0 -340 135l-10 10q-188 -145 -433 -145q-309 0 -511.5 216t-202.5 529zM311 727q0 -225 132 -377.5t345 -152.5q168 0 291 100l-45 65q-39 59 -108 84 q-47 14 -154 15v237h16q133 -4 207 -26q143 -43 230 -170q41 106 41 225q-2 225 -134.5 379t-343.5 154q-213 0 -345 -154t-132 -379z" />
<glyph unicode="R" horiz-adv-x="1368" d="M143 0v1454h686q199 0 332 -131t133 -319q0 -156 -94 -274t-246 -159l402 -571h-275l-389 553h-313v-553h-236zM379 766h436q123 0 183.5 56.5t60.5 181.5q0 238 -244 237h-436v-475z" />
<glyph unicode="S" horiz-adv-x="1296" d="M29 287l200 114q154 -207 461 -206q59 0 112.5 11t106 36.5t83 75t30.5 116.5q0 78 -52 122t-135 59.5t-183.5 22.5t-201 23.5t-183.5 51.5t-135 114.5t-52 204.5q0 221 153.5 331t393.5 110q399 0 542 -242l-202 -113q-49 68 -144.5 105t-195.5 37q-84 0 -157 -20.5 t-128 -74t-55 -133.5q0 -72 52 -112.5t136 -54t185.5 -21.5t202 -25.5t184 -53.5t136 -120t52.5 -211q0 -231 -150.5 -341.5t-396.5 -110.5q-440 0 -659 305z" />
<glyph unicode="T" horiz-adv-x="1210" d="M18 1241v213h1174v-213h-469v-1241h-236v1241h-469z" />
<glyph unicode="U" horiz-adv-x="1423" d="M115 700v754h235v-754q0 -123 11.5 -203.5t46 -154.5t106.5 -109.5t184 -35.5q213 0 294 131t81 372v754h236v-754q0 -164 -28 -286.5t-94.5 -224t-189.5 -154.5t-299 -53q-174 0 -291.5 48t-180 146t-87 222t-24.5 302z" />
<glyph unicode="V" horiz-adv-x="1280" d="M6 1454h248l387 -1141l385 1141h248l-516 -1454h-234z" />
<glyph unicode="W" horiz-adv-x="1964" d="M12 1454h256l291 -1069l289 1069h268l291 -1069l291 1069h254l-418 -1454h-254l-297 1030l-299 -1030h-250z" />
<glyph unicode="X" horiz-adv-x="1329" d="M20 0l515 756l-463 698h278l322 -496l334 496h268l-471 -680l516 -774h-281l-376 571l-398 -571h-244z" />
<glyph unicode="Y" horiz-adv-x="1230" d="M-2 1454h254l366 -678l361 678h254l-500 -917v-537h-235v537z" />
<glyph unicode="Z" horiz-adv-x="1140" d="M37 0v213l754 1028h-717v213h1011v-213l-755 -1028h774v-213h-1067z" />
<glyph unicode="[" horiz-adv-x="645" d="M133 -326v1911h481v-194h-276v-1522h276v-195h-481z" />
<glyph unicode="\" horiz-adv-x="1081" d="M10 1473h264l797 -1473h-262z" />
<glyph unicode="]" horiz-adv-x="645" d="M31 -131h276v1522h-276v194h481v-1911h-481v195z" />
<glyph unicode="^" horiz-adv-x="1411" d="M246 971l311 483h299l309 -483h-270l-190 248l-187 -248h-272z" />
<glyph unicode="_" horiz-adv-x="956" d="M-8 0h973v-223h-973v223z" />
<glyph unicode="`" horiz-adv-x="800" d="M205 1473h225l166 -306h-178z" />
<glyph unicode="a" horiz-adv-x="1054" d="M76 315q0 90 30.5 156t75.5 101.5t121 57t140.5 29t160.5 11.5q162 6 162 104q0 55 -58.5 98t-150.5 43q-178 0 -270 -129l-146 127q70 92 179.5 140.5t236.5 48.5q193 0 305.5 -103.5t112.5 -298.5v-620q0 -43 35 -43v-37h-164q-74 0 -74 102q-61 -61 -123.5 -90.5 t-173.5 -29.5q-172 0 -285.5 82.5t-113.5 250.5zM299 315q0 -53 41 -104t135 -51q180 0 239.5 84t59.5 241v62q-16 -23 -53 -35t-62.5 -15t-80 -5.5t-58.5 -2.5q-221 -10 -221 -174z" />
<glyph unicode="b" horiz-adv-x="1275" d="M133 0v1454h223v-504q123 152 306 152q238 0 382 -158q158 -168 158 -401.5t-155 -401.5q-150 -160 -385 -159q-152 0 -269 112l-37 -94h-223zM342 543q0 -160 92 -258q98 -104 228 -105q139 0 228 108.5t89 254.5q0 141 -87 250.5t-230 109.5q-137 0 -230 -102 q-90 -100 -90 -258z" />
<glyph unicode="c" horiz-adv-x="1140" d="M74 541q0 244 151.5 402.5t403.5 158.5q285 0 440 -258l-199 -113q-29 68 -92 119t-149 51q-166 0 -242 -102.5t-76 -258t76 -257t242 -101.5q90 0 150.5 52.5t90.5 115.5l199 -102q-145 -266 -440 -266q-231 0 -393 164t-162 395z" />
<glyph unicode="d" horiz-adv-x="1275" d="M74 542.5q0 233.5 157 401.5q145 158 383 158q182 0 306 -152v504h223v-1454h-223l-37 94q-117 -113 -269 -112q-236 0 -385 159q-155 168 -155 401.5zM297 543q0 -145 89 -254t228 -109q129 0 228 105q92 98 92 258q0 158 -90 258q-92 102 -230 102q-143 0 -230 -109.5 t-87 -250.5z" />
<glyph unicode="e" horiz-adv-x="1200" d="M74 541q0 246 146.5 403.5t389.5 157.5q231 0 368.5 -148.5t147.5 -392.5v-102h-835q16 -141 94 -210t225 -69q215 0 303 152l166 -99q-66 -113 -190.5 -182t-278.5 -69q-248 0 -392 150.5t-144 408.5zM297 657h627q-20 117 -105.5 184.5t-208.5 67.5 q-119 0 -202.5 -65.5t-110.5 -186.5z" />
<glyph unicode="f" horiz-adv-x="653" d="M8 889v194h187q0 213 69.5 301.5t222.5 88.5q53 0 158 -15v-201q-61 12 -104 13q-68 0 -96.5 -42t-28.5 -145h205v-194h-205v-889h-221v889h-187z" />
<glyph unicode="g" horiz-adv-x="1230" d="M78 -231l143 168q131 -127 363 -127q154 0 226.5 80.5t72.5 252.5q-35 -76 -114 -123t-191 -47q-227 0 -363.5 167t-136.5 401q0 225 141 393t375 168q143 0 258 -101l31 82h223v-940q0 -274 -139.5 -402t-378.5 -128q-346 0 -510 156zM301 541q0 -150 70.5 -259.5 t222.5 -109.5q141 0 223 106.5t82 262.5q0 150 -82 256t-223 106q-154 0 -223.5 -103t-69.5 -259z" />
<glyph unicode="h" horiz-adv-x="1228" d="M133 0v1454h223v-530q143 178 351 178q397 0 397 -410v-692h-223v659q0 137 -50.5 190.5t-138.5 53.5q-336 0 -336 -457v-446h-223z" />
<glyph unicode="i" horiz-adv-x="505" d="M133 1212v242h240v-242h-240zM141 0v1083h224v-1083h-224z" />
<glyph unicode="j" horiz-adv-x="550" d="M-25 -180q57 -10 95 -10q66 0 95.5 36.5t29.5 128.5v1108h223v-1126q0 -199 -63.5 -271.5t-200.5 -72.5q-59 0 -179 14v193zM186 1212v242h240v-242h-240z" />
<glyph unicode="k" horiz-adv-x="1146" d="M133 0v1454h223v-852l428 481h287l-366 -403l466 -680h-272l-342 520l-201 -221v-299h-223z" />
<glyph unicode="l" horiz-adv-x="489" d="M133 0v1454h223v-1454h-223z" />
<glyph unicode="m" horiz-adv-x="1785" d="M133 0v1083h221l37 -94q104 113 238 113q231 0 321 -164q70 90 156 127t149 37q82 0 147.5 -17.5t107.5 -44t72 -69.5t45 -80t23.5 -92.5t9.5 -89t1 -84.5v-625h-223v649q0 121 -38 187.5t-145 66.5q-74 0 -121 -32.5t-79.5 -137t-32.5 -287.5v-446h-223v625 q0 279 -183 278q-260 0 -260 -407v-496h-223z" />
<glyph unicode="n" horiz-adv-x="1230" d="M133 0v1083h223l45 -108q135 127 306 127q399 0 399 -426v-676h-223v662q0 137 -56.5 192t-132.5 55q-338 0 -338 -463v-446h-223z" />
<glyph unicode="o" horiz-adv-x="1224" d="M74 541q0 223 153.5 392t386.5 169q231 0 384 -169t153 -392q0 -233 -150.5 -396t-386.5 -163q-225 0 -382.5 164t-157.5 395zM295 541q0 -152 85 -259.5t234 -107.5q141 0 228.5 108.5t87.5 258t-84 259t-232 109.5q-145 0 -232 -107t-87 -261z" />
<glyph unicode="p" horiz-adv-x="1275" d="M133 -369v1452h223l37 -92q115 111 269 111q238 0 385 -158q156 -168 155.5 -401.5t-158.5 -401.5q-147 -160 -382 -159q-180 0 -306 153v-504h-223zM342 543q0 -158 90 -258q94 -104 230 -105q143 0 230 110.5t87 252.5q0 145 -89 252.5t-228 107.5q-131 0 -228 -102 q-92 -98 -92 -258z" />
<glyph unicode="q" horiz-adv-x="1275" d="M74 542.5q0 233.5 155 401.5q147 158 385 158q154 0 269 -111l37 92h223v-1452h-223v504q-125 -154 -306 -153q-236 0 -383 159q-157 168 -157 401.5zM297 543q0 -141 87 -252t230 -111q135 0 230 105q90 100 90 258q0 160 -92 258q-96 102 -228 102q-139 0 -228 -107.5 t-89 -252.5z" />
<glyph unicode="r" horiz-adv-x="808" d="M133 0v1083h221l49 -125q141 143 302 144q31 0 79 -8v-193q-29 8 -79 8q-154 0 -252.5 -111.5t-98.5 -375.5v-422h-221z" />
<glyph unicode="s" horiz-adv-x="1003" d="M35 231l174 62q88 -119 313 -119q49 0 91 8t79 39t37 80q0 51 -49 82t-123 44t-159 35.5t-158.5 52.5t-122.5 98.5t-49 170.5q0 160 120.5 239t286.5 79q115 0 214 -37t138 -67.5t56 -53.5l-138 -123q-88 88 -270 88q-205 0 -209 -125q0 -63 68.5 -97t168 -50t198 -42 t167 -95.5t68.5 -186.5q0 -166 -121 -248.5t-297 -82.5q-100 0 -183 20.5t-132 49t-88 67.5t-54.5 63t-25.5 49z" />
<glyph unicode="t" horiz-adv-x="727" d="M-6 889v194h205v371h221v-371h276v-194h-276v-545q0 -88 40 -124t118 -36l118 13v-191q-147 -25 -227 -24q-137 0 -203.5 74.5t-66.5 269.5v563h-205z" />
<glyph unicode="u" horiz-adv-x="1228" d="M123 408v675h223v-661q0 -137 56.5 -192.5t132.5 -55.5q338 0 337 463v446h224v-1083h-224l-45 109q-135 -127 -305 -127q-399 0 -399 426z" />
<glyph unicode="v" horiz-adv-x="1042" d="M-16 1083h237l301 -784l301 784h236l-428 -1083h-219z" />
<glyph unicode="w" horiz-adv-x="1503" d="M-16 1083h231l205 -741l205 741h254l204 -741l205 741h232l-330 -1083h-213l-225 766l-226 -766h-213z" />
<glyph unicode="x" horiz-adv-x="1009" d="M18 0l367 547l-352 536h260l215 -348l217 348h250l-350 -530l372 -553h-258l-239 369l-246 -369h-236z" />
<glyph unicode="y" horiz-adv-x="1136" d="M18 1083h238l319 -796l318 796h240l-461 -1120q-49 -119 -94.5 -188.5t-104.5 -105.5t-119.5 -46t-160.5 -10v221q88 0 139 17.5t69.5 38t42.5 67.5l19 43z" />
<glyph unicode="z" horiz-adv-x="954" d="M55 0v193l537 698h-498v192h774v-192l-536 -698h551v-193h-828z" />
<glyph unicode="{" horiz-adv-x="856" d="M131 537v186q76 2 126 20.5t74.5 51t34 67.5t9.5 82v289q0 166 69.5 259t243.5 93h131v-186h-55q-100 0 -143 -42t-43 -155v-254q0 -129 -55.5 -206.5t-182.5 -112.5q127 -35 182.5 -112t55.5 -206v-254q0 -113 43 -154.5t143 -41.5h55v-187h-131q-174 0 -243.5 93.5 t-69.5 259.5v286q0 100 -50.5 161t-193.5 63z" />
<glyph unicode="|" horiz-adv-x="479" d="M133 -369v1842h213v-1842h-213z" />
<glyph unicode="}" horiz-adv-x="856" d="M37 -139h55q100 0 143.5 42t43.5 154v254q0 129 55 206t182 112q-127 35 -182 112.5t-55 206.5v254q0 113 -43 155t-144 42h-55v186h131q174 0 243.5 -93t69.5 -259v-289q0 -100 51.5 -160.5t192.5 -60.5v-186q-141 0 -192.5 -60.5t-51.5 -163.5v-286 q0 -166 -69.5 -259.5t-243.5 -93.5h-131v187z" />
<glyph unicode="~" horiz-adv-x="1624" d="M195 571q6 10 15 27.5t45 63t76 80t104.5 62t133.5 27.5q55 0 113.5 -23.5t92.5 -46t95 -67.5q106 -80 170 -80q47 0 97.5 39t79.5 80l26 39l166 -133q-4 -10 -14.5 -27.5t-45 -61.5t-73.5 -77t-103.5 -60.5t-132.5 -27.5q-135 0 -305 137q-8 6 -28.5 20.5t-27.5 20.5 t-24.5 16.5t-29 14.5t-26.5 8t-30 4q-45 0 -96 -43t-80 -84l-26 -43z" />
<glyph unicode="&#xa1;" horiz-adv-x="452" d="M102 829v256h248v-256h-248zM106 31l37 628h164l39 -628v-400h-240v400z" />
<glyph unicode="&#xa2;" d="M127 725q0 217 123 369.5t332 185.5v193h155v-189q246 -20 385 -254l-196 -110q-74 125 -189 151v-690q125 27 189 156l196 -103q-129 -246 -385 -266v-186h-155v192q-197 35 -326 189.5t-129 361.5zM367 725q0 -109 54 -205t161 -129v674q-117 -29 -166 -125t-49 -215z " />
<glyph unicode="&#xa3;" d="M82 0v227q178 70 178 273v180h-151v215h151v37q0 129 29 221q43 145 157.5 230t272.5 90q195 0 330 -164l-177 -156q-63 92 -153 92q-115 0 -169 -92t-54 -221v-37h424v-215h-424v-180q0 -94 -25 -165t-106 -122h354q84 0 141.5 30.5t112.5 106.5l157 -141 q-150 -209 -411 -209h-637z" />
<glyph unicode="&#xa4;" horiz-adv-x="1263" d="M72 133l161 141q-80 119 -79.5 266.5t79.5 266.5l-161 143l151 152l144 -162q115 78 264 78q145 0 266 -78l143 162l152 -152l-162 -143q78 -121 78 -266q0 -143 -78 -265l162 -143l-152 -151l-143 161q-119 -80 -266 -80q-143 0 -266 80l-142 -161zM367 540.5 q0 -108.5 77.5 -186.5t186 -78t187.5 78t79 187q0 111 -78 188.5t-188 77.5q-109 0 -186.5 -79t-77.5 -187.5z" />
<glyph unicode="&#xa5;" d="M53 1454h254l297 -678l297 678h254l-332 -702h252v-213h-350v-117h350v-213h-350v-209h-242v209h-350v213h350v117h-350v213h252z" />
<glyph unicode="&#xa6;" horiz-adv-x="493" d="M129 0v602h236v-602h-236zM129 870v603h236v-603h-236z" />
<glyph unicode="&#xa7;" d="M174 104l186 127q35 -45 98.5 -73.5t131.5 -28.5q92 0 150.5 34t58.5 101q0 98 -242 148q-182 35 -282.5 112.5t-100.5 231.5q0 133 102 239q-102 96 -102 224q0 174 132 261t312 87q141 0 232.5 -45t177.5 -142l-180 -129q-35 45 -98.5 74t-131.5 29q-92 0 -150 -34 t-58 -101q0 -106 243 -148q180 -35 280.5 -112.5t100.5 -231.5q0 -133 -104 -242q104 -94 104 -221q0 -174 -132 -261t-312 -87q-141 0 -235.5 46t-180.5 142zM410 756q0 -98 186 -131q88 -14 149 -35q53 45 54 137q0 94 -187 127q-53 8 -151 37q-51 -43 -51 -135z" />
<glyph unicode="&#xa8;" horiz-adv-x="987" d="M205 1245v228h219v-228h-219zM563 1245v228h219v-228h-219z" />
<glyph unicode="&#xa9;" horiz-adv-x="1613" d="M61 727q0 309 218.5 527.5t527.5 218.5t527 -218.5t218 -527.5t-218 -527t-527 -218t-527.5 218t-218.5 527zM246 727q0 -231 164.5 -399t396 -168t396.5 168t165 399t-165 399t-396.5 168t-396 -168t-164.5 -399zM397 727q0 180 112 298t298 118q213 0 326 -191 l-146 -82q-68 117 -180 117q-117 0 -175.5 -78t-58.5 -182q0 -100 59.5 -179t174.5 -79q123 0 180 117l146 -78q-104 -195 -326 -195q-172 0 -291 118t-119 296z" />
<glyph unicode="&#xaa;" horiz-adv-x="741" d="M41 913q0 63 21.5 109.5t53 72t86 42t100.5 21.5t116 7q115 2 114 74q0 41 -41.5 70.5t-107.5 29.5q-127 0 -193 -92l-102 90q100 135 295 136q137 0 217 -74t80 -211v-440q0 -31 25 -31v-27h-117q-51 0 -51 72q-45 -43 -89.5 -63.5t-121.5 -20.5q-123 0 -204 58t-81 177 zM201 913q0 -37 29.5 -73.5t95.5 -36.5q127 0 170 59.5t43 171.5v43q-10 -12 -26.5 -20t-39 -12.5t-40 -5.5t-43.5 -1h-34q-155 -8 -155 -125z" />
<glyph unicode="&#xab;" horiz-adv-x="1073" d="M55 551v80l375 452l166 -135l-297 -356l297 -356l-166 -138zM481 551v80l375 452l164 -135l-295 -356l295 -356l-164 -138z" />
<glyph unicode="&#xac;" horiz-adv-x="1228" d="M129 465v235h971v-528h-248v293h-723z" />
<glyph unicode="&#xad;" horiz-adv-x="888" d="M94 500v202h701v-202h-701z" />
<glyph unicode="&#xae;" horiz-adv-x="1613" d="M61 727q0 309 218.5 527.5t527.5 218.5t527 -218.5t218 -527.5t-218 -527t-527 -218t-527.5 218t-218.5 527zM246 727q0 -231 164.5 -399t396 -168t396.5 168t165 399t-165 399t-396.5 168t-396 -168t-164.5 -399zM465 322v811h385q109 0 184.5 -75t75.5 -181 q0 -90 -49 -167t-131 -100l217 -288h-199l-190 272h-119v-272h-174zM639 768h176q119 0 119 109q0 113 -119 112h-176v-221z" />
<glyph unicode="&#xb0;" horiz-adv-x="1001" d="M205 1181.5q0 118.5 87 205t210 86.5q121 0 208 -86.5t87 -205t-87 -203.5t-208 -85q-123 0 -210 85t-87 203.5zM401 1182q0 -41 30 -70t71 -29t70.5 29t29.5 70t-29.5 69.5t-70.5 28.5t-71 -28.5t-30 -69.5z" />
<glyph unicode="&#xb1;" horiz-adv-x="1228" d="M154 0v193h923v-193h-923zM154 618v195h350v332h227v-332h346v-195h-346v-331h-227v331h-350z" />
<glyph unicode="&#xb2;" horiz-adv-x="757" d="M51 551v98q0 72 19.5 126t71 105.5t95.5 83t136 91.5q63 43 83.5 74.5t20.5 72.5q0 53 -33.5 79t-87.5 26q-90 0 -168 -84l-110 131q123 119 293 119q119 0 198.5 -71t79.5 -204q0 -156 -164 -268l-70.5 -47t-65 -44.5t-48.5 -39t-39 -45t-16 -47.5h426v-156h-621z" />
<glyph unicode="&#xb3;" horiz-adv-x="757" d="M16 682l121 109q70 -96 195 -97q158 0 157 135q0 131 -196 132v151q47 0 71.5 2t58.5 11.5t49 32t15 61.5q0 43 -36.5 73.5t-118.5 30.5q-111 0 -197 -100l-96 110q100 139 293 140q143 0 230 -63.5t87 -190.5q0 -63 -30.5 -115.5t-79.5 -63.5q121 -41 120 -211 q0 -145 -89 -216.5t-238 -71.5q-90 0 -179.5 36.5t-136.5 104.5z" />
<glyph unicode="&#xb4;" horiz-adv-x="800" d="M205 1167l166 306h225l-213 -306h-178z" />
<glyph unicode="&#xb5;" horiz-adv-x="1239" d="M133 -369v1452h223v-680q0 -129 57.5 -179t131.5 -50q338 0 338 459v450h223v-1083h-223l-45 106q-131 -125 -306 -124q-100 0 -176 26v-377h-223z" />
<glyph unicode="&#x3bc;" horiz-adv-x="1239" d="M133 -369v1452h223v-680q0 -129 57.5 -179t131.5 -50q338 0 338 459v450h223v-1083h-223l-45 106q-131 -125 -306 -124q-100 0 -176 26v-377h-223z" />
<glyph unicode="&#xb6;" horiz-adv-x="1466" d="M119 1016q0 182 127 310t309 128h737v-205h-180v-1499h-184v1499h-187v-1499h-186v832q-182 0 -309 127t-127 307z" />
<glyph unicode="&#xb7;" horiz-adv-x="450" d="M102 532v256h246v-256h-246z" />
<glyph unicode="&#xb8;" horiz-adv-x="866" d="M205 -229l90 323l156 -41l-37 -133q33 6 78 6q84 0 127 -47t43 -118.5t-54.5 -127t-146.5 -63.5v139q49 10 49 55q0 29 -33 29q-96 -4 -149 -88z" />
<glyph unicode="&#xb9;" horiz-adv-x="757" d="M133 1171v156q10 0 23.5 1t46.5 9.5t57.5 21.5t45 43t20.5 71h168v-902h-179v600h-182z" />
<glyph unicode="&#xba;" horiz-adv-x="886" d="M61 1073q0 158 109 279t274 121q164 0 272.5 -121t108.5 -279q0 -164 -107.5 -279.5t-273.5 -115.5q-160 0 -271.5 115.5t-111.5 279.5zM217 1073.5q0 -108.5 60.5 -184.5t166.5 -76q100 0 162 77t62 183.5t-59.5 184t-164 77.5t-166 -76.5t-61.5 -185z" />
<glyph unicode="&#xbb;" horiz-adv-x="1073" d="M53 236l295 356l-295 356l164 135l375 -452v-80l-375 -453zM477 236l297 356l-297 356l166 135l375 -452v-80l-375 -453z" />
<glyph unicode="&#xbc;" horiz-adv-x="1792" d="M113 1171v156q10 0 23.5 1t46 9.5t57 21.5t45 43t20.5 71h168v-902h-178v600h-182zM260 0l950 1452h207l-950 -1452h-207zM897 143v162l328 594h190l-325 -594h194v258h182v-258h123v-162h-123v-143h-182v143h-387z" />
<glyph unicode="&#xbd;" horiz-adv-x="1792" d="M80 1171v156q10 0 23.5 1t46 9.5t57 21.5t45 43t20.5 71h168v-902h-178v600h-182zM227 0l951 1452h206l-950 -1452h-207zM1081 0v98q0 72 19.5 126.5t71 105.5t95.5 82.5t136 91.5q63 43 83.5 74.5t20.5 72.5q0 53 -33.5 79t-87.5 26q-90 0 -167 -84l-111 131 q123 119 293 119q119 0 198.5 -71t79.5 -204q0 -156 -163 -268q-27 -18 -71 -47t-65.5 -44.5t-48 -39t-39 -45t-16.5 -47.5h426v-156h-621z" />
<glyph unicode="&#xbe;" horiz-adv-x="1792" d="M63 682l121 109q70 -96 195 -97q158 0 158 135q0 131 -197 132v151q47 0 71.5 2t58.5 11.5t49.5 32t15.5 61.5q0 43 -37 73.5t-119 30.5q-111 0 -197 -100l-96 110q100 139 293 140q143 0 230 -63.5t87 -190.5q0 -63 -30.5 -115.5t-79.5 -63.5q121 -41 121 -211 q0 -145 -89.5 -216.5t-238.5 -71.5q-90 0 -179.5 36.5t-136.5 104.5zM373 0l950 1452h205l-950 -1452h-205zM985 143v162l328 594h190l-325 -594h194v258h182v-258h123v-162h-123v-143h-182v143h-387z" />
<glyph unicode="&#xbf;" horiz-adv-x="1007" d="M-72 0q0 121 51.5 196.5t188.5 168.5q88 59 119.5 112t31.5 135v66h218v-84q0 -129 -51.5 -217t-178.5 -176q-51 -37 -77.5 -57.5t-55.5 -62.5t-29 -85q0 -86 72 -138.5t172 -52.5q96 0 189.5 57.5t152.5 145.5l154 -137q-84 -115 -216 -186.5t-280 -71.5 q-190 0 -325.5 99.5t-135.5 287.5zM305 829v256h246v-256h-246z" />
<glyph unicode="&#xc0;" horiz-adv-x="1386" d="M6 0l567 1454h240l567 -1454h-245l-138 362h-608l-139 -362h-244zM375 1923h225l166 -305h-178zM471 578h444l-221 565z" />
<glyph unicode="&#xc1;" horiz-adv-x="1386" d="M6 0l567 1454h240l567 -1454h-245l-138 362h-608l-139 -362h-244zM471 578h444l-221 565zM614 1618l166 305h226l-213 -305h-179z" />
<glyph unicode="&#xc2;" horiz-adv-x="1386" d="M6 0l567 1454h240l567 -1454h-245l-138 362h-608l-139 -362h-244zM406 1618l186 305h201l188 -305h-182l-107 143l-104 -143h-182zM471 578h444l-221 565z" />
<glyph unicode="&#xc3;" horiz-adv-x="1386" d="M6 0l567 1454h240l567 -1454h-245l-138 362h-608l-139 -362h-244zM344 1722q2 6 8 16.5t25.5 38t43 48t60.5 37t76 16.5q78 0 174 -78q61 -49 98 -49q25 0 53.5 23.5t45.5 46.5l16 22l96 -80q-2 -6 -8 -16t-25.5 -37t-42 -46t-59.5 -35.5t-76 -16.5q-86 0 -174 74 q-6 4 -19 14t-20.5 15t-17.5 10.5t-20.5 8.5t-20.5 3q-25 0 -53.5 -24.5t-44.5 -49.5l-17 -23zM471 578h444l-221 565z" />
<glyph unicode="&#xc4;" horiz-adv-x="1386" d="M6 0l567 1454h240l567 -1454h-245l-138 362h-608l-139 -362h-244zM403 1616v227h220v-227h-220zM471 578h444l-221 565zM762 1616v227h219v-227h-219z" />
<glyph unicode="&#xc5;" horiz-adv-x="1386" d="M6 0l531 1358q-80 70 -80 176q0 96 69.5 165.5t165.5 69.5t167 -69.5t71 -165.5q0 -100 -80 -174l530 -1360h-245l-138 362h-608l-139 -362h-244zM471 578h444l-221 565zM612 1534q0 -35 23.5 -57.5t56.5 -22.5q35 0 58.5 23.5t23.5 56.5t-24.5 56.5t-57.5 23.5 t-56.5 -23.5t-23.5 -56.5z" />
<glyph unicode="&#xc6;" horiz-adv-x="1925" d="M6 0l696 1454h1176v-213h-770v-381h631v-213h-631v-434h778v-213h-1014v362h-419l-170 -362h-277zM555 578h317v663z" />
<glyph unicode="&#xc7;" horiz-adv-x="1441" d="M143 727q0 315 192.5 530.5t500.5 215.5q193 0 334 -89.5t221 -244.5l-197 -115q-104 233 -358 233q-209 0 -332 -151.5t-123 -378.5t123 -378.5t332 -153.5q254 2 358 233l197 -115q-80 -156 -221.5 -243.5t-333.5 -87.5q-37 0 -72 4l-16 -66q35 6 77 6q84 0 127 -47 t43 -118.5t-54 -127t-146 -63.5v139q49 10 49 55q0 29 -33 29q-96 -4 -149 -88l-123 66l67 247q-213 72 -338 265.5t-125 443.5z" />
<glyph unicode="&#xc8;" horiz-adv-x="1196" d="M143 0v1454h1006v-213h-770v-381h631v-213h-631v-434h778v-213h-1014zM455 1923h225l166 -305h-178z" />
<glyph unicode="&#xc9;" horiz-adv-x="1196" d="M143 0v1454h1006v-213h-770v-381h631v-213h-631v-434h778v-213h-1014zM455 1618l166 305h225l-213 -305h-178z" />
<glyph unicode="&#xca;" horiz-adv-x="1196" d="M143 0v1454h1006v-213h-770v-381h631v-213h-631v-434h778v-213h-1014zM362 1618l187 305h201l188 -305h-182l-107 143l-104 -143h-183z" />
<glyph unicode="&#xcb;" horiz-adv-x="1196" d="M143 0v1454h1006v-213h-770v-381h631v-213h-631v-434h778v-213h-1014zM360 1616v227h220v-227h-220zM719 1616v227h219v-227h-219z" />
<glyph unicode="&#xcc;" horiz-adv-x="522" d="M66 1923h225l166 -305h-178zM143 0v1454h236v-1454h-236z" />
<glyph unicode="&#xcd;" horiz-adv-x="522" d="M66 1618l165 305h226l-213 -305h-178zM143 0v1454h236v-1454h-236z" />
<glyph unicode="&#xce;" horiz-adv-x="522" d="M-27 1618l187 305h200l189 -305h-182l-107 143l-104 -143h-183zM143 0v1454h236v-1454h-236z" />
<glyph unicode="&#xcf;" horiz-adv-x="522" d="M-27 1616v227h220v-227h-220zM143 0v1454h236v-1454h-236zM332 1616v227h219v-227h-219z" />
<glyph unicode="&#xd0;" horiz-adv-x="1423" d="M-4 645v168h186v641h482q305 0 502.5 -206t197.5 -521t-195.5 -521t-504.5 -206h-482v645h-186zM418 213h246q213 0 338.5 142.5t125.5 371.5t-125.5 371.5t-338.5 142.5h-246v-428h225v-168h-225v-432z" />
<glyph unicode="&#xd1;" horiz-adv-x="1394" d="M143 0v1454h244l629 -1053v1053h235v-1454h-243l-629 1051v-1051h-236zM348 1722q2 6 8 16.5t25.5 38t43.5 48t60.5 37t75.5 16.5q78 0 174 -78q61 -49 99 -49q25 0 53 23.5t45 46.5l16 22l96 -80q-2 -6 -8 -16t-25.5 -37t-42 -46t-59.5 -35.5t-75 -16.5q-86 0 -175 74 q-6 4 -19 14t-20.5 15t-17.5 10.5t-20.5 8.5t-20.5 3q-25 0 -53.5 -24.5t-44.5 -49.5l-17 -23z" />
<glyph unicode="&#xd2;" horiz-adv-x="1576" d="M74 727q0 313 202.5 529.5t512 216.5t512 -216.5t202.5 -529.5t-202.5 -529t-512 -216t-512 216t-202.5 529zM311 727q0 -225 132 -378.5t345 -153.5q211 0 344.5 153.5t133.5 378.5t-133.5 379t-344.5 154q-213 0 -345 -154t-132 -379zM575 1923h226l166 -305h-179z" />
<glyph unicode="&#xd3;" horiz-adv-x="1576" d="M74 727q0 313 202.5 529.5t512 216.5t512 -216.5t202.5 -529.5t-202.5 -529t-512 -216t-512 216t-202.5 529zM311 727q0 -225 132 -378.5t345 -153.5q211 0 344.5 153.5t133.5 378.5t-133.5 379t-344.5 154q-213 0 -345 -154t-132 -379zM610 1618l166 305h225l-213 -305 h-178z" />
<glyph unicode="&#xd4;" horiz-adv-x="1576" d="M74 727q0 313 202.5 529.5t512 216.5t512 -216.5t202.5 -529.5t-202.5 -529t-512 -216t-512 216t-202.5 529zM311 727q0 -225 132 -378.5t345 -153.5q211 0 344.5 153.5t133.5 378.5t-133.5 379t-344.5 154q-213 0 -345 -154t-132 -379zM502 1618l186 305h201l188 -305 h-182l-107 143l-104 -143h-182z" />
<glyph unicode="&#xd5;" horiz-adv-x="1576" d="M74 727q0 313 202.5 529.5t512 216.5t512 -216.5t202.5 -529.5t-202.5 -529t-512 -216t-512 216t-202.5 529zM311 727q0 -225 132 -378.5t345 -153.5q211 0 344.5 153.5t133.5 378.5t-133.5 379t-344.5 154q-213 0 -345 -154t-132 -379zM440 1722q2 6 8.5 16.5t26 38 t43 48t60 37t75.5 16.5q76 0 174 -78q61 -49 99 -49q25 0 53.5 23.5t44.5 46.5l16 22l97 -80q-2 -6 -8.5 -16t-26 -37t-42 -46t-59 -35.5t-75.5 -16.5q-86 0 -174 74q-6 4 -19.5 14t-20.5 15t-17.5 10.5t-20.5 8.5t-21 3q-25 0 -53.5 -24.5t-44.5 -49.5l-16 -23z" />
<glyph unicode="&#xd6;" horiz-adv-x="1576" d="M74 727q0 313 202.5 529.5t512 216.5t512 -216.5t202.5 -529.5t-202.5 -529t-512 -216t-512 216t-202.5 529zM311 727q0 -225 132 -378.5t345 -153.5q211 0 344.5 153.5t133.5 378.5t-133.5 379t-344.5 154q-213 0 -345 -154t-132 -379zM500 1616v227h219v-227h-219z M858 1616v227h219v-227h-219z" />
<glyph unicode="&#xd7;" horiz-adv-x="1228" d="M154 250l333 334l-333 334l129 126l331 -333l334 333l129 -126l-334 -334l334 -334l-129 -127l-334 332l-331 -332z" />
<glyph unicode="&#xd8;" horiz-adv-x="1576" d="M74 727q0 313 202.5 529.5t511.5 216.5q182 0 338 -84l142 186l186 -139l-143 -191q193 -211 192 -518q0 -313 -202.5 -529t-512.5 -216q-197 0 -356 92l-170 -230l-186 146l176 233q-178 211 -178 504zM311 727q0 -180 84 -311l598 794q-98 49 -205 50q-213 0 -345 -154 t-132 -379zM563 250q104 -55 225 -55q211 0 344.5 153.5t133.5 378.5q0 186 -99 330z" />
<glyph unicode="&#xd9;" horiz-adv-x="1423" d="M115 700v754h235v-754q0 -123 11.5 -203.5t46 -154.5t106.5 -109.5t184 -35.5q213 0 294 131t81 372v754h236v-754q0 -164 -28 -286.5t-94.5 -224t-189.5 -154.5t-299 -53q-174 0 -291.5 48t-180 146t-87 222t-24.5 302zM516 1923h225l166 -305h-178z" />
<glyph unicode="&#xda;" horiz-adv-x="1423" d="M115 700v754h235v-754q0 -123 11.5 -203.5t46 -154.5t106.5 -109.5t184 -35.5q213 0 294 131t81 372v754h236v-754q0 -164 -28 -286.5t-94.5 -224t-189.5 -154.5t-299 -53q-174 0 -291.5 48t-180 146t-87 222t-24.5 302zM516 1618l166 305h225l-213 -305h-178z" />
<glyph unicode="&#xdb;" horiz-adv-x="1423" d="M115 700v754h235v-754q0 -123 11.5 -203.5t46 -154.5t106.5 -109.5t184 -35.5q213 0 294 131t81 372v754h236v-754q0 -164 -28 -286.5t-94.5 -224t-189.5 -154.5t-299 -53q-174 0 -291.5 48t-180 146t-87 222t-24.5 302zM424 1618l186 305h201l188 -305h-182l-106 143 l-105 -143h-182z" />
<glyph unicode="&#xdc;" horiz-adv-x="1423" d="M115 700v754h235v-754q0 -123 11.5 -203.5t46 -154.5t106.5 -109.5t184 -35.5q213 0 294 131t81 372v754h236v-754q0 -164 -28 -286.5t-94.5 -224t-189.5 -154.5t-299 -53q-174 0 -291.5 48t-180 146t-87 222t-24.5 302zM422 1616v227h219v-227h-219zM780 1616v227h219 v-227h-219z" />
<glyph unicode="&#xdd;" horiz-adv-x="1230" d="M-2 1454h254l366 -678l361 678h254l-500 -917v-537h-235v537zM420 1618l166 305h225l-213 -305h-178z" />
<glyph unicode="&#xde;" horiz-adv-x="1265" d="M143 0v1454h236v-276h391q199 0 333 -131.5t134 -319.5q0 -193 -136 -322t-343 -129h-379v-276h-236zM379 489h379q115 0 179 63.5t64 174.5q0 104 -65.5 171t-177.5 67h-379v-476z" />
<glyph unicode="&#xdf;" horiz-adv-x="1155" d="M133 0v1034q0 205 114.5 322t340.5 117q197 0 297 -116t100 -302q0 -96 -45 -179t-137 -126q121 -27 190.5 -117t69.5 -225q0 -219 -135 -322.5t-430 -103.5v213q160 0 244.5 48t84.5 165q0 57 -20.5 99t-49 63.5t-75.5 33.5t-87 15.5t-97 3.5v213q137 0 194.5 54 t57.5 165q0 84 -44 144.5t-135 60.5q-203 0 -202 -226v-1034h-236z" />
<glyph unicode="&#xe0;" horiz-adv-x="1054" d="M76 315q0 90 30.5 156t75.5 101.5t121 57t140.5 29t160.5 11.5q162 6 162 104q0 55 -58.5 98t-150.5 43q-178 0 -270 -129l-146 127q70 92 179.5 140.5t236.5 48.5q193 0 305.5 -103.5t112.5 -298.5v-620q0 -43 35 -43v-37h-164q-74 0 -74 102q-61 -61 -123.5 -90.5 t-173.5 -29.5q-172 0 -285.5 82.5t-113.5 250.5zM246 1552h225l166 -305h-178zM299 315q0 -53 41 -104t135 -51q180 0 239.5 84t59.5 241v62q-16 -23 -53 -35t-62.5 -15t-80 -5.5t-58.5 -2.5q-221 -10 -221 -174z" />
<glyph unicode="&#xe1;" horiz-adv-x="1054" d="M76 315q0 90 30.5 156t75.5 101.5t121 57t140.5 29t160.5 11.5q162 6 162 104q0 55 -58.5 98t-150.5 43q-178 0 -270 -129l-146 127q70 92 179.5 140.5t236.5 48.5q193 0 305.5 -103.5t112.5 -298.5v-620q0 -43 35 -43v-37h-164q-74 0 -74 102q-61 -61 -123.5 -90.5 t-173.5 -29.5q-172 0 -285.5 82.5t-113.5 250.5zM299 315q0 -53 41 -104t135 -51q180 0 239.5 84t59.5 241v62q-16 -23 -53 -35t-62.5 -15t-80 -5.5t-58.5 -2.5q-221 -10 -221 -174zM457 1247l166 305h225l-213 -305h-178z" />
<glyph unicode="&#xe2;" horiz-adv-x="1054" d="M76 315q0 90 30.5 156t75.5 101.5t121 57t140.5 29t160.5 11.5q162 6 162 104q0 55 -58.5 98t-150.5 43q-178 0 -270 -129l-146 127q70 92 179.5 140.5t236.5 48.5q193 0 305.5 -103.5t112.5 -298.5v-620q0 -43 35 -43v-37h-164q-74 0 -74 102q-61 -61 -123.5 -90.5 t-173.5 -29.5q-172 0 -285.5 82.5t-113.5 250.5zM270 1247l187 305h200l189 -305h-182l-107 144l-104 -144h-183zM299 315q0 -53 41 -104t135 -51q180 0 239.5 84t59.5 241v62q-16 -23 -53 -35t-62.5 -15t-80 -5.5t-58.5 -2.5q-221 -10 -221 -174z" />
<glyph unicode="&#xe3;" horiz-adv-x="1054" d="M76 315q0 90 30.5 156t75.5 101.5t121 57t140.5 29t160.5 11.5q162 6 162 104q0 55 -58.5 98t-150.5 43q-178 0 -270 -129l-146 127q70 92 179.5 140.5t236.5 48.5q193 0 305.5 -103.5t112.5 -298.5v-620q0 -43 35 -43v-37h-164q-74 0 -74 102q-61 -61 -123.5 -90.5 t-173.5 -29.5q-172 0 -285.5 82.5t-113.5 250.5zM195 1372q2 6 8 16.5t25.5 38t43 48t60.5 37t76 16.5q76 0 174 -78q61 -49 98 -49q25 0 53.5 22.5t44.5 46.5l17 23l96 -80q-2 -6 -8 -16.5t-25.5 -37t-42 -46t-59.5 -35.5t-76 -16q-86 0 -174 73q-6 4 -19.5 14.5 t-20.5 15.5t-17.5 10t-20.5 8t-20 3q-25 0 -53.5 -23.5t-45.5 -47.5l-16 -25zM299 315q0 -53 41 -104t135 -51q180 0 239.5 84t59.5 241v62q-16 -23 -53 -35t-62.5 -15t-80 -5.5t-58.5 -2.5q-221 -10 -221 -174z" />
<glyph unicode="&#xe4;" horiz-adv-x="1054" d="M76 315q0 90 30.5 156t75.5 101.5t121 57t140.5 29t160.5 11.5q162 6 162 104q0 55 -58.5 98t-150.5 43q-178 0 -270 -129l-146 127q70 92 179.5 140.5t236.5 48.5q193 0 305.5 -103.5t112.5 -298.5v-620q0 -43 35 -43v-37h-164q-74 0 -74 102q-61 -61 -123.5 -90.5 t-173.5 -29.5q-172 0 -285.5 82.5t-113.5 250.5zM254 1245v228h219v-228h-219zM299 315q0 -53 41 -104t135 -51q180 0 239.5 84t59.5 241v62q-16 -23 -53 -35t-62.5 -15t-80 -5.5t-58.5 -2.5q-221 -10 -221 -174zM612 1245v228h219v-228h-219z" />
<glyph unicode="&#xe5;" horiz-adv-x="1054" d="M76 315q0 90 30.5 156t75.5 101.5t121 57t140.5 29t160.5 11.5q162 6 162 104q0 55 -58.5 98t-150.5 43q-178 0 -270 -129l-146 127q70 92 179.5 140.5t236.5 48.5q193 0 305.5 -103.5t112.5 -298.5v-620q0 -43 35 -43v-37h-164q-74 0 -74 102q-61 -61 -123.5 -90.5 t-173.5 -29.5q-172 0 -285.5 82.5t-113.5 250.5zM299 315q0 -53 41 -104t135 -51q180 0 239.5 84t59.5 241v62q-16 -23 -53 -35t-62.5 -15t-80 -5.5t-58.5 -2.5q-221 -10 -221 -174zM322 1491q0 96 69.5 165.5t165.5 69.5t167 -69.5t71 -165.5t-71 -166t-167 -70t-165.5 70 t-69.5 166zM477 1491q0 -33 23.5 -56.5t56.5 -23.5q35 0 58.5 23.5t23.5 56.5t-24.5 56.5t-57.5 23.5t-56.5 -23.5t-23.5 -56.5z" />
<glyph unicode="&#xe6;" horiz-adv-x="1900" d="M76 313q0 90 30.5 156t75.5 102.5t121 58t140.5 29t160.5 11.5q162 6 162 104q0 55 -58.5 100.5t-148.5 45.5q-176 0 -272 -134l-146 127q70 92 180.5 140.5t237.5 48.5q248 0 356 -168q154 168 396 168q231 0 368.5 -148.5t147.5 -392.5v-96h-834q31 -291 318 -291 q211 0 303 158l166 -99q-63 -113 -188.5 -182t-280.5 -69q-289 0 -426 206q-119 -207 -410 -206q-172 0 -285.5 82.5t-113.5 248.5zM299 313q0 -23 6 -45t22.5 -50t54.5 -45t93 -17q82 0 139.5 19.5t88 48t47 77.5t20.5 91t4 106v67q-10 -14 -29.5 -25.5t-39 -17.5t-49 -10 t-47 -6t-49.5 -3t-40 -1q-221 -11 -221 -189zM997 657h627q-20 117 -105 184.5t-208 67.5q-119 0 -203 -65.5t-111 -186.5z" />
<glyph unicode="&#xe7;" horiz-adv-x="1140" d="M74 541q0 244 151.5 402.5t403.5 158.5q285 0 440 -258l-199 -113q-29 68 -92 119t-149 51q-166 0 -242 -102.5t-76 -258t76 -257t242 -101.5q90 0 150.5 52.5t90.5 115.5l199 -102q-145 -266 -440 -266q-23 0 -60 4l-18 -66q35 6 78 6q84 0 127 -47t43 -118.5 t-54.5 -127t-146.5 -63.5v139q49 10 49 55q0 29 -33 29q-96 -4 -149 -88l-123 66l66 243q-154 57 -244 203t-90 324z" />
<glyph unicode="&#xe8;" horiz-adv-x="1200" d="M74 541q0 246 146.5 403.5t389.5 157.5q231 0 368.5 -148.5t147.5 -392.5v-102h-835q16 -141 94 -210t225 -69q215 0 303 152l166 -99q-66 -113 -190.5 -182t-278.5 -69q-248 0 -392 150.5t-144 408.5zM297 657h627q-20 117 -105.5 184.5t-208.5 67.5 q-119 0 -202.5 -65.5t-110.5 -186.5zM311 1552h226l165 -305h-178z" />
<glyph unicode="&#xe9;" horiz-adv-x="1200" d="M74 541q0 246 146.5 403.5t389.5 157.5q231 0 368.5 -148.5t147.5 -392.5v-102h-835q16 -141 94 -210t225 -69q215 0 303 152l166 -99q-66 -113 -190.5 -182t-278.5 -69q-248 0 -392 150.5t-144 408.5zM297 657h627q-20 117 -105.5 184.5t-208.5 67.5 q-119 0 -202.5 -65.5t-110.5 -186.5zM524 1247l166 305h225l-213 -305h-178z" />
<glyph unicode="&#xea;" horiz-adv-x="1200" d="M74 541q0 246 146.5 403.5t389.5 157.5q231 0 368.5 -148.5t147.5 -392.5v-102h-835q16 -141 94 -210t225 -69q215 0 303 152l166 -99q-66 -113 -190.5 -182t-278.5 -69q-248 0 -392 150.5t-144 408.5zM297 657h627q-20 117 -105.5 184.5t-208.5 67.5 q-119 0 -202.5 -65.5t-110.5 -186.5zM324 1247l186 305h201l188 -305h-182l-107 144l-104 -144h-182z" />
<glyph unicode="&#xeb;" horiz-adv-x="1200" d="M74 541q0 246 146.5 403.5t389.5 157.5q231 0 368.5 -148.5t147.5 -392.5v-102h-835q16 -141 94 -210t225 -69q215 0 303 152l166 -99q-66 -113 -190.5 -182t-278.5 -69q-248 0 -392 150.5t-144 408.5zM297 657h627q-20 117 -105.5 184.5t-208.5 67.5 q-119 0 -202.5 -65.5t-110.5 -186.5zM326 1245v228h219v-228h-219zM684 1245v228h219v-228h-219z" />
<glyph unicode="&#xec;" horiz-adv-x="505" d="M57 1552h226l166 -305h-179zM141 0v1083h224v-1083h-224z" />
<glyph unicode="&#xed;" horiz-adv-x="505" d="M57 1247l166 305h226l-213 -305h-179zM141 0v1083h224v-1083h-224z" />
<glyph unicode="&#xee;" horiz-adv-x="505" d="M-35 1247l187 305h200l189 -305h-183l-106 144l-105 -144h-182zM141 0v1083h224v-1083h-224z" />
<glyph unicode="&#xef;" horiz-adv-x="505" d="M-37 1245v228h219v-228h-219zM139 0v1083h223v-1083h-223zM322 1245v228h219v-228h-219z" />
<glyph unicode="&#xf0;" horiz-adv-x="1167" d="M74 524q0 248 131 415t370 167q129 0 197 -57q-39 84 -65 131h-406v215h258l-24 35l170 131q63 -72 126 -166h150v-215h-31q143 -309 144 -633q0 -256 -134.5 -410.5t-379.5 -154.5q-211 0 -358.5 140t-147.5 402zM305 524q0 -141 79 -235t206 -94q131 0 201.5 96 t70.5 233q0 158 -71.5 263.5t-208.5 105.5q-131 0 -204 -95.5t-73 -273.5z" />
<glyph unicode="&#xf1;" horiz-adv-x="1230" d="M133 0v1083h223l45 -108q135 127 306 127q399 0 399 -426v-676h-223v662q0 137 -56.5 192t-132.5 55q-338 0 -338 -463v-446h-223zM270 1393q2 6 8.5 16t26 38t43 48.5t60 36.5t75.5 16q78 0 174 -78q61 -49 99 -49q25 0 53.5 22.5t44.5 47.5l16 22l97 -79 q-2 -6 -8.5 -16.5t-26 -37t-42 -46t-59 -36t-75.5 -16.5q-86 0 -174 74q-6 4 -19.5 14t-20.5 15.5t-17.5 10.5t-20.5 8t-21 3q-25 0 -53.5 -23.5t-44.5 -48.5l-16 -24z" />
<glyph unicode="&#xf2;" horiz-adv-x="1224" d="M74 541q0 223 153.5 392t386.5 169q231 0 384 -169t153 -392q0 -233 -150.5 -396t-386.5 -163q-225 0 -382.5 164t-157.5 395zM295 541q0 -152 85 -259.5t234 -107.5q141 0 228.5 108.5t87.5 258t-84 259t-232 109.5q-145 0 -232 -107t-87 -261zM319 1552h226l166 -305 h-179z" />
<glyph unicode="&#xf3;" horiz-adv-x="1224" d="M74 541q0 223 153.5 392t386.5 169q231 0 384 -169t153 -392q0 -233 -150.5 -396t-386.5 -163q-225 0 -382.5 164t-157.5 395zM295 541q0 -152 85 -259.5t234 -107.5q141 0 228.5 108.5t87.5 258t-84 259t-232 109.5q-145 0 -232 -107t-87 -261zM520 1247l166 305h225 l-213 -305h-178z" />
<glyph unicode="&#xf4;" horiz-adv-x="1224" d="M74 541q0 223 153.5 392t386.5 169q231 0 384 -169t153 -392q0 -233 -150.5 -396t-386.5 -163q-225 0 -382.5 164t-157.5 395zM295 541q0 -152 85 -259.5t234 -107.5q141 0 228.5 108.5t87.5 258t-84 259t-232 109.5q-145 0 -232 -107t-87 -261zM328 1247l186 305h201 l188 -305h-182l-107 144l-104 -144h-182z" />
<glyph unicode="&#xf5;" horiz-adv-x="1224" d="M74 541q0 223 153.5 392t386.5 169q231 0 384 -169t153 -392q0 -233 -150.5 -396t-386.5 -163q-225 0 -382.5 164t-157.5 395zM264 1372q2 6 8.5 16.5t25.5 38t43 48t60.5 37t75.5 16.5q76 0 174 -78q61 -49 99 -49q25 0 53 22.5t45 46.5l16 23l97 -80q-2 -6 -8.5 -16.5 t-26 -37t-42 -46t-59.5 -35.5t-75 -16q-86 0 -175 73q-6 4 -19 14.5t-20.5 15.5t-17.5 10t-20.5 8t-20.5 3q-25 0 -53.5 -23.5t-44.5 -47.5l-17 -25zM295 541q0 -152 85 -259.5t234 -107.5q141 0 228.5 108.5t87.5 258t-84 259t-232 109.5q-145 0 -232 -107t-87 -261z" />
<glyph unicode="&#xf6;" horiz-adv-x="1224" d="M74 541q0 223 153.5 392t386.5 169q231 0 384 -169t153 -392q0 -233 -150.5 -396t-386.5 -163q-225 0 -382.5 164t-157.5 395zM295 541q0 -152 85 -259.5t234 -107.5q141 0 228.5 108.5t87.5 258t-84 259t-232 109.5q-145 0 -232 -107t-87 -261zM326 1245v228h219v-228 h-219zM684 1245v228h219v-228h-219z" />
<glyph unicode="&#xf7;" horiz-adv-x="1228" d="M129 428v242h971v-242h-971zM492 0v256h245v-256h-245zM492 838v258h245v-258h-245z" />
<glyph unicode="&#xf8;" horiz-adv-x="1224" d="M74 543q0 223 152.5 391t385.5 168q82 0 156 -25l104 193l209 -107l-110 -202q84 -80 132 -191t48 -227q0 -236 -151.5 -398.5t-387.5 -162.5q-84 0 -159 24l-111 -205l-207 109l117 215q-178 166 -178 418zM295 543q0 -131 59 -228l320 588q-31 6 -62 6 q-143 0 -230 -107t-87 -259zM547 180q31 -6 65 -6q141 0 228.5 108.5t87.5 260.5q0 127 -62 225z" />
<glyph unicode="&#xf9;" horiz-adv-x="1228" d="M123 408v675h223v-661q0 -137 56.5 -192.5t132.5 -55.5q338 0 337 463v446h224v-1083h-224l-45 109q-135 -127 -305 -127q-399 0 -399 426zM414 1552h225l166 -305h-178z" />
<glyph unicode="&#xfa;" horiz-adv-x="1228" d="M123 408v675h223v-661q0 -137 56.5 -192.5t132.5 -55.5q338 0 337 463v446h224v-1083h-224l-45 109q-135 -127 -305 -127q-399 0 -399 426zM414 1247l166 305h225l-213 -305h-178z" />
<glyph unicode="&#xfb;" horiz-adv-x="1228" d="M123 408v675h223v-661q0 -137 56.5 -192.5t132.5 -55.5q338 0 337 463v446h224v-1083h-224l-45 109q-135 -127 -305 -127q-399 0 -399 426zM322 1247l186 305h201l188 -305h-182l-107 144l-104 -144h-182z" />
<glyph unicode="&#xfc;" horiz-adv-x="1228" d="M123 408v675h223v-661q0 -137 56.5 -192.5t132.5 -55.5q338 0 337 463v446h224v-1083h-224l-45 109q-135 -127 -305 -127q-399 0 -399 426zM319 1245v228h220v-228h-220zM678 1245v228h219v-228h-219z" />
<glyph unicode="&#xfd;" horiz-adv-x="1136" d="M18 1083h238l319 -796l318 796h240l-461 -1120q-49 -119 -94.5 -188.5t-104.5 -105.5t-119.5 -46t-160.5 -10v221q88 0 139 17.5t69.5 38t42.5 67.5l19 43zM379 1247l166 305h225l-213 -305h-178z" />
<glyph unicode="&#xfe;" horiz-adv-x="1280" d="M133 -369v1823h223v-506q125 154 308 154q238 0 385 -160q158 -168 157 -401q0 -236 -157 -404q-145 -156 -385 -155q-182 0 -308 151v-502h-223zM344 541q0 -162 88 -260q94 -100 232 -101q141 0 229 106.5t88 254.5q0 139 -88 250.5t-229 111.5q-137 0 -232 -104 q-88 -98 -88 -258z" />
<glyph unicode="&#xff;" horiz-adv-x="1136" d="M18 1083h238l319 -796l318 796h240l-461 -1120q-49 -119 -94.5 -188.5t-104.5 -105.5t-119.5 -46t-160.5 -10v221q88 0 139 17.5t69.5 38t42.5 67.5l19 43zM287 1245v228h219v-228h-219zM645 1245v228h219v-228h-219z" />
<glyph unicode="&#x152;" horiz-adv-x="2260" d="M74 727q0 324 190.5 535t487.5 211q301 0 458 -164v145h1002v-217h-768v-379h629v-213h-629v-432h778v-213h-1012v141q-154 -160 -458 -159q-297 0 -487.5 209.5t-190.5 535.5zM317 727q0 -225 117 -369.5t318 -144.5q215 0 334.5 138t119.5 376q0 236 -119.5 373 t-334.5 137q-201 0 -318 -142.5t-117 -367.5z" />
<glyph unicode="&#x153;" horiz-adv-x="2025" d="M74 541q0 227 147.5 394t393 167t403.5 -193q156 193 418 193q233 0 370.5 -148.5t145.5 -392.5v-96h-834q35 -291 318 -291q211 0 303 158l166 -99q-63 -113 -188.5 -182t-280.5 -69q-274 0 -422 180q-154 -180 -400 -180q-238 0 -389 161.5t-151 397.5zM295 541 q0 -152 85 -259.5t234 -107.5q141 0 228.5 108.5t87.5 258t-84 259t-232 109.5q-145 0 -232 -107t-87 -261zM1124 657h627q-23 119 -107.5 185.5t-207.5 66.5q-119 0 -202 -65.5t-110 -186.5z" />
<glyph unicode="&#x178;" horiz-adv-x="1230" d="M-2 1454h254l366 -678l361 678h254l-500 -917v-537h-235v537zM326 1616v227h219v-227h-219zM684 1616v227h219v-227h-219z" />
<glyph unicode="&#x2c6;" horiz-adv-x="985" d="M205 1167l186 306h201l188 -306h-182l-106 144l-105 -144h-182z" />
<glyph unicode="&#x2dc;" horiz-adv-x="1105" d="M205 1251q2 6 8 16.5t25.5 38t43 48t60.5 37t76 16.5q78 0 174 -78q61 -49 98 -49q25 0 53.5 23.5t44.5 46.5l17 22l96 -80q-2 -6 -8 -16t-25.5 -37t-42 -46t-59.5 -35.5t-76 -16.5q-86 0 -174 73q-6 4 -19.5 14.5t-20.5 15.5t-17 10.5t-20.5 8.5t-20.5 3 q-25 0 -53.5 -24.5t-45.5 -49.5l-16 -23z" />
<glyph unicode="&#x2000;" horiz-adv-x="960" />
<glyph unicode="&#x2001;" horiz-adv-x="1923" />
<glyph unicode="&#x2002;" horiz-adv-x="960" />
<glyph unicode="&#x2003;" horiz-adv-x="1923" />
<glyph unicode="&#x2004;" horiz-adv-x="641" />
<glyph unicode="&#x2005;" horiz-adv-x="479" />
<glyph unicode="&#x2006;" horiz-adv-x="319" />
<glyph unicode="&#x2007;" horiz-adv-x="319" />
<glyph unicode="&#x2008;" horiz-adv-x="239" />
<glyph unicode="&#x2009;" horiz-adv-x="382" />
<glyph unicode="&#x200a;" horiz-adv-x="106" />
<glyph unicode="&#x2010;" horiz-adv-x="888" d="M94 500v202h701v-202h-701z" />
<glyph unicode="&#x2011;" horiz-adv-x="888" d="M94 500v202h701v-202h-701z" />
<glyph unicode="&#x2012;" horiz-adv-x="888" d="M94 500v202h701v-202h-701z" />
<glyph unicode="&#x2013;" horiz-adv-x="1236" d="M133 463v242h971v-242h-971z" />
<glyph unicode="&#x2014;" horiz-adv-x="1773" d="M102 463v242h1569v-242h-1569z" />
<glyph unicode="&#x2018;" horiz-adv-x="411" d="M82 911v209q0 80 3 116t17.5 79t46 72.5t91.5 66.5l63 -96q-63 -31 -81.5 -63.5t-18.5 -82.5v-45h127v-256h-248z" />
<glyph unicode="&#x2019;" horiz-adv-x="411" d="M82 1198v256h248v-209q0 -80 -3 -115.5t-17.5 -78.5t-46.5 -73t-91 -67l-63 97q63 31 81.5 63.5t18.5 81.5v45h-127z" />
<glyph unicode="&#x201a;" horiz-adv-x="448" d="M100 0v256h248v-209q0 -80 -3 -115.5t-17.5 -78.5t-46 -73t-91.5 -67l-63 97q63 31 81.5 63.5t18.5 81.5v45h-127z" />
<glyph unicode="&#x201c;" horiz-adv-x="763" d="M82 911v209q0 80 3 116t17.5 79t46 72.5t91.5 66.5l63 -96q-63 -31 -81.5 -63.5t-18.5 -82.5v-45h127v-256h-248zM434 911v209q0 80 3 116t17.5 79t46 72.5t91.5 66.5l63 -96q-63 -31 -81.5 -63.5t-18.5 -82.5v-45h127v-256h-248z" />
<glyph unicode="&#x201d;" horiz-adv-x="763" d="M82 1198v256h248v-209q0 -80 -3 -115.5t-17.5 -78.5t-46.5 -73t-91 -67l-63 97q63 31 81.5 63.5t18.5 81.5v45h-127zM434 1198v256h248v-209q0 -80 -3 -115.5t-17.5 -78.5t-46 -73t-91.5 -67l-63 97q63 31 81.5 63.5t18.5 81.5v45h-127z" />
<glyph unicode="&#x201e;" horiz-adv-x="800" d="M100 0v256h248v-209q0 -80 -3 -115.5t-17.5 -78.5t-46 -73t-91.5 -67l-63 97q63 31 81.5 63.5t18.5 81.5v45h-127zM453 0v256h247v-209q0 -80 -3 -115.5t-17 -78.5t-46 -73t-91 -67l-64 97q63 31 82 63.5t19 81.5v45h-127z" />
<glyph unicode="&#x2022;" horiz-adv-x="634" d="M82 590q0 96 68.5 165.5t166.5 69.5q96 0 166 -69.5t70 -165.5t-69.5 -166t-166.5 -70q-98 0 -166.5 70t-68.5 166z" />
<glyph unicode="&#x2026;" horiz-adv-x="1460" d="M102 0v256h246v-256h-246zM606 0v256h246v-256h-246zM1112 0v256h246v-256h-246z" />
<glyph unicode="&#x202f;" horiz-adv-x="382" />
<glyph unicode="&#x2039;" horiz-adv-x="649" d="M55 551v80l375 452l166 -135l-297 -356l297 -356l-166 -138z" />
<glyph unicode="&#x203a;" horiz-adv-x="649" d="M53 236l297 356l-297 356l166 135l375 -452v-80l-375 -453z" />
<glyph unicode="&#x205f;" horiz-adv-x="479" />
<glyph unicode="&#x20ac;" d="M31 510v160h123v125h-123v159h135q66 518 498 519q322 0 456 -254l-172 -111q-96 152 -272 152q-242 0 -285 -306h508l-37 -159h-481v-125h450l-36 -160h-404q43 -315 291 -315q186 0 272 149l174 -115q-145 -248 -460 -247q-129 0 -223.5 39.5t-150.5 114.5t-87 165 t-43 209h-133z" />
<glyph unicode="&#x2122;" horiz-adv-x="1591" d="M-10 1307v147h598v-147h-221v-590h-156v590h-221zM627 717v737h235l164 -528l166 528h238v-737h-154v540l-178 -540h-140l-178 540v-540h-153z" />
<glyph unicode="&#xe000;" horiz-adv-x="1085" d="M0 1085h1085v-1085h-1085v1085z" />
<glyph unicode="&#xfb01;" horiz-adv-x="1101" d="M8 885v198h187q0 213 69.5 301.5t222.5 88.5q53 0 158 -15v-201q-61 12 -104 13q-68 0 -96.5 -42t-28.5 -145h205v-198h-205v-885h-221v885h-187zM729 1212v242h240v-242h-240zM737 0v1083h224v-1083h-224z" />
<glyph unicode="&#xfb02;" horiz-adv-x="1083" d="M8 885v198h187q0 213 69.5 301.5t222.5 88.5q53 0 158 -15v-201q-61 12 -104 13q-68 0 -96.5 -42t-28.5 -145h205v-198h-205v-885h-221v885h-187zM737 0v1454h224v-1454h-224z" />
<glyph unicode="&#xfb03;" horiz-adv-x="1812" d="M1440 1212v242h240v-242h-240zM1448 0v1083h224v-1083h-224zM661 889v194h187q0 213 69.5 301.5t222.5 88.5q53 0 158 -15v-201q-61 12 -104 13q-68 0 -96.5 -42t-28.5 -145h205v-194h-205v-889h-221v889h-187zM8 889v194h187q0 213 69.5 301.5t222.5 88.5q53 0 158 -15 v-201q-61 12 -104 13q-68 0 -96.5 -42t-28.5 -145h205v-194h-205v-889h-221v889h-187z" />
<glyph unicode="&#xfb04;" horiz-adv-x="1796" d="M1440 0v1454h223v-1454h-223zM661 889v194h187q0 213 69.5 301.5t222.5 88.5q53 0 158 -15v-201q-61 12 -104 13q-68 0 -96.5 -42t-28.5 -145h205v-194h-205v-889h-221v889h-187zM8 889v194h187q0 213 69.5 301.5t222.5 88.5q53 0 158 -15v-201q-61 12 -104 13 q-68 0 -96.5 -42t-28.5 -145h205v-194h-205v-889h-221v889h-187z" />
<glyph horiz-adv-x="593" />
</font>
</defs>
</svg>
