<?xml version="1.0" encoding="UTF-8" standalone="no"?>
<!DOCTYPE svg PUBLIC "-//W3C//DTD SVG 1.1//EN"
 "http://www.w3.org/Graphics/SVG/1.1/DTD/svg11.dtd">
<!-- Generated by graphviz version 2.28.0 (20120621.1411)
 -->
<!-- Title: controllers_diagram Pages: 1 -->
<svg width="670pt" height="780pt"
 viewBox="0.00 0.00 669.54 780.20" xmlns="http://www.w3.org/2000/svg" xmlns:xlink="http://www.w3.org/1999/xlink">
<g id="graph1" class="graph" transform="scale(1 1) rotate(0) translate(4 776.2)">
<title>controllers_diagram</title>
<polygon fill="white" stroke="white" points="-4,5 -4,-776.2 666.54,-776.2 666.54,5 -4,5"/>
<!-- _diagram_info -->
<g id="node1" class="node"><title>_diagram_info</title>
<text text-anchor="start" x="280" y="-197" font-family="Times,serif" font-size="13.00">Controllers diagram</text>
<text text-anchor="start" x="280" y="-181.4" font-family="Times,serif" font-size="13.00">Date: Jun 21 2012 &#45; 15:13</text>
<text text-anchor="start" x="280" y="-165.8" font-family="Times,serif" font-size="13.00">Migration version: 20120618113004</text>
<text text-anchor="start" x="280" y="-150.2" font-family="Times,serif" font-size="13.00">Generated by RailRoady 1.0.7</text>
<text text-anchor="start" x="280" y="-134.6" font-family="Times,serif" font-size="13.00">http://railroady.prestonlee.com</text>
</g>
<!-- ApplicationController -->
<g id="node2" class="node"><title>ApplicationController</title>
<polyline fill="none" stroke="black" points="412,-240.5 590.635,-240.5 "/>
<path fill="none" stroke="black" d="M590.635,-240.5C596.635,-240.5 602.635,-246.5 602.635,-252.5"/>
<polyline fill="none" stroke="black" points="602.635,-252.5 602.635,-394.1 "/>
<path fill="none" stroke="black" d="M602.635,-394.1C602.635,-400.1 596.635,-406.1 590.635,-406.1"/>
<polyline fill="none" stroke="black" points="590.635,-406.1 412,-406.1 "/>
<path fill="none" stroke="black" d="M412,-406.1C406,-406.1 400,-400.1 400,-394.1"/>
<polyline fill="none" stroke="black" points="400,-394.1 400,-252.5 "/>
<path fill="none" stroke="black" d="M400,-252.5C400,-246.5 406,-240.5 412,-240.5"/>
<text text-anchor="middle" x="501.317" y="-388.1" font-family="Times,serif" font-size="14.00">ApplicationController</text>
<polyline fill="none" stroke="black" points="400,-381.3 602.635,-381.3 "/>
<text text-anchor="start" x="408" y="-363.3" font-family="Times,serif" font-size="14.00">_one_time_conditions_valid_32?</text>
<text text-anchor="start" x="408" y="-346.5" font-family="Times,serif" font-size="14.00">authenticate_admin_user!</text>
<text text-anchor="start" x="408" y="-329.7" font-family="Times,serif" font-size="14.00">current_admin_user</text>
<text text-anchor="start" x="408" y="-312.9" font-family="Times,serif" font-size="14.00">markdown_preview</text>
<text text-anchor="start" x="408" y="-296.1" font-family="Times,serif" font-size="14.00">not_found</text>
<polyline fill="none" stroke="black" points="400,-289.3 602.635,-289.3 "/>
<polyline fill="none" stroke="black" points="400,-265.3 602.635,-265.3 "/>
<text text-anchor="start" x="408" y="-247.3" font-family="Times,serif" font-size="14.00">_layout</text>
</g>
<!-- Blog::PostsController -->
<g id="node3" class="node"><title>Blog::PostsController</title>
<polyline fill="none" stroke="black" points="412,-432.5 597.635,-432.5 "/>
<path fill="none" stroke="black" d="M597.635,-432.5C603.635,-432.5 609.635,-438.5 609.635,-444.5"/>
<polyline fill="none" stroke="black" points="609.635,-444.5 609.635,-569.3 "/>
<path fill="none" stroke="black" d="M609.635,-569.3C609.635,-575.3 603.635,-581.3 597.635,-581.3"/>
<polyline fill="none" stroke="black" points="597.635,-581.3 412,-581.3 "/>
<path fill="none" stroke="black" d="M412,-581.3C406,-581.3 400,-575.3 400,-569.3"/>
<polyline fill="none" stroke="black" points="400,-569.3 400,-444.5 "/>
<path fill="none" stroke="black" d="M400,-444.5C400,-438.5 406,-432.5 412,-432.5"/>
<text text-anchor="middle" x="504.817" y="-563.3" font-family="Times,serif" font-size="14.00">Blog::PostsController</text>
<polyline fill="none" stroke="black" points="400,-556.5 609.635,-556.5 "/>
<text text-anchor="start" x="408" y="-538.5" font-family="Times,serif" font-size="14.00">_one_time_conditions_valid_520?</text>
<text text-anchor="start" x="408" y="-521.7" font-family="Times,serif" font-size="14.00">index</text>
<text text-anchor="start" x="408" y="-504.9" font-family="Times,serif" font-size="14.00">show</text>
<polyline fill="none" stroke="black" points="400,-498.1 609.635,-498.1 "/>
<polyline fill="none" stroke="black" points="400,-474.1 609.635,-474.1 "/>
<text text-anchor="start" x="408" y="-456.1" font-family="Times,serif" font-size="14.00">_layout</text>
<text text-anchor="start" x="408" y="-439.3" font-family="Times,serif" font-size="14.00">fetch_categories</text>
</g>
<!-- BriefsController -->
<g id="node4" class="node"><title>BriefsController</title>
<polyline fill="none" stroke="black" points="380,-656.5 463.759,-656.5 "/>
<path fill="none" stroke="black" d="M463.759,-656.5C469.759,-656.5 475.759,-662.5 475.759,-668.5"/>
<polyline fill="none" stroke="black" points="475.759,-668.5 475.759,-759.7 "/>
<path fill="none" stroke="black" d="M475.759,-759.7C475.759,-765.7 469.759,-771.7 463.759,-771.7"/>
<polyline fill="none" stroke="black" points="463.759,-771.7 380,-771.7 "/>
<path fill="none" stroke="black" d="M380,-771.7C374,-771.7 368,-765.7 368,-759.7"/>
<polyline fill="none" stroke="black" points="368,-759.7 368,-668.5 "/>
<path fill="none" stroke="black" d="M368,-668.5C368,-662.5 374,-656.5 380,-656.5"/>
<text text-anchor="middle" x="421.879" y="-753.7" font-family="Times,serif" font-size="14.00">BriefsController</text>
<polyline fill="none" stroke="black" points="368,-746.9 475.759,-746.9 "/>
<text text-anchor="start" x="376" y="-728.9" font-family="Times,serif" font-size="14.00">join</text>
<text text-anchor="start" x="376" y="-712.1" font-family="Times,serif" font-size="14.00">show</text>
<polyline fill="none" stroke="black" points="368,-705.3 475.759,-705.3 "/>
<polyline fill="none" stroke="black" points="368,-681.3 475.759,-681.3 "/>
<text text-anchor="start" x="376" y="-663.3" font-family="Times,serif" font-size="14.00">_layout</text>
</g>
<!-- ColophonController -->
<g id="node5" class="node"><title>ColophonController</title>
<polyline fill="none" stroke="black" points="524,-608.5 628.772,-608.5 "/>
<path fill="none" stroke="black" d="M628.772,-608.5C634.772,-608.5 640.772,-614.5 640.772,-620.5"/>
<polyline fill="none" stroke="black" points="640.772,-620.5 640.772,-728.5 "/>
<path fill="none" stroke="black" d="M640.772,-728.5C640.772,-734.5 634.772,-740.5 628.772,-740.5"/>
<polyline fill="none" stroke="black" points="628.772,-740.5 524,-740.5 "/>
<path fill="none" stroke="black" d="M524,-740.5C518,-740.5 512,-734.5 512,-728.5"/>
<polyline fill="none" stroke="black" points="512,-728.5 512,-620.5 "/>
<path fill="none" stroke="black" d="M512,-620.5C512,-614.5 518,-608.5 524,-608.5"/>
<text text-anchor="middle" x="576.386" y="-722.5" font-family="Times,serif" font-size="14.00">ColophonController</text>
<polyline fill="none" stroke="black" points="512,-715.7 640.772,-715.7 "/>
<text text-anchor="start" x="520" y="-697.7" font-family="Times,serif" font-size="14.00">about</text>
<text text-anchor="start" x="520" y="-680.9" font-family="Times,serif" font-size="14.00">community</text>
<text text-anchor="start" x="520" y="-664.1" font-family="Times,serif" font-size="14.00">how</text>
<polyline fill="none" stroke="black" points="512,-657.3 640.772,-657.3 "/>
<polyline fill="none" stroke="black" points="512,-633.3 640.772,-633.3 "/>
<text text-anchor="start" x="520" y="-615.3" font-family="Times,serif" font-size="14.00">_layout</text>
</g>
<!-- ErrorsController -->
<g id="node6" class="node"><title>ErrorsController</title>
<polyline fill="none" stroke="black" points="284,-0.5 368.531,-0.5 "/>
<path fill="none" stroke="black" d="M368.531,-0.5C374.531,-0.5 380.531,-6.5 380.531,-12.5"/>
<polyline fill="none" stroke="black" points="380.531,-12.5 380.531,-86.9 "/>
<path fill="none" stroke="black" d="M380.531,-86.9C380.531,-92.9 374.531,-98.9 368.531,-98.9"/>
<polyline fill="none" stroke="black" points="368.531,-98.9 284,-98.9 "/>
<path fill="none" stroke="black" d="M284,-98.9C278,-98.9 272,-92.9 272,-86.9"/>
<polyline fill="none" stroke="black" points="272,-86.9 272,-12.5 "/>
<path fill="none" stroke="black" d="M272,-12.5C272,-6.5 278,-0.5 284,-0.5"/>
<text text-anchor="middle" x="326.266" y="-80.9" font-family="Times,serif" font-size="14.00">ErrorsController</text>
<polyline fill="none" stroke="black" points="272,-74.1 380.531,-74.1 "/>
<text text-anchor="start" x="280" y="-56.1" font-family="Times,serif" font-size="14.00">routing</text>
<polyline fill="none" stroke="black" points="272,-49.3 380.531,-49.3 "/>
<polyline fill="none" stroke="black" points="272,-25.3 380.531,-25.3 "/>
<text text-anchor="start" x="280" y="-7.3" font-family="Times,serif" font-size="14.00">_layout</text>
</g>
<!-- FriendsController -->
<g id="node7" class="node"><title>FriendsController</title>
<polyline fill="none" stroke="black" points="28,-368.5 119.545,-368.5 "/>
<path fill="none" stroke="black" d="M119.545,-368.5C125.545,-368.5 131.545,-374.5 131.545,-380.5"/>
<polyline fill="none" stroke="black" points="131.545,-380.5 131.545,-454.9 "/>
<path fill="none" stroke="black" d="M131.545,-454.9C131.545,-460.9 125.545,-466.9 119.545,-466.9"/>
<polyline fill="none" stroke="black" points="119.545,-466.9 28,-466.9 "/>
<path fill="none" stroke="black" d="M28,-466.9C22,-466.9 16,-460.9 16,-454.9"/>
<polyline fill="none" stroke="black" points="16,-454.9 16,-380.5 "/>
<path fill="none" stroke="black" d="M16,-380.5C16,-374.5 22,-368.5 28,-368.5"/>
<text text-anchor="middle" x="73.7725" y="-448.9" font-family="Times,serif" font-size="14.00">FriendsController</text>
<polyline fill="none" stroke="black" points="16,-442.1 131.545,-442.1 "/>
<text text-anchor="start" x="24" y="-424.1" font-family="Times,serif" font-size="14.00">index</text>
<polyline fill="none" stroke="black" points="16,-417.3 131.545,-417.3 "/>
<polyline fill="none" stroke="black" points="16,-393.3 131.545,-393.3 "/>
<text text-anchor="start" x="24" y="-375.3" font-family="Times,serif" font-size="14.00">_layout</text>
</g>
<!-- GigsController -->
<g id="node8" class="node"><title>GigsController</title>
<polyline fill="none" stroke="black" points="172,-240.5 357.635,-240.5 "/>
<path fill="none" stroke="black" d="M357.635,-240.5C363.635,-240.5 369.635,-246.5 369.635,-252.5"/>
<polyline fill="none" stroke="black" points="369.635,-252.5 369.635,-461.3 "/>
<path fill="none" stroke="black" d="M369.635,-461.3C369.635,-467.3 363.635,-473.3 357.635,-473.3"/>
<polyline fill="none" stroke="black" points="357.635,-473.3 172,-473.3 "/>
<path fill="none" stroke="black" d="M172,-473.3C166,-473.3 160,-467.3 160,-461.3"/>
<polyline fill="none" stroke="black" points="160,-461.3 160,-252.5 "/>
<path fill="none" stroke="black" d="M160,-252.5C160,-246.5 166,-240.5 172,-240.5"/>
<text text-anchor="middle" x="264.817" y="-455.3" font-family="Times,serif" font-size="14.00">GigsController</text>
<polyline fill="none" stroke="black" points="160,-448.5 369.635,-448.5 "/>
<text text-anchor="start" x="168" y="-430.5" font-family="Times,serif" font-size="14.00">_one_time_conditions_valid_522?</text>
<text text-anchor="start" x="168" y="-413.7" font-family="Times,serif" font-size="14.00">_one_time_conditions_valid_524?</text>
<text text-anchor="start" x="168" y="-396.9" font-family="Times,serif" font-size="14.00">_one_time_conditions_valid_528?</text>
<text text-anchor="start" x="168" y="-380.1" font-family="Times,serif" font-size="14.00">attend</text>
<text text-anchor="start" x="168" y="-363.3" font-family="Times,serif" font-size="14.00">attending</text>
<text text-anchor="start" x="168" y="-346.5" font-family="Times,serif" font-size="14.00">index</text>
<text text-anchor="start" x="168" y="-329.7" font-family="Times,serif" font-size="14.00">show</text>
<polyline fill="none" stroke="black" points="160,-322.9 369.635,-322.9 "/>
<polyline fill="none" stroke="black" points="160,-298.9 369.635,-298.9 "/>
<text text-anchor="start" x="168" y="-280.9" font-family="Times,serif" font-size="14.00">_layout</text>
<text text-anchor="start" x="168" y="-264.1" font-family="Times,serif" font-size="14.00">fetch_chapters</text>
<text text-anchor="start" x="168" y="-247.3" font-family="Times,serif" font-size="14.00">fetch_gig</text>
</g>
<!-- HomeController -->
<g id="node9" class="node"><title>HomeController</title>
<polyline fill="none" stroke="black" points="236,-656.5 319.759,-656.5 "/>
<path fill="none" stroke="black" d="M319.759,-656.5C325.759,-656.5 331.759,-662.5 331.759,-668.5"/>
<polyline fill="none" stroke="black" points="331.759,-668.5 331.759,-742.9 "/>
<path fill="none" stroke="black" d="M331.759,-742.9C331.759,-748.9 325.759,-754.9 319.759,-754.9"/>
<polyline fill="none" stroke="black" points="319.759,-754.9 236,-754.9 "/>
<path fill="none" stroke="black" d="M236,-754.9C230,-754.9 224,-748.9 224,-742.9"/>
<polyline fill="none" stroke="black" points="224,-742.9 224,-668.5 "/>
<path fill="none" stroke="black" d="M224,-668.5C224,-662.5 230,-656.5 236,-656.5"/>
<text text-anchor="middle" x="277.879" y="-736.9" font-family="Times,serif" font-size="14.00">HomeController</text>
<polyline fill="none" stroke="black" points="224,-730.1 331.759,-730.1 "/>
<text text-anchor="start" x="232" y="-712.1" font-family="Times,serif" font-size="14.00">index</text>
<polyline fill="none" stroke="black" points="224,-705.3 331.759,-705.3 "/>
<polyline fill="none" stroke="black" points="224,-681.3 331.759,-681.3 "/>
<text text-anchor="start" x="232" y="-663.3" font-family="Times,serif" font-size="14.00">_layout</text>
</g>
<!-- Library::BookmarksController -->
<g id="node10" class="node"><title>Library::BookmarksController</title>
<polyline fill="none" stroke="black" points="188,-512.5 351.855,-512.5 "/>
<path fill="none" stroke="black" d="M351.855,-512.5C357.855,-512.5 363.855,-518.5 363.855,-524.5"/>
<polyline fill="none" stroke="black" points="363.855,-524.5 363.855,-615.7 "/>
<path fill="none" stroke="black" d="M363.855,-615.7C363.855,-621.7 357.855,-627.7 351.855,-627.7"/>
<polyline fill="none" stroke="black" points="351.855,-627.7 188,-627.7 "/>
<path fill="none" stroke="black" d="M188,-627.7C182,-627.7 176,-621.7 176,-615.7"/>
<polyline fill="none" stroke="black" points="176,-615.7 176,-524.5 "/>
<path fill="none" stroke="black" d="M176,-524.5C176,-518.5 182,-512.5 188,-512.5"/>
<text text-anchor="middle" x="269.928" y="-609.7" font-family="Times,serif" font-size="14.00">Library::BookmarksController</text>
<polyline fill="none" stroke="black" points="176,-602.9 363.855,-602.9 "/>
<text text-anchor="start" x="184" y="-584.9" font-family="Times,serif" font-size="14.00">index</text>
<text text-anchor="start" x="184" y="-568.1" font-family="Times,serif" font-size="14.00">search</text>
<polyline fill="none" stroke="black" points="176,-561.3 363.855,-561.3 "/>
<polyline fill="none" stroke="black" points="176,-537.3 363.855,-537.3 "/>
<text text-anchor="start" x="184" y="-519.3" font-family="Times,serif" font-size="14.00">_layout</text>
</g>
<!-- Library::TagsController -->
<g id="node11" class="node"><title>Library::TagsController</title>
<polyline fill="none" stroke="black" points="524,-112.5 649.54,-112.5 "/>
<path fill="none" stroke="black" d="M649.54,-112.5C655.54,-112.5 661.54,-118.5 661.54,-124.5"/>
<polyline fill="none" stroke="black" points="661.54,-124.5 661.54,-198.9 "/>
<path fill="none" stroke="black" d="M661.54,-198.9C661.54,-204.9 655.54,-210.9 649.54,-210.9"/>
<polyline fill="none" stroke="black" points="649.54,-210.9 524,-210.9 "/>
<path fill="none" stroke="black" d="M524,-210.9C518,-210.9 512,-204.9 512,-198.9"/>
<polyline fill="none" stroke="black" points="512,-198.9 512,-124.5 "/>
<path fill="none" stroke="black" d="M512,-124.5C512,-118.5 518,-112.5 524,-112.5"/>
<text text-anchor="middle" x="586.77" y="-192.9" font-family="Times,serif" font-size="14.00">Library::TagsController</text>
<polyline fill="none" stroke="black" points="512,-186.1 661.54,-186.1 "/>
<text text-anchor="start" x="520" y="-168.1" font-family="Times,serif" font-size="14.00">show</text>
<polyline fill="none" stroke="black" points="512,-161.3 661.54,-161.3 "/>
<polyline fill="none" stroke="black" points="512,-137.3 661.54,-137.3 "/>
<text text-anchor="start" x="520" y="-119.3" font-family="Times,serif" font-size="14.00">_layout</text>
</g>
<!-- MembersController -->
<g id="node12" class="node"><title>MembersController</title>
<polyline fill="none" stroke="black" points="28,-624.5 130.421,-624.5 "/>
<path fill="none" stroke="black" d="M130.421,-624.5C136.421,-624.5 142.421,-630.5 142.421,-636.5"/>
<polyline fill="none" stroke="black" points="142.421,-636.5 142.421,-727.7 "/>
<path fill="none" stroke="black" d="M142.421,-727.7C142.421,-733.7 136.421,-739.7 130.421,-739.7"/>
<polyline fill="none" stroke="black" points="130.421,-739.7 28,-739.7 "/>
<path fill="none" stroke="black" d="M28,-739.7C22,-739.7 16,-733.7 16,-727.7"/>
<polyline fill="none" stroke="black" points="16,-727.7 16,-636.5 "/>
<path fill="none" stroke="black" d="M16,-636.5C16,-630.5 22,-624.5 28,-624.5"/>
<text text-anchor="middle" x="79.2104" y="-721.7" font-family="Times,serif" font-size="14.00">MembersController</text>
<polyline fill="none" stroke="black" points="16,-714.9 142.421,-714.9 "/>
<text text-anchor="start" x="24" y="-696.9" font-family="Times,serif" font-size="14.00">index</text>
<text text-anchor="start" x="24" y="-680.1" font-family="Times,serif" font-size="14.00">show</text>
<polyline fill="none" stroke="black" points="16,-673.3 142.421,-673.3 "/>
<polyline fill="none" stroke="black" points="16,-649.3 142.421,-649.3 "/>
<text text-anchor="start" x="24" y="-631.3" font-family="Times,serif" font-size="14.00">_layout</text>
</g>
<!-- PartnersController -->
<g id="node13" class="node"><title>PartnersController</title>
<polyline fill="none" stroke="black" points="28,-240.5 123.421,-240.5 "/>
<path fill="none" stroke="black" d="M123.421,-240.5C129.421,-240.5 135.421,-246.5 135.421,-252.5"/>
<polyline fill="none" stroke="black" points="135.421,-252.5 135.421,-326.9 "/>
<path fill="none" stroke="black" d="M135.421,-326.9C135.421,-332.9 129.421,-338.9 123.421,-338.9"/>
<polyline fill="none" stroke="black" points="123.421,-338.9 28,-338.9 "/>
<path fill="none" stroke="black" d="M28,-338.9C22,-338.9 16,-332.9 16,-326.9"/>
<polyline fill="none" stroke="black" points="16,-326.9 16,-252.5 "/>
<path fill="none" stroke="black" d="M16,-252.5C16,-246.5 22,-240.5 28,-240.5"/>
<text text-anchor="middle" x="75.7104" y="-320.9" font-family="Times,serif" font-size="14.00">PartnersController</text>
<polyline fill="none" stroke="black" points="16,-314.1 135.421,-314.1 "/>
<text text-anchor="start" x="24" y="-296.1" font-family="Times,serif" font-size="14.00">index</text>
<polyline fill="none" stroke="black" points="16,-289.3 135.421,-289.3 "/>
<polyline fill="none" stroke="black" points="16,-265.3 135.421,-265.3 "/>
<text text-anchor="start" x="24" y="-247.3" font-family="Times,serif" font-size="14.00">_layout</text>
</g>
<!-- RegistrationsController -->
<g id="node14" class="node"><title>RegistrationsController</title>
<polyline fill="none" stroke="black" points="28,-112.5 151.428,-112.5 "/>
<path fill="none" stroke="black" d="M151.428,-112.5C157.428,-112.5 163.428,-118.5 163.428,-124.5"/>
<polyline fill="none" stroke="black" points="163.428,-124.5 163.428,-198.9 "/>
<path fill="none" stroke="black" d="M163.428,-198.9C163.428,-204.9 157.428,-210.9 151.428,-210.9"/>
<polyline fill="none" stroke="black" points="151.428,-210.9 28,-210.9 "/>
<path fill="none" stroke="black" d="M28,-210.9C22,-210.9 16,-204.9 16,-198.9"/>
<polyline fill="none" stroke="black" points="16,-198.9 16,-124.5 "/>
<path fill="none" stroke="black" d="M16,-124.5C16,-118.5 22,-112.5 28,-112.5"/>
<text text-anchor="middle" x="89.7139" y="-192.9" font-family="Times,serif" font-size="14.00">RegistrationsController</text>
<polyline fill="none" stroke="black" points="16,-186.1 163.428,-186.1 "/>
<text text-anchor="start" x="24" y="-168.1" font-family="Times,serif" font-size="14.00">update</text>
<polyline fill="none" stroke="black" points="16,-161.3 163.428,-161.3 "/>
<polyline fill="none" stroke="black" points="16,-137.3 163.428,-137.3 "/>
<text text-anchor="start" x="24" y="-119.3" font-family="Times,serif" font-size="14.00">_layout</text>
</g>
<!-- VenturesController -->
<g id="node15" class="node"><title>VenturesController</title>
<polyline fill="none" stroke="black" points="12,-496.5 110.531,-496.5 "/>
<path fill="none" stroke="black" d="M110.531,-496.5C116.531,-496.5 122.531,-502.5 122.531,-508.5"/>
<polyline fill="none" stroke="black" points="122.531,-508.5 122.531,-582.9 "/>
<path fill="none" stroke="black" d="M122.531,-582.9C122.531,-588.9 116.531,-594.9 110.531,-594.9"/>
<polyline fill="none" stroke="black" points="110.531,-594.9 12,-594.9 "/>
<path fill="none" stroke="black" d="M12,-594.9C6,-594.9 0,-588.9 0,-582.9"/>
<polyline fill="none" stroke="black" points="0,-582.9 0,-508.5 "/>
<path fill="none" stroke="black" d="M0,-508.5C0,-502.5 6,-496.5 12,-496.5"/>
<text text-anchor="middle" x="61.2656" y="-576.9" font-family="Times,serif" font-size="14.00">VenturesController</text>
<polyline fill="none" stroke="black" points="0,-570.1 122.531,-570.1 "/>
<text text-anchor="start" x="8" y="-552.1" font-family="Times,serif" font-size="14.00">index</text>
<polyline fill="none" stroke="black" points="0,-545.3 122.531,-545.3 "/>
<polyline fill="none" stroke="black" points="0,-521.3 122.531,-521.3 "/>
<text text-anchor="start" x="8" y="-503.3" font-family="Times,serif" font-size="14.00">_layout</text>
</g>
</g>
</svg>
