<?xml version="1.0" encoding="UTF-8" standalone="no"?>
<!DOCTYPE svg PUBLIC "-//W3C//DTD SVG 1.1//EN"
 "http://www.w3.org/Graphics/SVG/1.1/DTD/svg11.dtd">
<!-- Generated by graphviz version 2.28.0 (20120621.1411)
 -->
<!-- Title: models_diagram Pages: 1 -->
<svg width="776pt" height="422pt"
 viewBox="0.00 0.00 776.00 422.00" xmlns="http://www.w3.org/2000/svg" xmlns:xlink="http://www.w3.org/1999/xlink">
<g id="graph1" class="graph" transform="scale(1 1) rotate(0) translate(4 418)">
<title>models_diagram</title>
<polygon fill="white" stroke="white" points="-4,5 -4,-418 773,-418 773,5 -4,5"/>
<!-- _diagram_info -->
<g id="node1" class="node"><title>_diagram_info</title>
<text text-anchor="start" x="7.55029" y="-397" font-family="Times,serif" font-size="13.00">Models diagram</text>
<text text-anchor="start" x="7.55029" y="-381.4" font-family="Times,serif" font-size="13.00">Date: Jun 21 2012 &#45; 15:13</text>
<text text-anchor="start" x="7.55029" y="-365.8" font-family="Times,serif" font-size="13.00">Migration version: 20120618113004</text>
<text text-anchor="start" x="7.55029" y="-350.2" font-family="Times,serif" font-size="13.00">Generated by RailRoady 1.0.7</text>
<text text-anchor="start" x="7.55029" y="-334.6" font-family="Times,serif" font-size="13.00">http://railroady.prestonlee.com</text>
</g>
<!-- Blog::Category -->
<g id="node2" class="node"><title>Blog::Category</title>
<ellipse fill="none" stroke="black" cx="308" cy="-108" rx="70.3718" ry="18"/>
<text text-anchor="middle" x="308" y="-102.4" font-family="Times,serif" font-size="14.00">Blog::Category</text>
</g>
<!-- Blog::Post -->
<g id="node3" class="node"><title>Blog::Post</title>
<ellipse fill="none" stroke="black" cx="305" cy="-18" rx="51.2378" ry="18"/>
<text text-anchor="middle" x="305" y="-12.4" font-family="Times,serif" font-size="14.00">Blog::Post</text>
</g>
<!-- Blog::Category&#45;&gt;Blog::Post -->
<g id="edge2" class="edge"><title>Blog::Category&#45;&gt;Blog::Post</title>
<path fill="none" stroke="#ab97e4" d="M307.129,-81.4625C306.752,-70.3968 306.31,-57.4281 305.927,-46.184"/>
<ellipse fill="none" stroke="#ab97e4" cx="307.271" cy="-85.6164" rx="4" ry="4"/>
<polygon fill="#ab97e4" stroke="#ab97e4" points="305.922,-46.0446 310.079,-35.8971 305.752,-41.0475 305.581,-36.0504 305.581,-36.0504 305.581,-36.0504 305.752,-41.0475 301.084,-36.2038 305.922,-46.0446 305.922,-46.0446"/>
</g>
<!-- Brief -->
<g id="node4" class="node"><title>Brief</title>
<ellipse fill="none" stroke="black" cx="325" cy="-182" rx="30.32" ry="18"/>
<text text-anchor="middle" x="325" y="-176.4" font-family="Times,serif" font-size="14.00">Brief</text>
</g>
<!-- Chapter -->
<g id="node5" class="node"><title>Chapter</title>
<ellipse fill="none" stroke="black" cx="266" cy="-371" rx="41.4082" ry="18"/>
<text text-anchor="middle" x="266" y="-365.4" font-family="Times,serif" font-size="14.00">Chapter</text>
</g>
<!-- Chapter&#45;&gt;Blog::Post -->
<g id="edge6" class="edge"><title>Chapter&#45;&gt;Blog::Post</title>
<path fill="none" stroke="#6c210b" d="M243.784,-347.818C227.782,-329.417 209,-301.704 209,-273 209,-273 209,-273 209,-107 209,-75.1458 238.077,-51.6998 264.225,-37.0551"/>
<ellipse fill="none" stroke="#6c210b" cx="246.832" cy="-351.192" rx="4.00002" ry="4.00002"/>
<polygon fill="#6c210b" stroke="#6c210b" points="264.465,-36.9279 275.408,-36.2184 268.883,-34.5854 273.3,-32.2428 273.3,-32.2428 273.3,-32.2428 268.883,-34.5854 271.192,-28.2672 264.465,-36.9279 264.465,-36.9279"/>
<text text-anchor="middle" x="223.393" y="-176.4" font-family="Times,serif" font-size="14.00">posts</text>
</g>
<!-- Gig -->
<g id="node7" class="node"><title>Gig</title>
<ellipse fill="none" stroke="black" cx="439" cy="-272" rx="27" ry="18"/>
<text text-anchor="middle" x="439" y="-266.4" font-family="Times,serif" font-size="14.00">Gig</text>
</g>
<!-- Chapter&#45;&gt;Gig -->
<g id="edge4" class="edge"><title>Chapter&#45;&gt;Gig</title>
<path fill="none" stroke="#0240ee" d="M297.636,-352.262C329.698,-334.285 378.885,-306.706 409.977,-289.273"/>
<ellipse fill="none" stroke="#0240ee" cx="293.909" cy="-354.352" rx="4.00002" ry="4.00002"/>
<polygon fill="#0240ee" stroke="#0240ee" points="410.283,-289.101 421.206,-288.136 414.644,-286.656 419.006,-284.211 419.006,-284.211 419.006,-284.211 414.644,-286.656 416.805,-280.286 410.283,-289.101 410.283,-289.101"/>
</g>
<!-- User -->
<g id="node14" class="node"><title>User</title>
<ellipse fill="none" stroke="black" cx="429" cy="-108" rx="28.9087" ry="18"/>
<text text-anchor="middle" x="429" y="-102.4" font-family="Times,serif" font-size="14.00">User</text>
</g>
<!-- Chapter&#45;&gt;User -->
<g id="edge8" class="edge"><title>Chapter&#45;&gt;User</title>
<path fill="none" stroke="#f5b896" d="M260.516,-344.871C252.873,-302.773 244.166,-217.373 285,-164 314.395,-125.578 341.907,-143.522 387,-126 389.912,-124.868 392.932,-123.679 395.955,-122.476"/>
<ellipse fill="none" stroke="#f5b896" cx="261.31" cy="-349.002" rx="4.00001" ry="4.00001"/>
<polygon fill="#f5b896" stroke="#f5b896" points="396.219,-122.371 407.175,-122.823 400.859,-120.509 405.5,-118.647 405.5,-118.647 405.5,-118.647 400.859,-120.509 403.824,-114.471 396.219,-122.371 396.219,-122.371"/>
</g>
<!-- Friend -->
<g id="node6" class="node"><title>Friend</title>
<ellipse fill="none" stroke="black" cx="400" cy="-371" rx="36.3747" ry="18"/>
<text text-anchor="middle" x="400" y="-365.4" font-family="Times,serif" font-size="14.00">Friend</text>
</g>
<!-- Friend&#45;&gt;Gig -->
<g id="edge10" class="edge"><title>Friend&#45;&gt;Gig</title>
<path fill="none" stroke="#8c73a6" d="M410.607,-343.618C416.168,-329.786 422.957,-312.901 428.502,-299.11"/>
<polygon fill="#8c73a6" stroke="#8c73a6" points="410.524,-343.826 402.618,-351.425 408.659,-348.465 406.793,-353.104 406.793,-353.104 406.793,-353.104 408.659,-348.465 410.968,-354.783 410.524,-343.826 410.524,-343.826"/>
<polygon fill="#8c73a6" stroke="#8c73a6" points="428.554,-298.981 436.46,-291.381 430.419,-294.342 432.285,-289.702 432.285,-289.702 432.285,-289.702 430.419,-294.342 428.109,-288.024 428.554,-298.981 428.554,-298.981"/>
</g>
<!-- Gig&#45;&gt;Brief -->
<g id="edge12" class="edge"><title>Gig&#45;&gt;Brief</title>
<path fill="none" stroke="#d742c9" d="M409.235,-257.968C397.395,-252.099 384,-244.559 373,-236 362.131,-227.543 351.668,-216.463 343.3,-206.621"/>
<ellipse fill="none" stroke="#d742c9" cx="413.145" cy="-259.846" rx="4.00002" ry="4.00002"/>
<polygon fill="#d742c9" stroke="#d742c9" points="343.159,-206.449 340.275,-195.869 339.98,-202.589 336.801,-198.73 336.801,-198.73 336.801,-198.73 339.98,-202.589 333.328,-201.59 343.159,-206.449 343.159,-206.449"/>
</g>
<!-- Library::Bookmark -->
<g id="node8" class="node"><title>Library::Bookmark</title>
<ellipse fill="none" stroke="black" cx="570" cy="-182" rx="86.1917" ry="18"/>
<text text-anchor="middle" x="570" y="-176.4" font-family="Times,serif" font-size="14.00">Library::Bookmark</text>
</g>
<!-- Gig&#45;&gt;Library::Bookmark -->
<g id="edge18" class="edge"><title>Gig&#45;&gt;Library::Bookmark</title>
<path fill="none" stroke="#30fbc1" d="M473.421,-261.239C489.978,-255.522 509.538,-247.195 525,-236 535.435,-228.444 544.992,-217.976 552.588,-208.337"/>
<polygon fill="#30fbc1" stroke="#30fbc1" points="473.067,-261.355 462.163,-260.187 468.315,-262.909 463.562,-264.464 463.562,-264.464 463.562,-264.464 468.315,-262.909 464.962,-268.741 473.067,-261.355 473.067,-261.355"/>
<polygon fill="#30fbc1" stroke="#30fbc1" points="552.718,-208.164 562.327,-202.88 555.724,-204.169 558.731,-200.174 558.731,-200.174 558.731,-200.174 555.724,-204.169 555.136,-197.468 552.718,-208.164 552.718,-208.164"/>
<text text-anchor="middle" x="574.107" y="-221.4" font-family="Times,serif" font-size="14.00">bookmarks</text>
</g>
<!-- Slot -->
<g id="node13" class="node"><title>Slot</title>
<ellipse fill="none" stroke="black" cx="439" cy="-182" rx="27" ry="18"/>
<text text-anchor="middle" x="439" y="-176.4" font-family="Times,serif" font-size="14.00">Slot</text>
</g>
<!-- Gig&#45;&gt;Slot -->
<g id="edge14" class="edge"><title>Gig&#45;&gt;Slot</title>
<path fill="none" stroke="#548910" d="M439,-245.462C439,-234.397 439,-221.428 439,-210.184"/>
<ellipse fill="none" stroke="#548910" cx="439" cy="-249.614" rx="4" ry="4"/>
<polygon fill="#548910" stroke="#548910" points="439,-210.05 443.5,-200.05 439,-205.05 439,-200.05 439,-200.05 439,-200.05 439,-205.05 434.5,-200.05 439,-210.05 439,-210.05"/>
</g>
<!-- Gig&#45;&gt;User -->
<g id="edge16" class="edge"><title>Gig&#45;&gt;User</title>
<path fill="none" stroke="#3463c4" d="M422.864,-246.325C415.212,-233.156 406.904,-216.333 403,-200 399.28,-184.438 399.496,-179.612 403,-164 405.3,-153.751 409.738,-143.164 414.304,-134.049"/>
<polygon fill="#3463c4" stroke="#3463c4" points="423.065,-246.657 424.399,-257.541 425.657,-250.933 428.248,-255.209 428.248,-255.209 428.248,-255.209 425.657,-250.933 432.096,-252.877 423.065,-246.657 423.065,-246.657"/>
<polygon fill="#3463c4" stroke="#3463c4" points="414.335,-133.991 423,-127.27 416.68,-129.575 419.025,-125.159 419.025,-125.159 419.025,-125.159 416.68,-129.575 415.051,-123.048 414.335,-133.991 414.335,-133.991"/>
</g>
<!-- Library::Bookmark&#45;&gt;Gig -->
<g id="edge22" class="edge"><title>Library::Bookmark&#45;&gt;Gig</title>
<path fill="none" stroke="#4f1be4" d="M523.952,-202.843C514.973,-207.382 505.821,-212.505 497.662,-218 484.287,-227.007 470.833,-238.91 460.19,-249.153"/>
<polygon fill="#4f1be4" stroke="#4f1be4" points="524.21,-202.717 535.171,-202.377 528.704,-200.525 533.198,-198.333 533.198,-198.333 533.198,-198.333 528.704,-200.525 531.225,-194.288 524.21,-202.717 524.21,-202.717"/>
<polygon fill="#4f1be4" stroke="#4f1be4" points="460.104,-249.237 449.821,-253.046 456.541,-252.745 452.978,-256.253 452.978,-256.253 452.978,-256.253 456.541,-252.745 456.135,-259.46 460.104,-249.237 460.104,-249.237"/>
<text text-anchor="middle" x="508.669" y="-221.4" font-family="Times,serif" font-size="14.00">gigs</text>
</g>
<!-- Library::Tag -->
<g id="node9" class="node"><title>Library::Tag</title>
<ellipse fill="none" stroke="black" cx="709" cy="-108" rx="59.5472" ry="18"/>
<text text-anchor="middle" x="709" y="-102.4" font-family="Times,serif" font-size="14.00">Library::Tag</text>
</g>
<!-- Library::Bookmark&#45;&gt;Library::Tag -->
<g id="edge20" class="edge"><title>Library::Bookmark&#45;&gt;Library::Tag</title>
<path fill="none" stroke="#dfd086" d="M609.803,-160.383C629.09,-150.392 652.134,-138.456 671.155,-128.603"/>
<polygon fill="#dfd086" stroke="#dfd086" points="609.728,-160.421 598.779,-161.025 605.288,-162.721 600.849,-165.021 600.849,-165.021 600.849,-165.021 605.288,-162.721 602.918,-169.017 609.728,-160.421 609.728,-160.421"/>
<polygon fill="#dfd086" stroke="#dfd086" points="671.256,-128.551 682.206,-127.947 675.696,-126.251 680.136,-123.951 680.136,-123.951 680.136,-123.951 675.696,-126.251 678.066,-119.955 671.256,-128.551 671.256,-128.551"/>
</g>
<!-- NingProfile -->
<g id="node10" class="node"><title>NingProfile</title>
<ellipse fill="none" stroke="black" cx="431" cy="-18" rx="56.1582" ry="18"/>
<text text-anchor="middle" x="431" y="-12.4" font-family="Times,serif" font-size="14.00">NingProfile</text>
</g>
<!-- Partner -->
<g id="node11" class="node"><title>Partner</title>
<ellipse fill="none" stroke="black" cx="493" cy="-371" rx="38.3853" ry="18"/>
<text text-anchor="middle" x="493" y="-365.4" font-family="Times,serif" font-size="14.00">Partner</text>
</g>
<!-- Partner&#45;&gt;Gig -->
<g id="edge24" class="edge"><title>Partner&#45;&gt;Gig</title>
<path fill="none" stroke="#a31714" d="M479.586,-345.904C471.486,-331.354 461.179,-312.841 452.98,-298.111"/>
<ellipse fill="none" stroke="#a31714" cx="481.648" cy="-349.609" rx="4.00002" ry="4.00002"/>
<polygon fill="#a31714" stroke="#a31714" points="452.804,-297.796 451.872,-286.87 450.372,-293.427 447.94,-289.058 447.94,-289.058 447.94,-289.058 450.372,-293.427 444.008,-291.247 452.804,-297.796 452.804,-297.796"/>
</g>
<!-- Skill -->
<g id="node12" class="node"><title>Skill</title>
<ellipse fill="none" stroke="black" cx="631" cy="-371" rx="28.9297" ry="18"/>
<text text-anchor="middle" x="631" y="-365.4" font-family="Times,serif" font-size="14.00">Skill</text>
</g>
<!-- Skill&#45;&gt;Gig -->
<g id="edge28" class="edge"><title>Skill&#45;&gt;Gig</title>
<path fill="none" stroke="#3c78e5" d="M599.569,-354.121C563.519,-335.908 504.824,-306.255 469.269,-288.292"/>
<polygon fill="#3c78e5" stroke="#3c78e5" points="600.05,-354.364 606.946,-362.889 604.512,-356.618 608.975,-358.873 608.975,-358.873 608.975,-358.873 604.512,-356.618 611.004,-354.856 600.05,-354.364 600.05,-354.364"/>
<polygon fill="#3c78e5" stroke="#3c78e5" points="468.818,-288.065 461.922,-279.539 464.356,-285.81 459.893,-283.555 459.893,-283.555 459.893,-283.555 464.356,-285.81 457.864,-287.572 468.818,-288.065 468.818,-288.065"/>
</g>
<!-- Skill&#45;&gt;User -->
<g id="edge26" class="edge"><title>Skill&#45;&gt;User</title>
<path fill="none" stroke="#9e54c7" d="M645.966,-345.279C669.253,-303.267 707.321,-217.318 665,-164 640.831,-133.551 528.566,-118.402 467.995,-112.33"/>
<polygon fill="#9e54c7" stroke="#9e54c7" points="645.932,-345.339 637.068,-351.795 643.454,-349.681 640.977,-354.024 640.977,-354.024 640.977,-354.024 643.454,-349.681 644.885,-356.254 645.932,-345.339 645.932,-345.339"/>
<polygon fill="#9e54c7" stroke="#9e54c7" points="467.982,-112.329 458.462,-106.887 463.006,-111.848 458.029,-111.367 458.029,-111.367 458.029,-111.367 463.006,-111.848 457.596,-115.846 467.982,-112.329 467.982,-112.329"/>
</g>
<!-- Slot&#45;&gt;User -->
<g id="edge30" class="edge"><title>Slot&#45;&gt;User</title>
<path fill="none" stroke="#fb0a74" d="M435.252,-154.017C434.451,-148.249 433.604,-142.151 432.801,-136.369"/>
<polygon fill="#fb0a74" stroke="#fb0a74" points="435.254,-154.032 432.173,-164.556 435.942,-158.985 436.63,-163.937 436.63,-163.937 436.63,-163.937 435.942,-158.985 441.087,-163.318 435.254,-154.032 435.254,-154.032"/>
<polygon fill="#fb0a74" stroke="#fb0a74" points="432.798,-136.346 435.88,-125.822 432.11,-131.393 431.422,-126.441 431.422,-126.441 431.422,-126.441 432.11,-131.393 426.965,-127.06 432.798,-136.346 432.798,-136.346"/>
</g>
<!-- User&#45;&gt;Blog::Post -->
<g id="edge34" class="edge"><title>User&#45;&gt;Blog::Post</title>
<path fill="none" stroke="#cae606" d="M403.749,-89.0803C383.811,-74.9305 355.939,-55.1503 334.888,-40.2112"/>
<ellipse fill="none" stroke="#cae606" cx="407.174" cy="-91.5105" rx="4.00002" ry="4.00002"/>
<polygon fill="#cae606" stroke="#cae606" points="334.77,-40.1269 329.219,-30.6696 330.692,-37.2332 326.615,-34.3394 326.615,-34.3394 326.615,-34.3394 330.692,-37.2332 324.01,-38.0092 334.77,-40.1269 334.77,-40.1269"/>
<text text-anchor="middle" x="392.393" y="-57.4" font-family="Times,serif" font-size="14.00">posts</text>
</g>
<!-- User&#45;&gt;NingProfile -->
<g id="edge32" class="edge"><title>User&#45;&gt;NingProfile</title>
<path fill="none" stroke="#8efc04" d="M429.58,-81.4625C429.847,-69.7124 430.163,-55.8165 430.429,-44.1181"/>
<ellipse fill="none" stroke="#8efc04" cx="429.486" cy="-85.6151" rx="4" ry="4"/>
<ellipse fill="#8efc04" stroke="#8efc04" cx="430.522" cy="-40.0494" rx="4" ry="4"/>
</g>
<!-- Venture -->
<g id="node15" class="node"><title>Venture</title>
<ellipse fill="none" stroke="black" cx="335" cy="-272" rx="41.1025" ry="18"/>
<text text-anchor="middle" x="335" y="-266.4" font-family="Times,serif" font-size="14.00">Venture</text>
</g>
<!-- Venture&#45;&gt;Brief -->
<g id="edge36" class="edge"><title>Venture&#45;&gt;Brief</title>
<path fill="none" stroke="#e8e165" d="M332.098,-245.462C330.841,-234.397 329.367,-221.428 328.089,-210.184"/>
<ellipse fill="none" stroke="#e8e165" cx="332.573" cy="-249.64" rx="4.00001" ry="4.00001"/>
<polygon fill="#e8e165" stroke="#e8e165" points="328.067,-209.986 331.409,-199.542 327.502,-205.018 326.938,-200.05 326.938,-200.05 326.938,-200.05 327.502,-205.018 322.466,-200.559 328.067,-209.986 328.067,-209.986"/>
</g>
</g>
</svg>
