<?xml version="1.0" encoding="UTF-8" standalone="no"?>
<!DOCTYPE svg PUBLIC "-//W3C//DTD SVG 1.1//EN"
 "http://www.w3.org/Graphics/SVG/1.1/DTD/svg11.dtd">
<!-- Generated by graphviz version 2.28.0 (20120621.1411)
 -->
<!-- Title: models_diagram Pages: 1 -->
<svg width="848pt" height="1356pt"
 viewBox="0.00 0.00 848.00 1356.00" xmlns="http://www.w3.org/2000/svg" xmlns:xlink="http://www.w3.org/1999/xlink">
<g id="graph1" class="graph" transform="scale(1 1) rotate(0) translate(4 1352)">
<title>models_diagram</title>
<polygon fill="white" stroke="white" points="-4,5 -4,-1352 845,-1352 845,5 -4,5"/>
<!-- _diagram_info -->
<g id="node1" class="node"><title>_diagram_info</title>
<text text-anchor="start" x="7.55029" y="-1315" font-family="Times,serif" font-size="13.00">Models diagram</text>
<text text-anchor="start" x="7.55029" y="-1299.4" font-family="Times,serif" font-size="13.00">Date: Jun 21 2012 &#45; 15:13</text>
<text text-anchor="start" x="7.55029" y="-1283.8" font-family="Times,serif" font-size="13.00">Migration version: 20120618113004</text>
<text text-anchor="start" x="7.55029" y="-1268.2" font-family="Times,serif" font-size="13.00">Generated by RailRoady 1.0.7</text>
<text text-anchor="start" x="7.55029" y="-1252.6" font-family="Times,serif" font-size="13.00">http://railroady.prestonlee.com</text>
</g>
<!-- Blog::Category -->
<g id="node2" class="node"><title>Blog::Category</title>
<polyline fill="none" stroke="black" points="274.495,-542.4 383.505,-542.4 "/>
<path fill="none" stroke="black" d="M383.505,-542.4C389.505,-542.4 395.505,-548.4 395.505,-554.4"/>
<polyline fill="none" stroke="black" points="395.505,-554.4 395.505,-613.6 "/>
<path fill="none" stroke="black" d="M395.505,-613.6C395.505,-619.6 389.505,-625.6 383.505,-625.6"/>
<polyline fill="none" stroke="black" points="383.505,-625.6 274.495,-625.6 "/>
<path fill="none" stroke="black" d="M274.495,-625.6C268.495,-625.6 262.495,-619.6 262.495,-613.6"/>
<polyline fill="none" stroke="black" points="262.495,-613.6 262.495,-554.4 "/>
<path fill="none" stroke="black" d="M262.495,-554.4C262.495,-548.4 268.495,-542.4 274.495,-542.4"/>
<text text-anchor="middle" x="329" y="-607.6" font-family="Times,serif" font-size="14.00">Blog::Category</text>
<polyline fill="none" stroke="black" points="262.495,-600.8 395.505,-600.8 "/>
<text text-anchor="start" x="270.495" y="-582.8" font-family="Times,serif" font-size="14.00">title :string</text>
<text text-anchor="start" x="270.495" y="-566" font-family="Times,serif" font-size="14.00">created_at :datetime</text>
<text text-anchor="start" x="270.495" y="-549.2" font-family="Times,serif" font-size="14.00">updated_at :datetime</text>
</g>
<!-- Blog::Post -->
<g id="node3" class="node"><title>Blog::Post</title>
<polyline fill="none" stroke="black" points="274.495,-101.2 383.505,-101.2 "/>
<path fill="none" stroke="black" d="M383.505,-101.2C389.505,-101.2 395.505,-107.2 395.505,-113.2"/>
<polyline fill="none" stroke="black" points="395.505,-113.2 395.505,-222.8 "/>
<path fill="none" stroke="black" d="M395.505,-222.8C395.505,-228.8 389.505,-234.8 383.505,-234.8"/>
<polyline fill="none" stroke="black" points="383.505,-234.8 274.495,-234.8 "/>
<path fill="none" stroke="black" d="M274.495,-234.8C268.495,-234.8 262.495,-228.8 262.495,-222.8"/>
<polyline fill="none" stroke="black" points="262.495,-222.8 262.495,-113.2 "/>
<path fill="none" stroke="black" d="M262.495,-113.2C262.495,-107.2 268.495,-101.2 274.495,-101.2"/>
<text text-anchor="middle" x="329" y="-216.8" font-family="Times,serif" font-size="14.00">Blog::Post</text>
<polyline fill="none" stroke="black" points="262.495,-210 395.505,-210 "/>
<text text-anchor="start" x="270.495" y="-192" font-family="Times,serif" font-size="14.00">title :string</text>
<text text-anchor="start" x="270.495" y="-175.2" font-family="Times,serif" font-size="14.00">body :text</text>
<text text-anchor="start" x="270.495" y="-158.4" font-family="Times,serif" font-size="14.00">created_at :datetime</text>
<text text-anchor="start" x="270.495" y="-141.6" font-family="Times,serif" font-size="14.00">updated_at :datetime</text>
<text text-anchor="start" x="270.495" y="-124.8" font-family="Times,serif" font-size="14.00">excerpt :text</text>
<text text-anchor="start" x="270.495" y="-108" font-family="Times,serif" font-size="14.00">hero_image :string</text>
</g>
<!-- Blog::Category&#45;&gt;Blog::Post -->
<g id="edge2" class="edge"><title>Blog::Category&#45;&gt;Blog::Post</title>
<path fill="none" stroke="#b7e23e" d="M329,-533.876C329,-462.39 329,-329.068 329,-244.896"/>
<ellipse fill="none" stroke="#b7e23e" cx="329" cy="-538.171" rx="4" ry="4"/>
<polygon fill="#b7e23e" stroke="#b7e23e" points="329,-244.882 333.5,-234.882 329,-239.882 329,-234.882 329,-234.882 329,-234.882 329,-239.882 324.5,-234.882 329,-244.882 329,-244.882"/>
</g>
<!-- Brief -->
<g id="node4" class="node"><title>Brief</title>
<polyline fill="none" stroke="black" points="330.705,-850.8 413.295,-850.8 "/>
<path fill="none" stroke="black" d="M413.295,-850.8C419.295,-850.8 425.295,-856.8 425.295,-862.8"/>
<polyline fill="none" stroke="black" points="425.295,-862.8 425.295,-905.2 "/>
<path fill="none" stroke="black" d="M425.295,-905.2C425.295,-911.2 419.295,-917.2 413.295,-917.2"/>
<polyline fill="none" stroke="black" points="413.295,-917.2 330.705,-917.2 "/>
<path fill="none" stroke="black" d="M330.705,-917.2C324.705,-917.2 318.705,-911.2 318.705,-905.2"/>
<polyline fill="none" stroke="black" points="318.705,-905.2 318.705,-862.8 "/>
<path fill="none" stroke="black" d="M318.705,-862.8C318.705,-856.8 324.705,-850.8 330.705,-850.8"/>
<text text-anchor="middle" x="372" y="-899.2" font-family="Times,serif" font-size="14.00">Brief</text>
<polyline fill="none" stroke="black" points="318.705,-892.4 425.295,-892.4 "/>
<text text-anchor="start" x="326.705" y="-874.4" font-family="Times,serif" font-size="14.00">title :string</text>
<text text-anchor="start" x="326.705" y="-857.6" font-family="Times,serif" font-size="14.00">description :text</text>
</g>
<!-- Chapter -->
<g id="node5" class="node"><title>Chapter</title>
<polyline fill="none" stroke="black" points="236.495,-1230.6 345.505,-1230.6 "/>
<path fill="none" stroke="black" d="M345.505,-1230.6C351.505,-1230.6 357.505,-1236.6 357.505,-1242.6"/>
<polyline fill="none" stroke="black" points="357.505,-1242.6 357.505,-1335.4 "/>
<path fill="none" stroke="black" d="M357.505,-1335.4C357.505,-1341.4 351.505,-1347.4 345.505,-1347.4"/>
<polyline fill="none" stroke="black" points="345.505,-1347.4 236.495,-1347.4 "/>
<path fill="none" stroke="black" d="M236.495,-1347.4C230.495,-1347.4 224.495,-1341.4 224.495,-1335.4"/>
<polyline fill="none" stroke="black" points="224.495,-1335.4 224.495,-1242.6 "/>
<path fill="none" stroke="black" d="M224.495,-1242.6C224.495,-1236.6 230.495,-1230.6 236.495,-1230.6"/>
<text text-anchor="middle" x="291" y="-1329.4" font-family="Times,serif" font-size="14.00">Chapter</text>
<polyline fill="none" stroke="black" points="224.495,-1322.6 357.505,-1322.6 "/>
<text text-anchor="start" x="232.495" y="-1304.6" font-family="Times,serif" font-size="14.00">title :string</text>
<text text-anchor="start" x="232.495" y="-1287.8" font-family="Times,serif" font-size="14.00">created_at :datetime</text>
<text text-anchor="start" x="232.495" y="-1271" font-family="Times,serif" font-size="14.00">updated_at :datetime</text>
<text text-anchor="start" x="232.495" y="-1254.2" font-family="Times,serif" font-size="14.00">city :string</text>
<text text-anchor="start" x="232.495" y="-1237.4" font-family="Times,serif" font-size="14.00">country :string</text>
</g>
<!-- Chapter&#45;&gt;Blog::Post -->
<g id="edge6" class="edge"><title>Chapter&#45;&gt;Blog::Post</title>
<path fill="none" stroke="#e9e7b6" d="M260.892,-1222.62C247.198,-1187.12 234,-1142.01 234,-1100 234,-1100 234,-1100 234,-583 234,-496.808 234.638,-474.214 253,-390 263.808,-340.43 282.19,-286.559 298.168,-244.414"/>
<ellipse fill="none" stroke="#e9e7b6" cx="262.534" cy="-1226.79" rx="4.00001" ry="4.00001"/>
<polygon fill="#e9e7b6" stroke="#e9e7b6" points="298.174,-244.399 305.951,-236.668 299.961,-239.729 301.748,-235.06 301.748,-235.06 301.748,-235.06 299.961,-239.729 297.545,-233.451 298.174,-244.399 298.174,-244.399"/>
<text text-anchor="middle" x="248.393" y="-878.4" font-family="Times,serif" font-size="14.00">posts</text>
</g>
<!-- Gig -->
<g id="node7" class="node"><title>Gig</title>
<polyline fill="none" stroke="black" points="470.495,-1007 579.505,-1007 "/>
<path fill="none" stroke="black" d="M579.505,-1007C585.505,-1007 591.505,-1013 591.505,-1019"/>
<polyline fill="none" stroke="black" points="591.505,-1019 591.505,-1179 "/>
<path fill="none" stroke="black" d="M591.505,-1179C591.505,-1185 585.505,-1191 579.505,-1191"/>
<polyline fill="none" stroke="black" points="579.505,-1191 470.495,-1191 "/>
<path fill="none" stroke="black" d="M470.495,-1191C464.495,-1191 458.495,-1185 458.495,-1179"/>
<polyline fill="none" stroke="black" points="458.495,-1179 458.495,-1019 "/>
<path fill="none" stroke="black" d="M458.495,-1019C458.495,-1013 464.495,-1007 470.495,-1007"/>
<text text-anchor="middle" x="525" y="-1173" font-family="Times,serif" font-size="14.00">Gig</text>
<polyline fill="none" stroke="black" points="458.495,-1166.2 591.505,-1166.2 "/>
<text text-anchor="start" x="466.495" y="-1148.2" font-family="Times,serif" font-size="14.00">title :string</text>
<text text-anchor="start" x="466.495" y="-1131.4" font-family="Times,serif" font-size="14.00">description :text</text>
<text text-anchor="start" x="466.495" y="-1114.6" font-family="Times,serif" font-size="14.00">location :string</text>
<text text-anchor="start" x="466.495" y="-1097.8" font-family="Times,serif" font-size="14.00">start_time :datetime</text>
<text text-anchor="start" x="466.495" y="-1081" font-family="Times,serif" font-size="14.00">end_time :datetime</text>
<text text-anchor="start" x="466.495" y="-1064.2" font-family="Times,serif" font-size="14.00">created_at :datetime</text>
<text text-anchor="start" x="466.495" y="-1047.4" font-family="Times,serif" font-size="14.00">updated_at :datetime</text>
<text text-anchor="start" x="466.495" y="-1030.6" font-family="Times,serif" font-size="14.00">poster :string</text>
<text text-anchor="start" x="466.495" y="-1013.8" font-family="Times,serif" font-size="14.00">logo :string</text>
</g>
<!-- Chapter&#45;&gt;Gig -->
<g id="edge4" class="edge"><title>Chapter&#45;&gt;Gig</title>
<path fill="none" stroke="#d1a8cb" d="M364.341,-1236.75C383.723,-1222.65 404.412,-1207.07 423,-1192 432.117,-1184.61 441.498,-1176.66 450.706,-1168.64"/>
<ellipse fill="none" stroke="#d1a8cb" cx="361.062" cy="-1239.13" rx="4.00002" ry="4.00002"/>
<polygon fill="#d1a8cb" stroke="#d1a8cb" points="450.873,-1168.49 461.358,-1165.27 454.631,-1165.19 458.389,-1161.89 458.389,-1161.89 458.389,-1161.89 454.631,-1165.19 455.421,-1158.51 450.873,-1168.49 450.873,-1168.49"/>
</g>
<!-- User -->
<g id="node14" class="node"><title>User</title>
<polyline fill="none" stroke="black" points="425.722,-391.2 606.278,-391.2 "/>
<path fill="none" stroke="black" d="M606.278,-391.2C612.278,-391.2 618.278,-397.2 618.278,-403.2"/>
<polyline fill="none" stroke="black" points="618.278,-403.2 618.278,-764.8 "/>
<path fill="none" stroke="black" d="M618.278,-764.8C618.278,-770.8 612.278,-776.8 606.278,-776.8"/>
<polyline fill="none" stroke="black" points="606.278,-776.8 425.722,-776.8 "/>
<path fill="none" stroke="black" d="M425.722,-776.8C419.722,-776.8 413.722,-770.8 413.722,-764.8"/>
<polyline fill="none" stroke="black" points="413.722,-764.8 413.722,-403.2 "/>
<path fill="none" stroke="black" d="M413.722,-403.2C413.722,-397.2 419.722,-391.2 425.722,-391.2"/>
<text text-anchor="middle" x="516" y="-758.8" font-family="Times,serif" font-size="14.00">User</text>
<polyline fill="none" stroke="black" points="413.722,-752 618.278,-752 "/>
<text text-anchor="start" x="421.722" y="-734" font-family="Times,serif" font-size="14.00">email :string</text>
<text text-anchor="start" x="421.722" y="-717.2" font-family="Times,serif" font-size="14.00">encrypted_password :string</text>
<text text-anchor="start" x="421.722" y="-700.4" font-family="Times,serif" font-size="14.00">reset_password_token :string</text>
<text text-anchor="start" x="421.722" y="-683.6" font-family="Times,serif" font-size="14.00">reset_password_sent_at :datetime</text>
<text text-anchor="start" x="421.722" y="-666.8" font-family="Times,serif" font-size="14.00">remember_created_at :datetime</text>
<text text-anchor="start" x="421.722" y="-650" font-family="Times,serif" font-size="14.00">current_sign_in_at :datetime</text>
<text text-anchor="start" x="421.722" y="-633.2" font-family="Times,serif" font-size="14.00">last_sign_in_at :datetime</text>
<text text-anchor="start" x="421.722" y="-616.4" font-family="Times,serif" font-size="14.00">current_sign_in_ip :string</text>
<text text-anchor="start" x="421.722" y="-599.6" font-family="Times,serif" font-size="14.00">last_sign_in_ip :string</text>
<text text-anchor="start" x="421.722" y="-582.8" font-family="Times,serif" font-size="14.00">created_at :datetime</text>
<text text-anchor="start" x="421.722" y="-566" font-family="Times,serif" font-size="14.00">updated_at :datetime</text>
<text text-anchor="start" x="421.722" y="-549.2" font-family="Times,serif" font-size="14.00">admin :boolean</text>
<text text-anchor="start" x="421.722" y="-532.4" font-family="Times,serif" font-size="14.00">name :string</text>
<text text-anchor="start" x="421.722" y="-515.6" font-family="Times,serif" font-size="14.00">avatar :string</text>
<text text-anchor="start" x="421.722" y="-498.8" font-family="Times,serif" font-size="14.00">approved :boolean</text>
<text text-anchor="start" x="421.722" y="-482" font-family="Times,serif" font-size="14.00">url :string</text>
<text text-anchor="start" x="421.722" y="-465.2" font-family="Times,serif" font-size="14.00">twitter_handle :string</text>
<text text-anchor="start" x="421.722" y="-448.4" font-family="Times,serif" font-size="14.00">location :string</text>
<text text-anchor="start" x="421.722" y="-431.6" font-family="Times,serif" font-size="14.00">gender :string</text>
<text text-anchor="start" x="421.722" y="-414.8" font-family="Times,serif" font-size="14.00">age :integer</text>
<text text-anchor="start" x="421.722" y="-398" font-family="Times,serif" font-size="14.00">reasons_for_joining :text</text>
</g>
<!-- Chapter&#45;&gt;User -->
<g id="edge8" class="edge"><title>Chapter&#45;&gt;User</title>
<path fill="none" stroke="#272c51" d="M285.152,-1222.22C276.372,-1108.12 265.22,-879.604 310,-816 335.941,-779.153 369.961,-807.529 404,-778 404.704,-777.389 405.405,-776.773 406.102,-776.151"/>
<ellipse fill="none" stroke="#272c51" cx="285.467" cy="-1226.24" rx="4" ry="4"/>
<polygon fill="#272c51" stroke="#272c51" points="406.14,-776.116 416.52,-772.577 409.794,-772.702 413.447,-769.289 413.447,-769.289 413.447,-769.289 409.794,-772.702 410.375,-766 406.14,-776.116 406.14,-776.116"/>
</g>
<!-- Friend -->
<g id="node6" class="node"><title>Friend</title>
<polyline fill="none" stroke="black" points="442.202,-1247.4 503.798,-1247.4 "/>
<path fill="none" stroke="black" d="M503.798,-1247.4C509.798,-1247.4 515.798,-1253.4 515.798,-1259.4"/>
<polyline fill="none" stroke="black" points="515.798,-1259.4 515.798,-1318.6 "/>
<path fill="none" stroke="black" d="M515.798,-1318.6C515.798,-1324.6 509.798,-1330.6 503.798,-1330.6"/>
<polyline fill="none" stroke="black" points="503.798,-1330.6 442.202,-1330.6 "/>
<path fill="none" stroke="black" d="M442.202,-1330.6C436.202,-1330.6 430.202,-1324.6 430.202,-1318.6"/>
<polyline fill="none" stroke="black" points="430.202,-1318.6 430.202,-1259.4 "/>
<path fill="none" stroke="black" d="M430.202,-1259.4C430.202,-1253.4 436.202,-1247.4 442.202,-1247.4"/>
<text text-anchor="middle" x="473" y="-1312.6" font-family="Times,serif" font-size="14.00">Friend</text>
<polyline fill="none" stroke="black" points="430.202,-1305.8 515.798,-1305.8 "/>
<text text-anchor="start" x="438.202" y="-1287.8" font-family="Times,serif" font-size="14.00">name :string</text>
<text text-anchor="start" x="438.202" y="-1271" font-family="Times,serif" font-size="14.00">url :string</text>
<text text-anchor="start" x="438.202" y="-1254.2" font-family="Times,serif" font-size="14.00">logo :string</text>
</g>
<!-- Friend&#45;&gt;Gig -->
<g id="edge10" class="edge"><title>Friend&#45;&gt;Gig</title>
<path fill="none" stroke="#6c6291" d="M487.058,-1237.18C490.161,-1225.96 493.554,-1213.69 496.994,-1201.25"/>
<polygon fill="#6c6291" stroke="#6c6291" points="486.949,-1237.57 479.946,-1246.01 485.616,-1242.39 484.283,-1247.21 484.283,-1247.21 484.283,-1247.21 485.616,-1242.39 488.62,-1248.41 486.949,-1237.57 486.949,-1237.57"/>
<polygon fill="#6c6291" stroke="#6c6291" points="497.093,-1200.9 504.096,-1192.46 498.426,-1196.08 499.759,-1191.26 499.759,-1191.26 499.759,-1191.26 498.426,-1196.08 495.421,-1190.06 497.093,-1200.9 497.093,-1200.9"/>
</g>
<!-- Gig&#45;&gt;Brief -->
<g id="edge12" class="edge"><title>Gig&#45;&gt;Brief</title>
<path fill="none" stroke="#feafd8" d="M453.332,-1007.6C448.417,-1001.02 443.596,-994.436 439,-988 424.702,-967.977 409.687,-945.09 397.505,-925.983"/>
<ellipse fill="none" stroke="#feafd8" cx="455.872" cy="-1010.99" rx="4.00002" ry="4.00002"/>
<polygon fill="#feafd8" stroke="#feafd8" points="397.476,-925.938 395.919,-915.083 394.798,-921.716 392.119,-917.494 392.119,-917.494 392.119,-917.494 394.798,-921.716 388.319,-919.904 397.476,-925.938 397.476,-925.938"/>
</g>
<!-- Library::Bookmark -->
<g id="node8" class="node"><title>Library::Bookmark</title>
<polyline fill="none" stroke="black" points="599.495,-817.2 708.505,-817.2 "/>
<path fill="none" stroke="black" d="M708.505,-817.2C714.505,-817.2 720.505,-823.2 720.505,-829.2"/>
<polyline fill="none" stroke="black" points="720.505,-829.2 720.505,-938.8 "/>
<path fill="none" stroke="black" d="M720.505,-938.8C720.505,-944.8 714.505,-950.8 708.505,-950.8"/>
<polyline fill="none" stroke="black" points="708.505,-950.8 599.495,-950.8 "/>
<path fill="none" stroke="black" d="M599.495,-950.8C593.495,-950.8 587.495,-944.8 587.495,-938.8"/>
<polyline fill="none" stroke="black" points="587.495,-938.8 587.495,-829.2 "/>
<path fill="none" stroke="black" d="M587.495,-829.2C587.495,-823.2 593.495,-817.2 599.495,-817.2"/>
<text text-anchor="middle" x="654" y="-932.8" font-family="Times,serif" font-size="14.00">Library::Bookmark</text>
<polyline fill="none" stroke="black" points="587.495,-926 720.505,-926 "/>
<text text-anchor="start" x="595.495" y="-908" font-family="Times,serif" font-size="14.00">title :string</text>
<text text-anchor="start" x="595.495" y="-891.2" font-family="Times,serif" font-size="14.00">description :text</text>
<text text-anchor="start" x="595.495" y="-874.4" font-family="Times,serif" font-size="14.00">url :text</text>
<text text-anchor="start" x="595.495" y="-857.6" font-family="Times,serif" font-size="14.00">published :boolean</text>
<text text-anchor="start" x="595.495" y="-840.8" font-family="Times,serif" font-size="14.00">created_at :datetime</text>
<text text-anchor="start" x="595.495" y="-824" font-family="Times,serif" font-size="14.00">updated_at :datetime</text>
</g>
<!-- Gig&#45;&gt;Library::Bookmark -->
<g id="edge18" class="edge"><title>Gig&#45;&gt;Library::Bookmark</title>
<path fill="none" stroke="#29f13e" d="M591.738,-998.255C593.87,-994.808 595.963,-991.383 598,-988 603.466,-978.922 609.025,-969.276 614.412,-959.669"/>
<polygon fill="#29f13e" stroke="#29f13e" points="591.663,-998.376 582.548,-1004.47 589.014,-1002.62 586.364,-1006.86 586.364,-1006.86 586.364,-1006.86 589.014,-1002.62 590.181,-1009.24 591.663,-998.376 591.663,-998.376"/>
<polygon fill="#29f13e" stroke="#29f13e" points="614.443,-959.613 623.237,-953.062 616.874,-955.244 619.305,-950.874 619.305,-950.874 619.305,-950.874 616.874,-955.244 615.372,-948.687 614.443,-959.613 614.443,-959.613"/>
<text text-anchor="middle" x="638.107" y="-973.4" font-family="Times,serif" font-size="14.00">bookmarks</text>
</g>
<!-- Slot -->
<g id="node13" class="node"><title>Slot</title>
<polyline fill="none" stroke="black" points="492.646,-859.2 557.354,-859.2 "/>
<path fill="none" stroke="black" d="M557.354,-859.2C563.354,-859.2 569.354,-865.2 569.354,-871.2"/>
<polyline fill="none" stroke="black" points="569.354,-871.2 569.354,-896.8 "/>
<path fill="none" stroke="black" d="M569.354,-896.8C569.354,-902.8 563.354,-908.8 557.354,-908.8"/>
<polyline fill="none" stroke="black" points="557.354,-908.8 492.646,-908.8 "/>
<path fill="none" stroke="black" d="M492.646,-908.8C486.646,-908.8 480.646,-902.8 480.646,-896.8"/>
<polyline fill="none" stroke="black" points="480.646,-896.8 480.646,-871.2 "/>
<path fill="none" stroke="black" d="M480.646,-871.2C480.646,-865.2 486.646,-859.2 492.646,-859.2"/>
<text text-anchor="middle" x="525" y="-890.8" font-family="Times,serif" font-size="14.00">Slot</text>
<polyline fill="none" stroke="black" points="480.646,-884 569.354,-884 "/>
<text text-anchor="start" x="488.646" y="-866" font-family="Times,serif" font-size="14.00">limit :integer</text>
</g>
<!-- Gig&#45;&gt;Slot -->
<g id="edge14" class="edge"><title>Gig&#45;&gt;Slot</title>
<path fill="none" stroke="#b86d0d" d="M525,-998.344C525,-969.997 525,-941.001 525,-919.433"/>
<ellipse fill="none" stroke="#b86d0d" cx="525" cy="-1002.74" rx="4" ry="4"/>
<polygon fill="#b86d0d" stroke="#b86d0d" points="525,-919.176 529.5,-909.176 525,-914.176 525,-909.176 525,-909.176 525,-909.176 525,-914.176 520.5,-909.176 525,-919.176 525,-919.176"/>
</g>
<!-- Gig&#45;&gt;User -->
<g id="edge16" class="edge"><title>Gig&#45;&gt;User</title>
<path fill="none" stroke="#3c8d44" d="M483.234,-996.96C478.592,-982.105 474.606,-966.814 472,-952 462.634,-898.749 464.199,-840.796 470.515,-787.004"/>
<polygon fill="#3c8d44" stroke="#3c8d44" points="483.291,-997.136 482.09,-1008.04 484.831,-1001.89 486.371,-1006.65 486.371,-1006.65 486.371,-1006.65 484.831,-1001.89 490.652,-1005.26 483.291,-997.136 483.291,-997.136"/>
<polygon fill="#3c8d44" stroke="#3c8d44" points="470.523,-786.936 476.214,-777.562 471.135,-781.973 471.748,-777.011 471.748,-777.011 471.748,-777.011 471.135,-781.973 467.281,-776.46 470.523,-786.936 470.523,-786.936"/>
</g>
<!-- Library::Bookmark&#45;&gt;Gig -->
<g id="edge22" class="edge"><title>Library::Bookmark&#45;&gt;Gig</title>
<path fill="none" stroke="#4c037f" d="M580.811,-955.403C577.172,-960.18 573.752,-965.062 570.662,-970 565.256,-978.64 560.375,-988.008 555.995,-997.613"/>
<polygon fill="#4c037f" stroke="#4c037f" points="580.897,-955.295 590.646,-950.273 584.011,-951.383 587.125,-947.471 587.125,-947.471 587.125,-947.471 584.011,-951.383 583.604,-944.668 580.897,-955.295 580.897,-955.295"/>
<polygon fill="#4c037f" stroke="#4c037f" points="555.95,-997.714 547.824,-1005.08 553.949,-1002.3 551.948,-1006.88 551.948,-1006.88 551.948,-1006.88 553.949,-1002.3 556.072,-1008.68 555.95,-997.714 555.95,-997.714"/>
<text text-anchor="middle" x="581.669" y="-973.4" font-family="Times,serif" font-size="14.00">gigs</text>
</g>
<!-- Library::Tag -->
<g id="node9" class="node"><title>Library::Tag</title>
<polyline fill="none" stroke="black" points="719.495,-542.4 828.505,-542.4 "/>
<path fill="none" stroke="black" d="M828.505,-542.4C834.505,-542.4 840.505,-548.4 840.505,-554.4"/>
<polyline fill="none" stroke="black" points="840.505,-554.4 840.505,-613.6 "/>
<path fill="none" stroke="black" d="M840.505,-613.6C840.505,-619.6 834.505,-625.6 828.505,-625.6"/>
<polyline fill="none" stroke="black" points="828.505,-625.6 719.495,-625.6 "/>
<path fill="none" stroke="black" d="M719.495,-625.6C713.495,-625.6 707.495,-619.6 707.495,-613.6"/>
<polyline fill="none" stroke="black" points="707.495,-613.6 707.495,-554.4 "/>
<path fill="none" stroke="black" d="M707.495,-554.4C707.495,-548.4 713.495,-542.4 719.495,-542.4"/>
<text text-anchor="middle" x="774" y="-607.6" font-family="Times,serif" font-size="14.00">Library::Tag</text>
<polyline fill="none" stroke="black" points="707.495,-600.8 840.505,-600.8 "/>
<text text-anchor="start" x="715.495" y="-582.8" font-family="Times,serif" font-size="14.00">title :string</text>
<text text-anchor="start" x="715.495" y="-566" font-family="Times,serif" font-size="14.00">created_at :datetime</text>
<text text-anchor="start" x="715.495" y="-549.2" font-family="Times,serif" font-size="14.00">updated_at :datetime</text>
</g>
<!-- Library::Bookmark&#45;&gt;Library::Tag -->
<g id="edge20" class="edge"><title>Library::Bookmark&#45;&gt;Library::Tag</title>
<path fill="none" stroke="#349aa8" d="M684.437,-807.414C706.184,-753.409 734.839,-682.249 753.813,-635.13"/>
<polygon fill="#349aa8" stroke="#349aa8" points="684.367,-807.588 676.458,-815.183 682.5,-812.226 680.632,-816.864 680.632,-816.864 680.632,-816.864 682.5,-812.226 684.806,-818.545 684.367,-807.588 684.367,-807.588"/>
<polygon fill="#349aa8" stroke="#349aa8" points="753.856,-635.024 761.766,-627.428 755.724,-630.386 757.592,-625.748 757.592,-625.748 757.592,-625.748 755.724,-630.386 753.417,-624.067 753.856,-635.024 753.856,-635.024"/>
</g>
<!-- NingProfile -->
<g id="node10" class="node"><title>NingProfile</title>
<polyline fill="none" stroke="black" points="429.215,-0.4 602.785,-0.4 "/>
<path fill="none" stroke="black" d="M602.785,-0.4C608.785,-0.4 614.785,-6.4 614.785,-12.4"/>
<polyline fill="none" stroke="black" points="614.785,-12.4 614.785,-323.6 "/>
<path fill="none" stroke="black" d="M614.785,-323.6C614.785,-329.6 608.785,-335.6 602.785,-335.6"/>
<polyline fill="none" stroke="black" points="602.785,-335.6 429.215,-335.6 "/>
<path fill="none" stroke="black" d="M429.215,-335.6C423.215,-335.6 417.215,-329.6 417.215,-323.6"/>
<polyline fill="none" stroke="black" points="417.215,-323.6 417.215,-12.4 "/>
<path fill="none" stroke="black" d="M417.215,-12.4C417.215,-6.4 423.215,-0.4 429.215,-0.4"/>
<text text-anchor="middle" x="516" y="-317.6" font-family="Times,serif" font-size="14.00">NingProfile</text>
<polyline fill="none" stroke="black" points="417.215,-310.8 614.785,-310.8 "/>
<text text-anchor="start" x="425.215" y="-292.8" font-family="Times,serif" font-size="14.00">name :string</text>
<text text-anchor="start" x="425.215" y="-276" font-family="Times,serif" font-size="14.00">email :string</text>
<text text-anchor="start" x="425.215" y="-259.2" font-family="Times,serif" font-size="14.00">gender :string</text>
<text text-anchor="start" x="425.215" y="-242.4" font-family="Times,serif" font-size="14.00">location :string</text>
<text text-anchor="start" x="425.215" y="-225.6" font-family="Times,serif" font-size="14.00">country :string</text>
<text text-anchor="start" x="425.215" y="-208.8" font-family="Times,serif" font-size="14.00">zip :string</text>
<text text-anchor="start" x="425.215" y="-192" font-family="Times,serif" font-size="14.00">age :string</text>
<text text-anchor="start" x="425.215" y="-175.2" font-family="Times,serif" font-size="14.00">website :string</text>
<text text-anchor="start" x="425.215" y="-158.4" font-family="Times,serif" font-size="14.00">twitter :string</text>
<text text-anchor="start" x="425.215" y="-141.6" font-family="Times,serif" font-size="14.00">birthdate :date</text>
<text text-anchor="start" x="425.215" y="-124.8" font-family="Times,serif" font-size="14.00">reasons_for_joining :text</text>
<text text-anchor="start" x="425.215" y="-108" font-family="Times,serif" font-size="14.00">skills :text</text>
<text text-anchor="start" x="425.215" y="-91.2" font-family="Times,serif" font-size="14.00">notification_broadcasts :boolean</text>
<text text-anchor="start" x="425.215" y="-74.4" font-family="Times,serif" font-size="14.00">notification_email :boolean</text>
<text text-anchor="start" x="425.215" y="-57.6" font-family="Times,serif" font-size="14.00">date_joined :date</text>
<text text-anchor="start" x="425.215" y="-40.8" font-family="Times,serif" font-size="14.00">last_visit :date</text>
<text text-anchor="start" x="425.215" y="-24" font-family="Times,serif" font-size="14.00">created_at :datetime</text>
<text text-anchor="start" x="425.215" y="-7.2" font-family="Times,serif" font-size="14.00">updated_at :datetime</text>
</g>
<!-- Partner -->
<g id="node11" class="node"><title>Partner</title>
<polyline fill="none" stroke="black" points="546.202,-1247.4 607.798,-1247.4 "/>
<path fill="none" stroke="black" d="M607.798,-1247.4C613.798,-1247.4 619.798,-1253.4 619.798,-1259.4"/>
<polyline fill="none" stroke="black" points="619.798,-1259.4 619.798,-1318.6 "/>
<path fill="none" stroke="black" d="M619.798,-1318.6C619.798,-1324.6 613.798,-1330.6 607.798,-1330.6"/>
<polyline fill="none" stroke="black" points="607.798,-1330.6 546.202,-1330.6 "/>
<path fill="none" stroke="black" d="M546.202,-1330.6C540.202,-1330.6 534.202,-1324.6 534.202,-1318.6"/>
<polyline fill="none" stroke="black" points="534.202,-1318.6 534.202,-1259.4 "/>
<path fill="none" stroke="black" d="M534.202,-1259.4C534.202,-1253.4 540.202,-1247.4 546.202,-1247.4"/>
<text text-anchor="middle" x="577" y="-1312.6" font-family="Times,serif" font-size="14.00">Partner</text>
<polyline fill="none" stroke="black" points="534.202,-1305.8 619.798,-1305.8 "/>
<text text-anchor="start" x="542.202" y="-1287.8" font-family="Times,serif" font-size="14.00">name :string</text>
<text text-anchor="start" x="542.202" y="-1271" font-family="Times,serif" font-size="14.00">url :string</text>
<text text-anchor="start" x="542.202" y="-1254.2" font-family="Times,serif" font-size="14.00">logo :string</text>
</g>
<!-- Partner&#45;&gt;Gig -->
<g id="edge24" class="edge"><title>Partner&#45;&gt;Gig</title>
<path fill="none" stroke="#593130" d="M563.512,-1239.24C560.233,-1227.38 556.605,-1214.26 552.925,-1200.96"/>
<ellipse fill="none" stroke="#593130" cx="564.65" cy="-1243.35" rx="4.00001" ry="4.00001"/>
<polygon fill="#593130" stroke="#593130" points="552.907,-1200.9 554.579,-1190.06 551.574,-1196.08 550.241,-1191.26 550.241,-1191.26 550.241,-1191.26 551.574,-1196.08 545.904,-1192.46 552.907,-1200.9 552.907,-1200.9"/>
</g>
<!-- Skill -->
<g id="node12" class="node"><title>Skill</title>
<polyline fill="none" stroke="black" points="685.474,-1264.2 738.526,-1264.2 "/>
<path fill="none" stroke="black" d="M738.526,-1264.2C744.526,-1264.2 750.526,-1270.2 750.526,-1276.2"/>
<polyline fill="none" stroke="black" points="750.526,-1276.2 750.526,-1301.8 "/>
<path fill="none" stroke="black" d="M750.526,-1301.8C750.526,-1307.8 744.526,-1313.8 738.526,-1313.8"/>
<polyline fill="none" stroke="black" points="738.526,-1313.8 685.474,-1313.8 "/>
<path fill="none" stroke="black" d="M685.474,-1313.8C679.474,-1313.8 673.474,-1307.8 673.474,-1301.8"/>
<polyline fill="none" stroke="black" points="673.474,-1301.8 673.474,-1276.2 "/>
<path fill="none" stroke="black" d="M673.474,-1276.2C673.474,-1270.2 679.474,-1264.2 685.474,-1264.2"/>
<text text-anchor="middle" x="712" y="-1295.8" font-family="Times,serif" font-size="14.00">Skill</text>
<polyline fill="none" stroke="black" points="673.474,-1289 750.526,-1289 "/>
<text text-anchor="start" x="681.474" y="-1271" font-family="Times,serif" font-size="14.00">title :string</text>
</g>
<!-- Skill&#45;&gt;Gig -->
<g id="edge28" class="edge"><title>Skill&#45;&gt;Gig</title>
<path fill="none" stroke="#48b231" d="M681.151,-1256.99C658.829,-1234.54 627.683,-1203.23 599.075,-1174.47"/>
<polygon fill="#48b231" stroke="#48b231" points="681.264,-1257.1 685.126,-1267.36 684.79,-1260.64 688.316,-1264.19 688.316,-1264.19 688.316,-1264.19 684.79,-1260.64 691.507,-1261.02 681.264,-1257.1 681.264,-1257.1"/>
<polygon fill="#48b231" stroke="#48b231" points="598.916,-1174.31 595.054,-1164.05 595.39,-1170.77 591.864,-1167.22 591.864,-1167.22 591.864,-1167.22 595.39,-1170.77 588.673,-1170.39 598.916,-1174.31 598.916,-1174.31"/>
</g>
<!-- Skill&#45;&gt;User -->
<g id="edge26" class="edge"><title>Skill&#45;&gt;User</title>
<path fill="none" stroke="#a3554a" d="M722.095,-1254.09C743.98,-1174.34 789.182,-970.046 729,-816 725.937,-808.16 676.301,-754.169 625.72,-700.358"/>
<polygon fill="#a3554a" stroke="#a3554a" points="721.999,-1254.43 714.967,-1262.85 720.649,-1259.25 719.3,-1264.06 719.3,-1264.06 719.3,-1264.06 720.649,-1259.25 723.633,-1265.27 721.999,-1254.43 721.999,-1254.43"/>
<polygon fill="#a3554a" stroke="#a3554a" points="625.434,-700.054 621.859,-689.687 622.008,-696.412 618.581,-692.771 618.581,-692.771 618.581,-692.771 622.008,-696.412 615.304,-695.855 625.434,-700.054 625.434,-700.054"/>
</g>
<!-- Slot&#45;&gt;User -->
<g id="edge30" class="edge"><title>Slot&#45;&gt;User</title>
<path fill="none" stroke="#ecd0d0" d="M523.971,-848.938C523.468,-832.259 522.816,-810.688 522.103,-787.07"/>
<polygon fill="#ecd0d0" stroke="#ecd0d0" points="523.977,-849.122 519.781,-859.253 524.128,-854.119 524.279,-859.117 524.279,-859.117 524.279,-859.117 524.128,-854.119 528.777,-858.981 523.977,-849.122 523.977,-849.122"/>
<polygon fill="#ecd0d0" stroke="#ecd0d0" points="522.096,-786.827 526.292,-776.696 521.945,-781.829 521.794,-776.832 521.794,-776.832 521.794,-776.832 521.945,-781.829 517.296,-776.967 522.096,-786.827 522.096,-786.827"/>
</g>
<!-- User&#45;&gt;Blog::Post -->
<g id="edge34" class="edge"><title>User&#45;&gt;Blog::Post</title>
<path fill="none" stroke="#8319cd" d="M425.927,-383.588C403.501,-333.939 380.812,-283.707 363.03,-244.338"/>
<ellipse fill="none" stroke="#8319cd" cx="427.696" cy="-387.504" rx="4.00002" ry="4.00002"/>
<polygon fill="#8319cd" stroke="#8319cd" points="362.967,-244.199 362.951,-233.233 360.908,-239.642 358.85,-235.085 358.85,-235.085 358.85,-235.085 360.908,-239.642 354.749,-236.937 362.967,-244.199 362.967,-244.199"/>
<text text-anchor="middle" x="430.393" y="-357.4" font-family="Times,serif" font-size="14.00">posts</text>
</g>
<!-- User&#45;&gt;NingProfile -->
<g id="edge32" class="edge"><title>User&#45;&gt;NingProfile</title>
<path fill="none" stroke="#000346" d="M516,-382.899C516,-369.823 516,-356.71 516,-343.769"/>
<ellipse fill="none" stroke="#000346" cx="516" cy="-387.149" rx="4" ry="4"/>
<ellipse fill="#000346" stroke="#000346" cx="516" cy="-339.736" rx="4" ry="4"/>
</g>
<!-- Venture -->
<g id="node15" class="node"><title>Venture</title>
<polyline fill="none" stroke="black" points="341.202,-1057.4 402.798,-1057.4 "/>
<path fill="none" stroke="black" d="M402.798,-1057.4C408.798,-1057.4 414.798,-1063.4 414.798,-1069.4"/>
<polyline fill="none" stroke="black" points="414.798,-1069.4 414.798,-1128.6 "/>
<path fill="none" stroke="black" d="M414.798,-1128.6C414.798,-1134.6 408.798,-1140.6 402.798,-1140.6"/>
<polyline fill="none" stroke="black" points="402.798,-1140.6 341.202,-1140.6 "/>
<path fill="none" stroke="black" d="M341.202,-1140.6C335.202,-1140.6 329.202,-1134.6 329.202,-1128.6"/>
<polyline fill="none" stroke="black" points="329.202,-1128.6 329.202,-1069.4 "/>
<path fill="none" stroke="black" d="M329.202,-1069.4C329.202,-1063.4 335.202,-1057.4 341.202,-1057.4"/>
<text text-anchor="middle" x="372" y="-1122.6" font-family="Times,serif" font-size="14.00">Venture</text>
<polyline fill="none" stroke="black" points="329.202,-1115.8 414.798,-1115.8 "/>
<text text-anchor="start" x="337.202" y="-1097.8" font-family="Times,serif" font-size="14.00">logo :string</text>
<text text-anchor="start" x="337.202" y="-1081" font-family="Times,serif" font-size="14.00">name :string</text>
<text text-anchor="start" x="337.202" y="-1064.2" font-family="Times,serif" font-size="14.00">url :string</text>
</g>
<!-- Venture&#45;&gt;Brief -->
<g id="edge36" class="edge"><title>Venture&#45;&gt;Brief</title>
<path fill="none" stroke="#e8642f" d="M372,-1049.06C372,-1012.41 372,-962.759 372,-927.707"/>
<ellipse fill="none" stroke="#e8642f" cx="372" cy="-1053.18" rx="4" ry="4"/>
<polygon fill="#e8642f" stroke="#e8642f" points="372,-927.328 376.5,-917.328 372,-922.328 372,-917.328 372,-917.328 372,-917.328 372,-922.328 367.5,-917.328 372,-927.328 372,-927.328"/>
</g>
</g>
</svg>
